<mxfile host="app.diagrams.net" modified="2023-12-04T14:47:43.702Z" agent="Mozilla/5.0 (Macintosh; Intel Mac OS X 10_15_7) AppleWebKit/537.36 (KHTML, like Gecko) Chrome/119.0.0.0 Safari/537.36" etag="ZUUBQeE3k4r1JnzyQPZq" version="22.1.5" type="github">
  <diagram name="第 1 页" id="KIgSkonVb1hFCYbE4Fb7">
    <mxGraphModel dx="2009" dy="-25" grid="0" gridSize="10" guides="1" tooltips="1" connect="1" arrows="1" fold="1" page="1" pageScale="1" pageWidth="1920" pageHeight="1200" math="0" shadow="0">
      <root>
        <mxCell id="0" />
        <mxCell id="1" parent="0" />
        <mxCell id="of-63e9qQosdxJ9gNel2-1" value="" style="shape=image;verticalLabelPosition=bottom;labelBackgroundColor=default;verticalAlign=top;aspect=fixed;imageAspect=0;image=data:image/png,iVBORw0KGgoAAAANSUhEUgAACVQAAAIuCAYAAABaABHKAAAMa2lDQ1BJQ0MgUHJvZmlsZQAASImVVwdYU8kWnluSkJDQAhGQEnoTpFcpIbQAAlIFGyEJJJQYE4KKDcuigmsXEazoqoiiawFkURF7WRR7XyyoKOtiQVFU3oQEdN1Xvne+b+7898yZ/5Q7c+8dADR7uRJJLqoFQJ44XxofHswcm5rGJD0DZGAI9AAGXLg8mYQVFxcNoAz2f5f3NwCi6K86Krj+Of5fRYcvkPEAQMZDnMGX8fIgbgYAX8+TSPMBICr0FlPzJQpcBLGuFAYI8WoFzlLinQqcocRNAzaJ8WyILwOgRuVypVkAaNyDemYBLwvyaHyG2FnMF4kB0BwBcQBPyOVDrIh9RF7eZAUuh9gW2ksghvEA74zvOLP+xp8xxM/lZg1hZV4DohYikklyudP/z9L8b8nLlQ/6sIaNKpRGxCvyhzW8lTM5SoGpEHeJM2JiFbWGuFfEV9YdAJQilEckKe1RI56MDesHGBA787khURAbQRwmzo2JVukzMkVhHIjhakGnifI5iRDrQ7xIIAtNUNlslk6OV/lC6zKlbJZKf5YrHfCr8PVAnpPEUvG/EQo4Kn5Mo1CYmAIxBWLLAlFyDMQaEDvJchKiVDajCoXsmEEbqTxeEb8lxPECcXiwkh8ryJSGxavsS/Jkg/lim4UiTowK788XJkYo64Od5HEH4oe5YJcFYlbSII9ANjZ6MBe+ICRUmTv2XCBOSlDx9Eryg+OVc3GKJDdOZY+bC3LDFXpziN1lBQmquXhyPlycSn48U5Ifl6iMEy/M5kbGKePBl4NowAYhgAnksGWAySAbiFq76rvgnXIkDHCBFGQBAXBUaQZnpAyMiOE1ARSCPyESANnQvOCBUQEogPovQ1rl1RFkDowWDMzIAU8hzgNRIBfeywdmiYe8JYMnUCP6h3cubDwYby5sivF/rx/UftOwoCZapZEPemRqDloSQ4khxAhiGNEON8QDcD88Gl6DYHPFvXGfwTy+2ROeEtoIjwjXCe2E25NE86Q/RDkatEP+MFUtMr6vBW4NOT3wYNwfskNmnIEbAkfcHfph4YHQswfUslVxK6rC/IH7bxl89zRUdmRnMkoeRg4i2/44U8New2OIRVHr7+ujjDVjqN7soZEf/bO/qz4f9lE/WmKLsAPYGew4dg5rwuoBEzuGNWAXsSMKPLS6ngysrkFv8QPx5EAe0T/8cVU+FZWUOdc4dzp/Vo7lC6blKzYee7JkulSUJcxnsuDXQcDkiHlOI5iuzq5uACi+NcrX11vGwDcEYZz/ppsP97i/uL+/v+mbLuoTAAfN4PZv/6azuQJfE/A9fXYFTy4tUOpwxYUA3xKacKcZABNgAWxhPq7AE/iBIBAKIkEsSASpYCKsshCucymYCmaCuaAYlILlYA2oAJvAVrAT7AH7QT1oAsfBaXABXAbXwV24ejrAS9AN3oM+BEFICA2hIwaIKWKFOCCuiDcSgIQi0Ug8koqkI1mIGJEjM5H5SCmyEqlAtiDVyK/IYeQ4cg5pQ24jD5FO5A3yCcVQKqqLGqPW6EjUG2WhUWgiOgHNQqeghegCdClajlahu9E69Dh6Ab2OtqMv0R4MYOoYAzPDHDFvjI3FYmlYJibFZmMlWBlWhdVijfA5X8XasS7sI07E6TgTd4QrOAJPwnn4FHw2vgSvwHfidfhJ/Cr+EO/GvxJoBCOCA8GXwCGMJWQRphKKCWWE7YRDhFNwL3UQ3hOJRAbRhugF92IqMZs4g7iEuIG4l9hMbCM+JvaQSCQDkgPJnxRL4pLyScWkdaTdpGOkK6QOUq+aupqpmqtamFqamlhtnlqZ2i61o2pX1J6p9ZG1yFZkX3IsmU+eTl5G3kZuJF8id5D7KNoUG4o/JZGSTZlLKafUUk5R7lHeqqurm6v7qI9RF6kXqZer71M/q/5Q/SNVh2pPZVPHU+XUpdQd1GbqbepbGo1mTQuipdHyaUtp1bQTtAe0Xg26hpMGR4OvMUejUqNO44rGK02yppUmS3OiZqFmmeYBzUuaXVpkLWstthZXa7ZWpdZhrZtaPdp0bRftWO087SXau7TPaT/XIelY64Tq8HUW6GzVOaHzmI7RLehsOo8+n76NforeoUvUtdHl6Gbrluru0W3V7dbT0XPXS9abplepd0SvnYExrBkcRi5jGWM/4wbj0zDjYaxhgmGLh9UOuzLsg/5w/SB9gX6J/l796/qfDJgGoQY5BisM6g3uG+KG9oZjDKcabjQ8Zdg1XHe433De8JLh+4ffMUKN7I3ijWYYbTW6aNRjbGIcbiwxXmd8wrjLhGESZJJtstrkqEmnKd00wFRkutr0mOkLph6TxcxlljNPMrvNjMwizORmW8xazfrMbcyTzOeZ7zW/b0Gx8LbItFht0WLRbWlqOdpypmWN5R0rspW3ldBqrdUZqw/WNtYp1gut662f2+jbcGwKbWps7tnSbANtp9hW2V6zI9p52+XYbbC7bI/ae9gL7SvtLzmgDp4OIocNDm0jCCN8RohHVI246Uh1ZDkWONY4PnRiOEU7zXOqd3o10nJk2sgVI8+M/Ors4ZzrvM35rouOS6TLPJdGlzeu9q4810rXa240tzC3OW4Nbq/dHdwF7hvdb3nQPUZ7LPRo8fji6eUp9az17PSy9Er3Wu9101vXO857ifdZH4JPsM8cnyafj76evvm++33/8nP0y/Hb5fd8lM0owahtox77m/tz/bf4twcwA9IDNge0B5oFcgOrAh8FWQTxg7YHPWPZsbJZu1mvgp2DpcGHgj+wfdmz2M0hWEh4SElIa6hOaFJoReiDMPOwrLCasO5wj/AZ4c0RhIioiBURNznGHB6nmtMd6RU5K/JkFDUqIaoi6lG0fbQ0unE0Ojpy9KrR92KsYsQx9bEglhO7KvZ+nE3clLjfxhDHxI2pHPM03iV+ZvyZBHrCpIRdCe8TgxOXJd5Nsk2SJ7UkayaPT65O/pASkrIypX3syLGzxl5INUwVpTakkdKS07an9YwLHbdmXMd4j/HF429MsJkwbcK5iYYTcycemaQ5iTvpQDohPSV9V/pnbiy3ituTwclYn9HNY/PW8l7yg/ir+Z0Cf8FKwbNM/8yVmc+z/LNWZXUKA4Vlwi4RW1Qhep0dkb0p+0NObM6OnP7clNy9eWp56XmHxTriHPHJySaTp01ukzhIiiXtU3ynrJnSLY2Sbpchsgmyhnxd+FN/UW4r/0n+sCCgoLKgd2ry1APTtKeJp12cbj998fRnhWGFv8zAZ/BmtMw0mzl35sNZrFlbZiOzM2a3zLGYs2BOR1F40c65lLk5c3+f5zxv5bx381PmNy4wXlC04PFP4T/VFGsUS4tvLvRbuGkRvki0qHWx2+J1i7+W8EvOlzqXlpV+XsJbcv5nl5/Lf+5fmrm0dZnnso3LicvFy2+sCFyxc6X2ysKVj1eNXlW3mrm6ZPW7NZPWnCtzL9u0lrJWvra9PLq8YZ3luuXrPlcIK65XBlfuXW+0fvH6Dxv4G65sDNpYu8l4U+mmT5tFm29tCd9SV2VdVbaVuLVg69NtydvO/OL9S/V2w+2l27/sEO9o3xm/82S1V3X1LqNdy2rQGnlN5+7xuy/vCdnTUOtYu2UvY2/pPrBPvu/Fr+m/3tgftb/lgPeB2oNWB9cfoh8qqUPqptd11wvr2xtSG9oORx5uafRrPPSb0287msyaKo/oHVl2lHJ0wdH+Y4XHepolzV3Hs44/bpnUcvfE2BPXTo452Xoq6tTZ02GnT5xhnTl21v9s0znfc4fPe5+vv+B5oe6ix8VDv3v8fqjVs7Xuktelhss+lxvbRrUdvRJ45fjVkKunr3GuXbgec73tRtKNWzfH32y/xb/1/Hbu7dd3Cu703S26R7hXcl/rftkDowdVf9j9sbfds/3Iw5CHFx8lPLr7mPf45RPZk88dC57SnpY9M31W/dz1eVNnWOflF+NedLyUvOzrKv5T+8/1r2xfHfwr6K+L3WO7O15LX/e/WfLW4O2Od+7vWnrieh68z3vf96Gk16B350fvj2c+pXx61jf1M+lz+Re7L41fo77e68/r75dwpdyBXwEMNjQzE4A3OwCgpQJAh+c2yjjlWXBAEOX5dQCB/4SV58UB8QSgFnaK33h2MwD7YLMugtywKX7hE4MA6uY21FQiy3RzVXJR4UmI0Nvf/9YYAFIjAF+k/f19G/r7v2yDwd4GoHmK8gyqECI8M2wOUaDbqyYUgR9EeT79Lscfe6CIwB382P8LtQ2QMJkrEBkAAABsZVhJZk1NACoAAAAIAAQBGgAFAAAAAQAAAD4BGwAFAAAAAQAAAEYBKAADAAAAAQACAACHaQAEAAAAAQAAAE4AAAAAAAAAkAAAAAEAAACQAAAAAQACoAIABAAAAAEAAAlUoAMABAAAAAEAAAIuAAAAANvrZc4AAAAJcEhZcwAAFiUAABYlAUlSJPAAAEAASURBVHgB7J0HnFXVtf/XdKZRh94Ght6biKCABey9JRY0auL/vVhi4ostmlgTY2Lykpi8F8VoEjFPLKCIsQGCINKGNsAAA8wwlYFhGKa3+1+/de6+99w7helz7sza8zlz9tnt7P29p+79O2sH7d6920XqlIASUAJKQAkoASWgBJSAElACSkAJKAEloASUgBJQAkpACSgBJaAElIASUAJKQAkoASWgBJSAElACnYRAcHAw/ejH/0XRMbGUnZVJmzau97Q82ONTjxJQAkpACSgBJaAElIASUAJKQAkoASWgBJSAElACSkAJKAEloASUgBJQAkpACSgBJaAElIASUAJKoBMQgKDKOJfL1x5VqInQtRJQAkpACSgBJaAElIASUAJKQAkoASWgBJSAElACSkAJKAEloASUgBJQAkpACSgBJaAElIASUAJKoDMQCAoKoupqFwXx38BBgygqagGdOJFLxUVFpIKqznAEaBuVgBJQAkpACSgBJaAElIASUAJKQAkoASWgBJSAElACSkAJKAEloASUgBJQAkpACSgBJaAElIAS8BCAVSrWVIkLDg6hXnG9Ka53b4KxKq/tKk9y9SgBJaAElIASUAJKQAkoASWgBJSAElACSkAJKAEloASUgBJQAkpACSgBJaAElIASUAJKQAkoASWgBDouAQiqXGyhqtpVzSIqTPlnTfsHjZUKqjru764tUwJKQAkoASWgBJSAElACSkAJKAEloASUgBJQAkpACSgBJaAElIASUAJKQAkoASWgBJSAElACSqAOAqu+/JS2bf2W8k4cp4rycqqqrJKUOuVfHcA0WAkoASWgBJSAElACSkAJKAEloASUgBJQAkpACSgBJaAElIASUAJKQAkoASWgBJSAElACSkAJKIGOSSDIPd9fxtGjhMXu1EKVnYb6lYASUAJKQAkoASWgBJSAElACSkAJKAEloASUgBJQAkpACSgBJaAElIASUAJKQAkoASWgBJSAEug0BKzp/nybq4IqXx66pQSUgBJQAkpACSgBJaAElIASUAJKQAkoASWgBJSAElACSkAJKAEloASUgBJQAkpACSgBJaAElEAHJ2AsVNXWTBVU1UZFw5SAElACSkAJKAEloASUgBJQAkpACSgBJaAElIASUAJKQAkoASWgBJSAElACSkAJKAEloASUgBLosASqq6vrbJsKqupEoxFKQAkoASWgBJSAElACSkAJKAEloASUgBJQAkpACSgBJaAElIASUAJKQAkoASWgBJSAElACSkAJdEQCISEhdTZLBVV1otEIJaAElIASUAJKQAkoASWgBJSAElACSkAJKAEloASUgBJQAkpACSgBJaAElIASUAJKQAkoASWgBDoiAbVQ1RF/VW2TElACSkAJKAEloASUgBJQAkpACSgBJaAElIASUAJKQAkoASWgBJSAElACSkAJKAEloASUgBJQAi1OQC1UtThSLVAJKAEloASUgBJQAkpACSgBJaAElIASUAJKQAkoASWgBJSAElACSkAJKAEloASUgBJQAkpACSiBQCUQGqgV13orASWgBJSAElACSkAJKAEloASUgBJQAkqgvQhUVlZScXExlZeXU1VVVXtVo1X3GxISQuHh4RQVFUWhoc7qQlL+rfrTa+FKQAkoASWgBJSAElACSkAJKAEloASUgBLoFASCgoLqbKezesPqrKZGKAEloASUgBJQAkpACSgBJaAElIASUAJKoP0JuFwuKiwsFDFV+9emdWsAoVhJSYksEFXFxMRQfZ1MrVsbq3TlX3cnX1vw130oASWgBJSAElACSkAJKAEloASUgBJQAkqgIxGorq6uszk65V+daDRCCSiBQCOwePFiwqJOCSgBJdDZCej1sLMfAdp+JaAElIASaC0CEPPk5+d3CjGVP0NY40LbwaApriWeT5R/+/Jvyu+ueZSAElACSkAJKAEloASUgBJQAkpACSgBJeBkArDQXpdTQVVdZDRcCSgBJaAElIASUAJKQAkoASWgBJSAElACNgKwTIUp/jqrQ9vBoL2c8m9f/u31u+t+lYASUAJKQAkoASWgBJSAElACSkAJKAEl0FoE6rNQFbR79+6mfVrYWrXVcpWAElACSkAJKAEloASUgBJQAkpACSgBJeAwApWVlXTixAmH1ap9qtOrVy8KDQ1t050rfy/u9uDv3bv6lIASUAJKQAkoASWgBJSAElACSkAJKAEl0HEIhIeH05gxY6RBQUFBPg1TC1U+OHRDCSgBJaAElIASUAJKQAkoASWgBJSAElACNQlgyjt1FoH2YNEe+3Tq760snPrLaL2UgBJQAkpACSgBJaAElIASUAJKQAkogUAjUJ+FKhVUBdqvqfVVAkpACSgBJaAElIASUAJKQAkoASWgBNqcQGee6s8fdnuwaI99+rfbKdvKwim/hNZDCSgBJaAElIASUAJKQAkoASWgBJSAEujIBFRQ1ZF/XW2bElACSkAJKAEloASUgBJQAkpACSgBJdAiBKqqqlqknI5QSHuwaI99OvW3UhZO/WW0XkpACSgBJaAElIASUAJKQAkoASWgBJRAoBHwn+bPXn8VVNlpqF8JKIGAJrB48WLCok4JKAEl0NkJ6PWwsx8B2n4loASUgBJQAs4joM8n7fubKP/25a97VwJKQAkoASWgBJSAElACSkAJKAEloAScSUCn/HPm76K1UgJKQAkoASWgBJSAElACSkAJKAEloASUgBJQAkpACSgBJaAElIASUAJKQAkoASWgBJSAElACSqAdCISEhNS516Ddu3e76ox1eERlZSWdPn2aysrKqLy8nCoqKmosAwcOpEGDBjm8JVo9JxKAEhHHFkzpw2/WOO7MdteuXQlLIDq04dSpU1RQUOA5h3AeYYELDw/3LBEREdLObt26UXCwGrYLxN/bSXXOyEinouLCNq1SZGQU9e83gEJDQ9t0vy2xs02bN9Kx3JyWKKrBZfTo0ZNmTJtJOPcDzSmvQPvFtL5KQAk4gQCe//YmJ1F2djZFR0dTvz79aNiwBKrvRdIJ9dY6KIG2JpCT07bPZG3dvsbur2/fvo3N0qz0yt8XX1vz9927bikBJaAElIASUAJKQAkoASWgBJSAElACSqBjEAgLC6OxY8dKY/yn/wuokWUIWSD+wJKfn0/FxcXkctWvB0MadUqgIQSMgAoiqtLSUhHnnen4wjEZSA6iw5MnT1JeXp6s0ea6XElJCWGxO4ipevToQT179pQ1Li7qlEBjCbS1mAr1KykppvSMozRo4OCAE1W1tZgKvE6ezKNvNn5N58w6N+BEVcoLv6A6JaAElEDjCOzcvZ3FVFmSKT+/nN+1TlLq0VQaP3YC9evXv3GFaWoloASUgBJQAkpACSgBJaAElIASUAJKQAkoASWgBJSAElACAUKgPk2I4wVVsAqUm5srX0v7C6i6dOlC3bt3p6ioKPmS2lgLgmrsk08+EbFV//7tOwCQlpYWIIeJVc0hQ4YEVH2bW1mcHEVFRVRYWFhDQAVLNpGRkQTREKw1wVILFhxf+/fvl+MrJiamuVVok/wQTmVkZMiCc8o4tKVPnz4Ey1M4j8yCeJxvZoElq2PHjollrhMnThAWWCyABTgsarXKENV1Ywgc6zOFqvgchCwW2ljI+2pbI76a/9nXSFfbtpW/muN4cfFSXUlRpSdpcmgBW18rC1hRFbgmTbyDyhlEFTccPLD2X2oLR5g93Pi94Wx1j3hxVVB1RRnFnTpEi7qkU2FRYcCKqpQXCASGO3z4MG3YsIG2bdtGycnJYjkRNYd4d8yYMTR+/HhauHAhtffzXGDQ1FoqgaYRKCw8TTk52SI4vv3WO8QC8PoN6yiLBVZbtm2iwYOH0IRxkzq0taqUQwfpSOphEWA3jWLr5oKlzfihwyhh+IjW3VErlI73kOT9eyk17Qg19WMUvJcNHRJPo0eNDbj3joceeawVqLZekb978ZetV3g7lKz82wG67lIJKAFHErjlzrsaVK9bbrpa0i15Z3mD0vsnam5+U96SN143Xl0rASWgBJSAElACSkAJKAEloATahEBCQoJHC2KsVGHtWEEVLONkZWWJiMMIQCBs6dWrFw0YMICnoBgm/trorV69WsQuEFvFxsbWlkTDOjkBWGqCiApiKmOlCQIhCIogksJALsRUtTkM/kKIhXgIrZzuMHXL0aNHPVP5GSFUfHw8YYEwsSEOVruOHDkiC8RZOC8hGET5gwcPZusF/RpSjKZRAh4CwUEQRQXJ+VTN/mAW/rh4DaWUfQ2RFCejEL5pDYkNpbjIEKpk9dW3OaVSloio3PmQLtgVjCK4DC47hAVIIRF0LKoPDSo9RmUBLKoK4dk2QxkMt4qMLBLNti8IN9uRoUF07oBIGtsjnEoqXfTHnadEtYZ4OJOOS3X7gyg43EVl4bG0u9d4mpmfRKf5OhmolqqUl/U7O/U/BFSvvfYarV27ttYqwprioUOHaOXKlfSb3/yGZs2aRQ8++CBNmDCh1vQaqASUQNMJnCo4JffiUaPGsNC+ryzDhydQ4vZttGr1F/wcmSYWgjEVbF3Px03fe/vnhJhq776k9q9IPTWApU1Tx0ATVaUcOkBg3BwHIRbKgLBq5IjRzSlK8yoBJaAElIASUAJKQAkoASWgBJSAElACSkAJKAEloATqJGDEVEgATYjjBFWYyi89Pd1joQCWbyCgwgAaxB+1uUoeKK7mxoSHBYtoBIIXOCdZW4IVH4h1nOhghQgCmc7gMJ0frC1BHASH4wuWzYyVptoYVMPSDf+F8B/EVzhG4WDVycmuvLyc9u7dK8Ix1BNtxdyf06dPb7CIyt4+CK9gLQQLBI8YDEf52E9KSgpbNsiR8ttTZLZ48WKp8t13322vuvodSoD1TsQaIT67IO2xLFXBShXCqlkRBcEV1ojuER5CY1gY1C0imCAUgohqcw7HsbOLsUx6KYUtVAXxeRvMYtyyimIaO2YED0YeDFhRVQhzYK0YBUFUxQCCmAEsVIlpLyHh/Te0axhdMzxGBGg9uvC1i9P/eRcPmHMZHjEW+yUvr4NclqjKRWEUFhlNBcXH6fprLqH3lv07YEVVnZ2XU6+HuP/+9re/pbffflsOWDwbzZ07V+4fUP9HR0dLOO7VeB5MTEykb775RpaNGzfSd77zHXrooYcc+0zlPQvVpwTan0BDLRGMHT2Cpk4eT11tH6LgpXHa1OlsiXQQfbDsXX5+zqdP/r2Cvv5mC2Ufy22VxrWXJYK0o0ekPRcvvJQmT5oi1mhbpYFNLBQv7Tt2bqdPP/uEUNdAE1RlZFrvmddcdR2NHj2mSRSSk/fRsg/fJ5QVaIKqNZ+tbFKb2ytTYuKOVt11Wz+fKH/fn7Ot+fvuvf4t9NXgmW/79u20detW+ZDLfAjXt29fGjVqlPRFzJ8/nyZNmuS4a3X9rWv5WOXVOKbKi6ih18O/vva/Areh6f1/iebmN+VlZmYbr66VgBJQAkpACSgBJaAElIASUAKtTsCIqNAXi8VsY8eOEVRBlAEh1PHjxwUIplbDwNrkyZNrWJnKyC6lpIOFtP9wMR1MK6bM3FJ67bkJIqjasWOHTCXgNOtUGDCEcEdd+xCANSUIoWCRCg5fN/fs2ZPQMecvADpVnU85lRmUXZVJ2bzOqz5O3+t6H1vHCRGraRBVQVzkn699Wlb7Xk+fPk379u3zWKUaPnw4zZw5s8WOQVgnmDNnDk2cOJE2bdokVkRg8QvnHwRXnckyXCUrePLLqqi0GkoX2A5ih38Qq8BJADbZwxfg7uFBFBMOyZA6Q8GyRsWEwIwZiUAKXjeiUd3DaTSLqWLd3CpYdZWYWyaxXlGWpQ1CmcgHYVVQkGWpKjiYRVX8C+A6PGZ0Au1LTglIURXryIQRMMFOlXWIcUNx6KG97uXq+Bi6isVUA2OsW3wxi44XJxVIeojUwMwjxnLnBUyIz7gICg0LpxBWbvXu3YuuvXohfbD804AUVSkv/KrOcpg69gc/+AEdPHhQzKbecMMNtGDBAhFRwXoi7q8QXOFBFfet+Ph4mj17Nt1111308ccf03vvvSdCrKSkJHrllVfEmqSzWqi1UQKBSSDKbZU1JqamZd++bLHqzkV30YcrlvO72iG6YP5sStyRRHuTm2dxKDBJaa2bQqC42Hr/SkgY0ZTsksfkNWU1uSDNqASUgOMIQESPZ7y///3vnv5A/0ri4y0s69ato1dffVU+nrz11lvpxhtvdHS/jH87WmJbeTWOovJqHC9NrQSUgBJQAkpACSgBJaAElIAS6KwEMD5lnF1MBb8jBFWY2g9Th8GUP6b1w9dmU6ZMIQyuGZeXX0Gfrz9BazblUYZ7micTN2NCN+rKA8dQi0FEAocpyNQpARCAuAidKDgRcEzBGlX//v1lwNYQKnEV077y3bSnfAcdrzpmgmU9MmwsRQRZ0+KdOHFCwpxsnSo3N1cGq9FeCMcuuOACGZT2aZR7A+fM/v37xQIIBrrz8vLItBHTa0J0Bl5Tp06VL0LtFxAUAZHgRRddJF+Prlq1SgRcu3fvphEjRrAYo3dtu2zVsLa2TJVfWkGf5ITSwZJoKpVp5tyCKhasgC0ULLAmBMfXW9a9sKAquIKmxpbRtB5sdYktB3VmB3EPnLFKBTGPQGN2wAaEY3uG04CYMI+YSpLwv+yiCrFghTzGKpWZMhDbKNv6CYLZOhs2WFIVHEnRMcTWEYazqOoQH69llJ5xlAYNHCzniinbqetQFj+hvbBKZcRTUJ/hqDNT/V2XEEMz+kaymArHFlJbkLfnlhDye4RU7kYi1lisgj0vnliRr5PMii1WBYf2or48k+c1Vy9gUdXnYu0ukKb/6+y82vp66D6k6lzhPnzvvffK/Qliqfvvv58GDRpE+Fr8008/pTVr1og41zy04h503333yVR/EDDfdNNNdO6559Ivf/lL2rlzJ915550y8Obk+3GdMFooAveZ1NTDlJWdxefnaZ4KO44mTpjEz9LOn464hRA0qxjcA3Yn7eLnnuM83XMs9e/Xn4YOHebzfNisHTggc0MtC3z+5WfyYQumvS6qOEn/u+P7UvvZA2+ms/vfwB8SRNKN199M675ey9PArhdrVtdfcxXNnze/Re+f7WWJYMjgeJlODxagsDjZoa6B7h5fe1ajmvDC3M2NSq+JnU3Aac8nzqbV8rVzGn88/z3xxBMeC/Xoezj77LNp5MiRfE8eKtPMok8DH2+h3xDTQX/99dfSf4hnwnfeeYeeeuopscLd8rScV6Lyatxvorwax0tTKwEloASUgBJQAkpACSgBJaAEOjMBaEgw5gIthIzxMwzjb1dBFawFwUoBOkdQofj4eBkss0+Nt35rPn26Lpd27i9kQQwGh70Og+VwF8zqKWuIqTAVGQbXnGwNqvLIEargpT1dGLMO5aUjO5iHhzgI1s9wfMFqGaaBhGjPuCMVB2lXeSJhjan9anNjwydKMKynoUxYp4IFNSc6iKkgkILDoNgll1wioij/uqamptKKFSvEutTJkyf9o2UbaYxbsmSJWAKBlasrrrhCOjdNHNY4d6+++moZFMf5bOrQHqIqe71a019eWUVf51TR1oIYKuXjQi6u7ouSyFj4mPNccEXyYk1sV8DWkk5WdKGc0jJa2LeS4qLa9TLcmojOWLYRVEH3AwGVEUJBBAR23VlwNoSnrusR4Ss8g0WwIra6hPwmD9Dby8A2LF2Jc4va4A8KiuRzg9hSVeCJqmQKO24TmmVEUGKdyi2qiu8WRucOjKIEXnudiw6fKqfckiq2smeFmvxmjVDjx1EaBOmf+3IYHNyL+rGo6lqIqpZ9RoVFhTyY/jWdM+tcx14HTdubw2vfpiQK5kGckIguHjaGUUflZbi1xhoiKUzTd+DAAbE89eSTT8pzGqbzg6Upcx/C/RmWI3Efwf07MzNTjjPkh+ge9/Dnn3+enn32WSnr6aeflukDcY/vbC4v7wSLgXZSwekCT9MzszIIFjnPmnG2J0w9dRPYvjORjh2z5o4tyyujE3nHeTq1VJowfhI/O/WqO2MHjCkstCwIxbDqeG06WwgpTpVWfnjg17Tz2Of03bEvsLA5juaeN48G9B9AKz7+kA4dTuHj7xRdcvGlFBXpzGnNG/pTmSn0jrBAsaSkuKHZ2jRdJDOOZ8GfqWub7lx3pgSUgBJoYQLoV3nxxRfpX//6l5SM/oRrr72WZsyY4RHq2p/v0LfRj19K8KHXddddJ8+BmD4aVkvvuOMOevjhh0Vs38LVdExxyqtxP4XyahwvTa0ElIASUAJKQAkoASWgBJSAElACPMbMA8voizBre79Eu43kY/AsOTlZBn4wPdjcuXNp4MCBnt9r577T9Mb7GTKlnyeQPRgkh5MV/4uNDqFzpnaXMHSmwMHigZMdxFSlX33V7lXsyIIqCOswGItBWIif8HWjfRq6rMp0+rr0S8rkdX0uKiia4sMSJAnESnBOFevBEhcEinD4shNiKoi/7A6isLfeeotgTcqIfezx9flxzsKKyGeffSZWr2BiPy4uzpMF1kTQCYo0sHaFumD/du6exB3Ac7KojJKLIqiIBXsuVp+4WLRjLrJyhWKlj7leBbFZIFyzMOZfWVVJ5cVB9G15GJVUVdAFvctpaNdwEQd1ACyNagIbTLIccxFWvPYIpDhmXK8IFlMhlfvCL6k5EW8zbWiJRAmEvCKe4rWxTIVtsVjlTlNeCY/lIKqKDUBRFaawg7rHvTLNYctbHMZtv2FUVxZTGctUJhqpLV6hnAhyKY8Yy50EKUwYSONoLayAz3IQVfXvF0TXXsPT/y1jS1UBIqpqDq8Tu/ZS+cZt1GPaFIoaN4YBg5LlOiov077WWH/00Uci4MU949FHHxXhO74Y/+Mf/yjXTVgi+M53vkPjx4/3DKIVFxfLNJ2oT3BwsEzngjUsJz722GP0ox/9SO5Hy5cvp2uuuaY1qu3YMvcfSKYDB5OFXc8ePfljhLnUo3sPemvJP+hYbg7Z2Tm2Ee1cMTDKzT0mx9uttyxiUV8eW7xYS3m8/ubb9TRyxGgaNXJ0O9ey8bvHc+/BlAMEcR2mRrNduuotrKrKUtHCUlfO0RSftEdOJdIftt5CN435BY3sMZutkI6kOxZ9j5a+945MzbRs+QciqsKxGMgOQqWWECvhWIL1y5ycbMHRl009whJmjwDnE8i/bXvXfUvipvauQqP2H0LO/HCoUY2wJQ6ac55tKwC8f/pTAFSyeVXEvQpWqVauXCnPeOhDgEgKlqjsnZXGb9b2/otRo0aJZSpYq8IUgL/5zW/EytUDDzzgU0bzauqM3Mqrcb+D8qqbl//96HRpNe1MLae+3UNoRF/7R1lWGf7p6y659hh7/oM5FZSRV0UzhkdQdIT33br2nFbogL5D6ovWOCWgBJSAElACSkAJKAEloASUQIsSwMfqxpm+CLPdLoKqjIwMnqIkVQaCIHTBlGFmer/UjBJ6/d0MStzr/eLeiBJkeJf/oSPFhM2Z1p3zBsmUMRB8YLCtM0//Yn7YzryGsCg/P1+OE1ilwtRC5sA/WX2C1pesopQKy4rTmTiNDh/P8oNgEWZBpIXjy4nWqWCFCxba0HmErzcvvvjiGmIqCJ3Q2Yi09s5Iu/9MPEz8F198QWvXrqUf/OAHsi8THhkZKdsffPCBWBhBnSZPniwD4SZNR1kXsULnVGUkFZdXUQVfkNhgEk/FhquUt3MIbCF0kRFNEyVmlTBwWU3ZxcG09XQXGhJeQUNigig6jMUwnM4lmSCS4bLcflOGKUYSYl/Yp3uXVpzZv4vCuLBeoZU0PDaEekd65EuO+Qkw0GuEUZD6oO2mSdHhwW6LSgi0O07JGcMZVQVj9MitOJmxUIUyzPR/yF3NEQX5J+j1Ncc5H6YAhAKJp7ULDaPw0K7UP+SUTP+XlZ1Jgwc5t9NOLC5xw3BIyLHB7cevjVt8/+hQYmTs0GIsXhfCx1xsuIsFfMjHizufyWtS4veAoK2Sp0dMP7Kfzv3FPooOD7UELsGhbK0pmqK7DKZpEWkiqtqybRPNOce5g1TN4QWGLn54yt++g07t2Us9zjmbwgcN9AjPwKyj8TLHQUuvYY0Ug1xwd911F09L14tSUlLoTzxgiHMZwqgrr7yyxm7t1kpNpBlog2j4hz/8oUz/h3Iuv/xyH+uTJn1HW8NKV+L2rZRzLFvYnXfuPJp19jnWNY0bm5AwgpL37xNLS1FRzr2WOeF3gTUq3KNHjxpD/VjwggX+jd9+Q1+vX0v7D+zjgdl8mjplukfk54R6n6kOyfv3UsohS1x/prT+8RPGT5SPBvJLs/yjZBrAN3c/ROcNvp0WDv1PEQfdfusd9P4HS1k8lE4ffrScFly0gAYOcPZHLTUa1sIBYL8veY/Pc3Zq2hGxfDZm9LgWEWy1cJW1OCWgBJRAmxPAVH0QU2FK55/+9Kc0YcIEz7MMng1N341ZmwqabdN/gfV5551HAwYMEAum6OuA8P722283WTrEWnk17mdUXg3n9cXuEtp8sEwyzEzoQtec1ToWR5dtLqZNKaWyn5OF1a22n4a3XFMqASWgBJSAElACSkAJKAEloARqEpCxY3ew6XswfRFtKqjCzjGIlpOTIx0mMOcNk93GLfviGP1jWSZVVMLaixUqK/6HvPYw+BG28DzLQs7Ro0dlG9aDTONMubruHARwPEBUh6mCcNCjYw1m4Y3bVb6N1hZ/TpX811A3LnySJDUCLYipnHh87d3L1lRYKIXBZlimgrDJOIisFi9eTLAQ0hAHjnBnaif2h6macO5hkNxcaIyoClZDkAZ1g6iqLRzaCXf33Xe3+u4gnipiRU9euYuKWahSXsWiKhaquKBWsRCKekWEL7baeKJYvALUR9la1W6eBjCEFwg0vJltmRAOJQwym8Wtj3KJKSaORgTi3Gmx3zD2d+NjYiIb8fvekAoaGFPzq0PbXtrcC8ELHDgYEZm7JTSA69onyt/akpW+ilU/0aHBVMLAIQASARWv4BcLVfBbSYWJKyiCgvvEUxWLqFgWKTGwKlbNgplqthJ2nFlNoFzHTvNjmhKGqnPD+HCT3/vU0X2Usvx1Cg6LoDHfuY0mnnu+lcBkcK9xbPaJDKUTpe5rn5QDcFwOBi3Yy0lkjTBXSFcKHX8+lR5JosLV/6Kg6G4UdN71VN1tKFWWFVFydTDdTHvEogvSO9X588JPj/MC7T2rXyRNjIMFBs+RIs0oLC6jbUlZ5KqwWFVjzUvemnUUFteTus8+m0K7dquVV1lIKJUTjlnmWV1JVeUV7cqrLa+H0ug6/sEiIu7NEydOlGlcIKD/y1/+IgLg73//+7WKqeooSoKRHwNws2fPppEjR8qUL19++aXc++rLF+hxp3lqvy3bNlMRW4iL7BJJV115DcXHD/NplvmgoKzMGhjxidQNHwKGUXe27GUcnmNmnzNHprT78KNlIlxbt/4rmjHtLLa22dUkc/Qa4h24a666TgR2Z3qWk8Tuf+bjlrIqa8DLHgd/Nd83v0p7kw7nJ9Kt416k2Mg4uvmmW+jjlR+xiGgvTwPIU0lv3k4pR9L8szZ4e8kbrzc4rZMS4ll7+45tYhkM9ZoxfSaNGzdeqrhnTxJt2bqJ9u5LEpHelMnTPM/MTmqD1qX1CMyYOrP1Cm+FkhMTd7RCqd4i2/r5xLV+nXfngeDrYPz9keO5EFP14Z6L6aDtYiqE2e9b8p5ivSB7ijF9FQhAPLYTEhII00A//vjj9PLLL9NZZ51FY8awhdkO4JRX435E5VU/L//70WtfrecM1nsDBE9DB/Wn7182mrZtTZSC/NPXX7o31p7/1ZXJLKbK80QeLw6jhpabmWlZ+/RkVo8SUAJKQAkoASWgBJSAElACSqAVCaCfoaCgkELDwj39E1a3RBC1maAKHR0QVmBQDaIUWKUyU/wVFlXRy387TJt3WVapZJiX/yEPBtrhsILf3oEymAdER8VHS3xmZqaszWCSbOi/TkMAxwWms4MVKYiKYJXKTDVX7iqjL4pX0IGKfY3iERfSh+JC+koeiLTg/KfQk8B2/pednS0iMlTjggsukK8yTZUwwIMv9L799lv3+WSdUOCFOOscc9GCBQsIZvPHjh0r5+kzzzwjFwt0aoaFsRUfHrw2lkFQNsJNhyeEUxBJYgomhMHBAgnqgukBwQ51tIvbJFEA/xN+jPIUC6qy+fqF6eSqYaLKwuu9YFk4mDMmWoPjBOxBMog6vK7CyopEnNYSefAaXsnAid1z2Uk+3pRk7mirQGy4s/Aa8dhrFquW0kvCqTufB3ePJIoMd46oCoIqqyMcA7WeJsr0fb26WMIUaZTfv5ziShoaG0anWDQAPRlQIj/WYA2JDO4XIpWRNZflivJIZ6oRyVvVLGJzseWl8mBmUmxN6ckRjnURDIwNbLFYxxJApf37LSrMSJH6LnnpSZrS/RlacOE83saBgzZiTbQzt4TOGxBFqQUFIgSCIKsKnDgJ1hBTmQVoqlzhVLlvP1Ws+CNjqiLXSe7IXPUvqrrlGaoOjaDCML7v5u6Rsp38z59XKLfNajPRyO4QU3GAm9P+1OP0xJ8+p617M+TY8W9XNVsGKsvJpWPLV1LsqATqOmMqufihyvByuXoJQxxzVTIFaBVVhVYEFC//NrfU9rJly6Qo3BNwHzlw4AAdOnRIngFvuummJu0G5cD86tVXXy3Wr2AVEWLijupgPW/HjkSZMhbTh113zfVsSahbjeZiuja40tKSGnEa4EvAMIqOtt4j7LHx8cPozjvuoveXvSfTtq3fsI6F4VN56tMB9mSO9MOKGdzo0U0fSK4+w4cHaQU76ZXERbRo3G9pQOxYuvqqa6nbV93o200b6eyZUyk6Jop27m7cM7cjYTaiUjt2bRcxFd4TrrjsKhGzmez9+/Wn+KHxtGLlh5ImiJ+Vp7KoSp0SUAJKoLMRgNXSF154QZoNK1L4uNL0H5i+BUSaMPjxrujvTBj6M+BH+sGDB8tHVX/+85/p4YcfJjwboh8jkJ3yatyvp7waxwupc076vjMs/eow9YhtuWlf3113hFCm3fnv0x6nfiWgBJSAElACSkAJKAEloASUQHsSwNg/dzR4quD1udpOUIUBNCOmuuKKK0RwgRodSC2i5/9ymI6fLJdxTUvgYdVVhjr5nzTAXX20RRYeBB0/yjsIcuzYMUkBC1XqOh+BvLw8EVPh63oIg4yFpuNVx2hF0VI6VZ3faCiDQod68hhBFYRFTnLoRISFKDiIyOLj48Vv/uELYIipanMYjC5ggQUseaHT0Th84fmPf/yDDh8+LAPWSFdaWko33ngjf1l/irZu3WqSetbYx+uvv0733HOPJwx1QZ0wcI46Yoome+eoJ2ELetrCMpWpbhWzz2dB1bBesTS+fzfqFh3B08exlSn54wsVX3T5vzi/a7AVhv+cwFhUkjQSY12vjRgIiayLNv+3PFZ+d+HYi2WkyhJtVUMxwg7/K/m3O1lYRntyCujbgkq6/HQ519c5HcvzBluD/1LhWv+Bgq3R7jST4nAeBtOYns3t7AMli9f6DQfcpfuu0Elvvwf5xrbt1lOzfQfzr/rvQjrprgKsbT3yxFO89SyLqs73qdhtY8E5hK4dgfuj4Wm127vtzfL5l6vokY9fFjGVCZ0+oBu9fksCb+I3cdGLL600UT5rJ/Pyqaj87ix6Ymtbf31vE/3+ra+pvAJSs3ocn6SRbPZqWFUhvTQ7lkYOsSxk1p7DHFvtx6str4e1M+DvnVn0uHnzZhnQgrUACKGGDBki07NADGUs4tSVv75wlAVLpzjmEhMT5X7VnPLq21d7xu3dm0Qphw9KFTAl28ULLxWO/MkBbc36iDZlv8++arpzwh9kyl8kxD1bXf0EDCMIqgor8uiNXQ/wM0oYzex3LU3vd6UI1m67ZRF9+tkntDtpF21l62AJw0aw8Hx8/QU7LPaxtTNapUanyo7R/+78Pt04+mmaEHchzZ93AU+53p0+/+JTmjBuNFvIuoLmnTev0ed4IFoiwDSLGRlH5ToHi12YPtLfYTpOxC15+x+SNootyY4eNdY/WafZxvVLXecl4ITnk85Lv20sOdfFd8mSJfKhFfoIFi5c6OkbMGIqPNNhgTP+J554QvzPP/+8hFv9hfjw0iX5zXsaypg/fz5t2rSJtmzZQl988QVdeumlkidQ/zWFl+Fn2qy8LIGeOZ4MH//tzsgLbYblb3/32sfJNKtfFFsML/aPatR2ZmEUvc9l+bva9umfRreVgBJQAkpACSgBJaAElIASUALtQcD0MZhxY4zOmxFVt/2U1q0WBBW5ublimcouptp9oJCe+O0Byj3BVkbYPAaEAHifw4KXLGxbHQAcxmOSCJNw7jxx8XbCEGt+dwg+IPTAS7GxStS6LdLSnUQAQj18jYaB1NGjR3vEVDlVmfRe4T+aJKZC+3q7rVPhGMTUdTi+YF3NSS4jI0Pqhg7EmTNn+lTt008/lWn+TCcazhNYLqioqKDTp0+LwBHb3bvzfHA2h7Jgfh9m8vFVJ7Z//OMf0yOPPCJflD7wwAPCAeWgTIi6sMBSFfZpdxhAR37wQ107ksN1amC3aJozqi/1ZVFVZBQLqrqEU3hkOIVFsp/XEbyNpQv7u9jWEoY4Djd5kAbbJsyTnsuKkMUb55sngqd/4jRcHsK7oB7uuqBO/eJi6dxRbG2NLUaUuqcxC5zfAbco3K78F/utC52AEK2Yhb0NdsiLxbLoUVs27w20tti2DbPqYursov966EGfwWqcj4888SR9/uUarpidnd3aFzihvWKnitfe8niD87KY6omfybmNbThcW+/53p3sQ17kq3s6MSfz8m1rEKWkn6IbHn6Lfv3GV2cUU0V1CaO4HtH0259cTst+dzuLqXoxh/ocjtnA4lVfa5oal5aWJvcHWCSF5RbcD+Li4mRalmnTmmehBWXFxMSIQKu4uFjEu02tpxPz4f68cdMGEVOhrQsuupguv+xKEVOdLj9Bb+x+gD5K+TXlFB2kY0WHaH362xTrtlBVVl73OerEtrZHnQyj6OgY2pDxL8otPkI5hQfoo4O/ZnHV/SKygmgPzMEevwGEbfhNjBWo9qh3Y/dZ7eLntFZaSiuL6K09j9DqtNelWlOnTKPrr7tRnh0PHjxAa75a3djqBlz6o0fT6MDB/fKOAEtdRkz11dE36NffXikL/HCIQxq8TyAP8nZW19hjsrNy0nYrgY5EAP0FS5culSbBOhXusXB2YYvx455rlt27d9OuXbs82yYca5Pevr722mul3L/97W+O+ShGKtTIf03lZefj77dzMn7l5T3WOhMvczjiOPN3sOa9KSeOTpc3/UM85EUZlmVw3z3Utk/fFLqlBJSAElACSkAJKAEloASUgBJwAgFLTMWvSOJafco/DKZlZWXVEFNtSyqg5/6cQqVlPO0YVwUVsg/EWtsY/oSoyg0OaWxpR7gFVSgfA8mwToWXYHWdhwCEdBAHoUPObpkqozKNPiz6Pyp3seWzJjpM+QcH61Q4vjAYjI4npzgImoxICVP12a2zYfrDV199Vapqzit0XGAQEO2xDwbGx8fXaNLs2bMJC/aBsvr37+9Jc/nll1NUVBQ9++yznjBz3v31r38lDJL37t1b4jAFJ+qWlJQkdcW0f4Fuet80OiI0mBL6xFIQi00grgrBsSGLdZ3C1Hy4XuGIkaNG/rlzu/1I485iTeGHPBwn0cjMDvHG4Voo2/5xyMeJsCC5LJywihcIU4N4aruE3rEUFpJninLQGp14ptYNrZYbgLS4oXlqS4f7BfYfGPcN6/oDMRTqG0TnnTuHXnz+WRFR4RoFZ4mqfsY+WKq6QMKsIwPemh2m7gSy+vzLL33KQiDEVC8+/xzNPmcWb7UUd9ldq//z52Xf4f7UY3TVj/5OZZiv088NHdCDcvMKqbi0gkJDeNpTtjx37/Uz6f/dOJPCeZo/rzM8bCepN5J9Rshm0vlEdoqN9PR0aScEVfg9cK9oqfsoysHx2bdvX0pNTRVhfUeBiumLN23ZyM83BXK/vfaaG2jQwEHSvIP5m+jd5KepiK0q2d2xkhSa2SNGgvLzT9KXqz+3RzfJj3v9wAGDaMjgoU3K39KZ0o6mUkZmOkFA11xnpvyLYQtV2ScP8NXRa6Hu0KmtMqXdjaOepuHdp9O0qdPZymZfnj7oXX4myqX136yjmTNmeQT8za1La+aH9bLWdJji9JPD/83CvhS6aczTlDB8BN3y3dvp/955i1IOpdDAHmto5oSsBlchkywLJA3O0I4Jj584RruSdkgNILpD26tdlSIy23X8C0/NPj70O0or2EW3jntR0iDtZ5//W/JGRnWhuF7W+4YnQyfwtPZx6TSEWxI3Oa1K9dYnhJz1AVG9lW1A5MJH/t2AVM5J8uJ3vO/dzqlV82uybds2yszMJPQH4MMtPMeZZ0OUbrZNGNa1OZMOfRx2YQa28ZyJPiEse/bsob1799K4ceNqK8bxYcqrcT+R8moYL//7USV/2Fybq2QT6Pvzu5J/+trS1ha2/2RXQhm1OeyzoeUO6DuktiI0TAkoASWgBJSAElACSkAJKAEl0CoEauuLMN0TrTqKDCEGpvpCBS688ELPNH+bdxXQL/54kAcrefiCB/vPZIkKIgJ8OGPSIj0Gk42FKgiq4OyCEgnQfx2aAAbUjGUymI030/ylVx6hZYVvN0tMxUO+1DPEEgVBsAXntOn+YJkL4gkMKE+fPt3nt37rrbfEKpQ9EJ2Ml112mViyggAN1rZgiepnP4P4onYH8ZNdTGVSbdy4UayCoRPTLCgflqiwb7uDwAp1RF0xNWNHcWHcpshw66s9XONCuL8IoiocOyFB/J87dEN4CWY/b3iWIMTxIn/ucNlGuIgNrDzoEEZexCG/rBGGP1Mu+0Vc446X/bI/hOcRDMLC6izUDcOpqGsoh+F3cp5DnVDLM9XNnq6utKacuuL9W+9m6B/swG3vb4c2YvDfJaIpiKpwjhlniapgqWqVOx3SY/F3YGSVY1mmelLOU5MKZUJM5RVmoVMU+/Huy6R14ro2XqhnZWU1PfSbj2uIqXp2i6I/P3YlrXn1burVPYqZBtPCc0bSmtfupgduOYfFVDhWLF6+xyo41na8BRYvsGlpZx5AjZDKbLfUflCeEelCANwR3KmCUyzYWStiql694mjRbXeKmMrFwpXPj/yFrSc9SAXluVTFVofsS15JpkxTN2zYcLnOl5QU81TIzVtOnDhOO3dtp4MpB9od7cGU/VIX1Km57UJ+XB/AKja2Kx0vOerDElwxpd3ru35Iq9Je5bPbJb/BotvvpF49e8lvg98Iv5XTXWMtATU1/Zac5fTPPT8VHLDEdMVlV4v/68TBlJVrCf2czqox9StgsePWbVvkGfjsmbMI1rng3tn3FO3I/bSGVTCEIQ4OaZEHz88oA2V1NtfY46yz8dH2KoGOSAD9B3Bz5871fARpngvta/PMiLQmHH55/5V3ZUukgbja0iL87LPPRhaZElo8AfivqbwMJ7M2DJWXdTz5HzOGk1l3Fl7mlJCudbPht84sjPQLafhmZlHdeevbZ8P3oCmVgBJQAkpACSgBJaAElIASUAKtTQCjAl7XahaqSktL6eDBg7InfBU2aJD1ZX1qRgm98D8pPJBpDe5ibF8WDFeYmiGMc1pxVqCVBoEI54GNfjzFVTgGN8nzpboR1Eig/uvQBGBhyYhzYA3JTPV4svoErSh6lye0qmxW+7sH96RQ/oMzg7Rm0LZZBbdgZtN+M5WSKRqWOlatWiXnCcKMqACiK0zdBweRGKZJxBeidldQUCAWqZAH7R0yZIg9WvwYAFqzZo0IL3Ce47xDx5PZD/YN0/FDhw6V9IhHHWGtDiIwWBNpLbd48WIp+u67726tXfiUy82Wa5WsWbyEqxquStLNi2sVtnnDWKtCZglzr5EQaRFm/bPSY1vKQDg7k0bCbBvilcxWOpMJ10txksHywvKVb6lWuLP+o+Km8tb13aqfPbwhNTZlYI2G20DUmt2+r1oTOCLQ6uA1bUObrPvoggvnsb82S1VPcvjTLIg636/+pgwr2LJM9fNaxFSwcuWfF/tttUcHv3o2b7MuXv+95GvacyjHp/Ar5o6hZ/7jQurR1er8PW9qPN20cCJNHoVrJHjZmVncrQI8Z7wtDRgZ13682vp6aFpsX5v7prmP2uNayg8hL5xdVNhSZbd1OceO5dC2xC1UWVXJ99B4uvbq61j83IWn3DhBb+97jA7nb62zSmVVp2Vg8YbrbpJ7fJ0JGxiBe/qBg8m0avWXdPhICo1IGNnAnK2T7NDhFCn4wgsWSF2CcXNtpovhKRIxgFZWWcjPMBBL+jqWrLGI7X/oUP42+u7YF6hbtx50+2130PvL3uNnmlT65puv2XrVDLFe5ZvTOVsQ4rWV23Hs37QmdiLNH/I9SkgYQTOmz6QtWzfR7oO9qX/vwraqRqvvp7SslDazBTlc18aMHkvz510g+1yd9hptzl5W5/4R1zd6OJ0/5B7Jg49C9iXvlbLmzJ5LXfhcD3RXWHhahIZ4P4ClvdIyXtiPdwe7a85xibK+3rBWLAd3iYiU9xBYEe7WtRtPAxtr341j/DOmznRMXRpSkcREy/JaQ9I2JU1bP5989uIlTalmu+XpaPwNyAMHLHH2yJE1nyfwzG5fkAfbuEcbZ/x4PsF1AGv/PKY/YsSIEZItMTGRbr31VlNEQK2bygtM7E55WcfSk08+SZg+sjFu0qRJ9Nxzz8lxhnwd4fjyvx8F/x9E4Pb3XC+hrhEV5J/eG1u/r+uHy3g67do/wgrmY7Sh5WZmZte/I41VAkpACSgBJaAElIASUAJKQAm0IAF5p/Z7RzKbrTIqihfN/fv3y+Bsz549ZeowtOfU6Up68vcHqKi4il9GMTzZOBGVec1D3uGDozyI0FELB6s76jo+ARxfJ06ckI40iHUGDx4sjS51ldKHhf9HZa6yZkOIC/GKfsz0eE4arEUnIsRJcPHx8bI2/1asWOHp7EEY0oLTT37yE5NEBGhGhIbAnTt30tKlS+nLL7/0sWw1evRouv7668WyFQYrjIMQC78Bzj1Y7rJ3cCIN6vDDH/7QJJc6GkEV6mPSexIEqEfGc7lDyDivj0N4w2xDzCTXL/6HMPiRzWd4yZ3YvbLS8Yakde/AxJmyPdvueKzsYfBj8Yw7SyWQyknOVMpec9TPhJt1Q+qMtLWVY8L94xpSpnPS4NoXBHWej7PaZAmfahNV/VxSL7hwvk8ua8PFVqzW8DR/dYmprEFi729h+Jl1LUU6KKg2XtuTs+kvS7/1qeUNF42nlx661Cfs+fsucm/beRu/vf3mLK5PWGVP77ObDr9hBLSwVgqH36QlHcqDiBiuNgFwS+6rtcs6knqYkvbsEkaTJk6mixdeKvfKrKL9YpUqv6z+AYWK6gqpIu6vmG63JdxZM84WQVVZWfOfq5pbHyOcmzH9rOYWVSN/lauCB5PMuVwjmg6c3Eh/2nYb3THhv6lf9Ai6+cbv0r8/XUm7du+kzVu/pfHjJlL80GE1MzogpL52tUb1NmT8SwRVKHvcuPEiqDqU3jLHY2vUt7FlwgLk5i3filgI03BeftmVUgSm+FuR8nK9xxESIk1cVDxNjLtI8kKAlJ6RLmXOnnVuwApDcX7u3L2dcnKy67zOjxs3wfOu3pTjEu/5KGPPnt2EaU39HTo8+rJ1tEkTpjjOqrB/XXVbCXRGAsnJydJsMw20vxjKbCMR/Hiewdo4bJvnSPj9RVXWc7+V3jwT7tu3z2QPuHVTedk5Ki9LqIcf334sNfRgMCyx7mjHl2EQwmbWqytrfz8b2b3pFjSRN7fY239o9oc19qlOCSgBJaAElIASUAJKQAkoASXgRALoa/A677sLuidaRYEE4QQs4MAywYIFC+TlFdP0/fwPBykzt4xfRt3V4TW82DYv++JHtDsM8XBWGgQjwldQZQZ6VFBlsero//FFN35zCJzM14c4LlayZar86pod7IZHCE9TFRvcjZeu1JXXhyoOUImr2ET7rONC+ni2MXjiNAcGOLHRuRMfH++pHs6jTZs2ebbhQVhCQoJnyk2fSN5YsmQJvfzyy/7Bso2OvBdeeIE+/PBD+tOf/sRffsdI5+bPf/5zuu2220R8BUtXGLw15zAyog7/+Z//6em4Qqcm6oo6o+49evSodX/NDWwry1SmnjBXHsR8cYnFxRSXVyy4XsHBby6/3Hyvsy5jlvTHFo5sJr37UocVs3Nn5Q2J520EmTizP8mDCCxIiARYYe32S4Aj/1kVRF1xfpvBc0xNCdEetiHgw33FWEWrqEBYGR9XVZIGor8qtuxSXFwix1t0dLQcr7AigbxVVdWSHxZfAvF+gXPI/4fEOQXLcoWFRTRm1HD6xc8epV889yuPtSlr+r+fc76nafass/j8K2CrGuV8LkfTVrZA8OjPnvGkxWGB6+ozTz1O48eOpCNHDjHrKD6/u4slCO++UQ/nu9p4/eTllTJ9sKl9357R9MTd84Rhfn4+RUVFEoTgGKjBtc3Oq0eP7nxslrMVvzzh1KdPHzmOrHSn+BitcBSvtr4eGqb2NabjxX0jMzNTngtbeupcWGrMzc0lnOv4PQLR4d65d98eOnTYsuo6b+75NOvsc6QpScdX05K9j1J5Ve3PKkhUUmlNS1xUcZLu+yJe8rXEvz9ddKQlimm1MlqyrfZKRobWbuHmeEkai6pup1vHvUhje82lyy69grp370Hrvv6KdiftFGu5Y8eM8zz32MtsT7/1hNJ2NWjr/bVdy6w97diZyPeFfH6O7UnXXXuj3AMyTu+lfyY9zNNGntk6bhUL95D2gWlv08DYsVLGP956kz+SyCOUDYtngej2JidRdnaW8Bg1cjRPP9pVrv0x0bHWmi1HIcy4ph4nV7CAbe658/iZ5zQvhVRYZK3xHLT/QLLUAc+JkydONbvStQMJOOH5xIFY2qxK7cUfz8tw3bt3r9FWPLM/8cQT9VoQWrhwYY18sCCEvgrkx2L6I9rCQmqNyrRwQHN51Vadzszr+eefl/c7cMF7HhZz3MAPh/dqHENY4McCZ9J1pONLGsb/YC2qNpfQ7TQNiC6pLapBYciLMlJO1XyurmufDSpYEykBJaAElIASUAJKQAkoASWgBFqRgK9hHTZwgcF297BsiwuqIKRKT0+X5pxzzjmer+SXfJRFu/bzoA8PlmPYHIPm5oVU/MjhDkM8nJUGwYjwDesa4zUfrIIqi01n+A9RBTrN4TCNpBmcTSz7lnKrcqgPW5ayRFMQTnUT4RQEVPBHBUX7IPrrqd/5bNs3ugR5v6YygirfE8meuu39hgEGkO2Wo2AZzliuMucXmK1evZr+/ve/06JFi3wqW5+Yyp4Q5tHvu+8+j6gKg+Qwf75161YRSOGcz8nxTqGFOqAusHAFFxUVJYPdSIO6t5agyl7ntvAbY0Hu6ylbJrBZgzJ9UxyGfipczyTI7Ue3nfuyJlVFd52U584n2whDrC1vsC0TvIiXIHc++zbCPck9ERzoKGdqaDUAA2RZWdlUWVnFg2+xfKyEiFAlOztbOjP79Okta4ikUlPTOV2FiKR69+4lA3np6ZkysN2/fz93ukpOd9STDp34ISHBsgQFWZ2njsJRT2VwTvtbqMrOzuHzcLuI0PDF96yZM+jRhx+iX77EljLcncBGVPXdG6+nEcOHsfgkkvJYPPTrl/9Yi5jqCQrlTuVvv93C6aIoPn4oX2dDeQnjjmdz3zW/WT2VdUCUP6/UrFN0KN1XdPvoHbOouLCAEhO38zERROPHj5MO9qKiYlq37huxQgJeY8eOkmvtxo1bZVrUadMmc7ogFl2VcLoN7nSBzas1fjIMUJx11llyD9q4caPIVCaZAABAAElEQVRYO8Tx2BL3UxzfX331lTxLXnjhhfK7tUYbWrtMWHU5ejRNrl9XXHYV3zfHyC6/Sn+TVhz8Dd9X6hd1nym+tevfXuW3VrvrK7ek8hS9vuuHdOWIh2nuoDto9jlzZGB45ScrRBAHQe/ECZPbC0mt+62vPbVmaGbg7IHf9ZSwZ0+S+IcPOuUJC2RPyiH+MCgrg6ecj6Abr79JxN2ny4/TX3d+3yNsbEj7IIJEnofPWkaxkXFS1pt//5uUDQFzwvARDSnGUWnwjAZ3+613+EyBCaHn6rTXKetEMuWVpFNpZTFPpAmLcPVf1/wb99T6OfxZTBh1CY2inpGDqH/0aDp/+F0UHWZdL5EeU6b+7c3FLKrKZkGVfwm6rQSUQHsTwEcycHgOtH/YArEKnFnLRgP/+efBNp7/zXOm6SdsYHGOSqa8GvdznIlXbaXheDFiKsTDj/cL04/mn6cjHV+mbSEeU+YmhOis0b1pSFWqN6CJvim986hnv+G0OTnXp4Ta9umTQDeUgBJQAkpACSgBJaAElIASUALtRMCMqcrAOndXQJ8UhCmo2LW4oOrQoUNScHx8PI0ZY3VyZuSU0j8/zOSXU945VAXssBIf1rxhhbrDJU7+edO6N03+iHDvQLjpKLF3zEhG/dfhCBixEEQRcXFx0r5q7pqfGD6dpkXManB7y3lawLqsU6GQkKAwT1lmyj97Z4snsp085pj3n9YnMTGxRo0gPIH74x//SBMmTKBp06bJNiyG/P73vxd/Q/5BVPXGG2+IsArpL7jgAlng/+KLL+ill16SjlDDCXUxgiqkQV0hqDJ1R1hAO1xD+TLkvpaKsAlBWHA9M4Ip9BFLOP+D4Eoc/OxBOIIgpDJ9Wbg2wo94lIG1JOSV+/JpNhHjifeUxWEoT8qVFO7sCHCks1csiAfEjlN8PCyaBbMo7wAfNyyIjI1lUVUPFuOd5nA0AtN+5hFEVIjfs2efiK4gwOrXrw+LEzLkWESnJ6amtNJ143R75fiLiAiniAjs1/wKjgRTo1Joj/sX5zWOjiD+knsvzZ8/hzuAQ3mqzU9o6NBBdNMN14jA5/d/+ouPqOrtpe/Si8//gr75ZjN98NHHnjjsCOfti88/TXFsnalnzx5czhCeBvR9EUDGxsawuM0MfmK/geH8ee06YA34mtoP6R1BM8f1pQED+rL1pOGUkZHBHKwzaf/+gyKiAs+lS5ezcKqYp5cdSFOmTKANGzbJQA2YQTg6duzoDsHLcGnp9c033yyCKlg6hNVSWA0wA13N2Reszn3yySdSxFVXXdWcototL6zAQUwFcfjNN91CA/oPECs37yY/TRszlzaoXo0VJjSo0ABI1FrtPtNUZIj/YP8vKaswhW4c/RSNGzueusZ2paXv/R+lph3ha2U3Gjok3jEEXfVMZdjSlZzW9wo6f8hdUmxKykGZ7g/XyWFjvk8FYd6ptOvfr+91uv60bRd7/Hgu7UveIzu84vKrxEIV2L6+634WCmU0uiLIg7wPTHtLykKZ732wVPbRjY+huLjejS6zPTPASmB+frlYIuzTx/tb/37rzZRdeKDZVTtZkukpI50tgu2kz2lH7qf0xKzPPOH4qAsOdXGa25Loaz3YafXzr08IWcIX//BA3X4+fVxAVf0yejug6tvQyhrBC/oCjN+etzYLQriHGMtU6G+AQ+emfbGXYfymz8iJ1wNTxzOtDaPG8gIzu7Oz8nQM2xOwvzPwevzxx+u1gOaHRDaNRS//uEDm5X8/igitpmLbzN4De4bQ5RMqiWe1Fuef3p9FfdvoukBZGcdCKfOk14on9tnQcgf0HVLfLjROCSgBJaAElIASUAJKQAkoASXQOgQwTOgewcdIMt5vfN+2m7lbiCVgXQQdFxdccIGntJcWH6HSMnR8sOlk3jOEVeKXbW9YFbZ5EYGVpOEv2Hgt4dxpjQ4AFzpQZNomaY3swwhGWmKAzlNp9TiOAMyeo0MJA4+wkGTcptL1LIBq3KF8qjrfZK91HRrk1RoaC1X+nVO1ZmyjQDMdGiw/2d2xY8fsm+I3aXFe2UWH77//vpxTNTLUE7B8+XKeLswSaNmTQTgl5y3EkW7Vj39dTF1Nfez5A9KPqygW94ovVT5Oovkf1pCiSDxftrxXLo6TRFY2eI3DdRIJkcekdwdJEuNHHMRTkgaB7NwrWZs6SZgpyErmwP+opUuOL9ycwsJC+Qtm/y9EvccXjkNYmoJDhzMsVdV0Vnnm3oB05nz2prX26912rs86t8wvjF+3WoQ+sKwEK0qYcs50lMNS1e3fvcnDCK0Cz58+/gt6/8MVnnQIx7XtJw/+kBZcOE+mS4TgDL8FpudBmb7O2q9vmDO3/HntPOC1ooca9+8e6sPBuoZZZw2mjYyIsIS1EO2VlPhPeWAdN1a6jsGrtX7F2bNnyz0bgrXPPvuMz9XKWs7Dxu0dxznuR0ePHqVRo0bRzJkzG1eAA1KfKjhFe/ZZFnxgmQpiKrgle35KGzLe5uflygYuVZyu5RcHIKq3Cq3RZqvMhnHfkLGE/sm/FdygQYPpkosvE3/Snl2E39YpDh8dtMUya8CNdMcEy/Jrdk42rVj5oSA4a8ZMH4tFTuHSmHrg+p+4fas838Iq2YgRIyX7ysP/TftPrm8yX+RFGXAoE2XjPoR91bznSDLH/uvXp5/Ubf2GdZ73AARAdNZax59dLAhu2DecqYts6D8loAQcQ8B8aGWs2ZuKWc/rZst37R8n/YHuvgbflNaWSY8Px+DwjBiorqm8zLsg2q28cB+y3p2tD20adzT45zFldYTjy5AY0NPb79m3ewh9b34shYe1XMcRykKZvbsaS9dE9n2aeuhaCSgBJaAElIASUAJKQAkoASXgGAIYoLY5bOHV0vv2ZItsiheD1KmpqZL1vPPO8wg3Pl6TS9uSeIo23hleQK3XWWvnqICEuANlW8IQbw1qukRZwJ0BCEcCKwdFhHkFNNg3XnbNoHlT6q95nE0AnUGnTlkDVEOGwHqNdUDvL0+ib0vXyXR/l0dfzwpB73FRX4vyq/Pqi+YTw3tq4LjD/sw+683YRpFGlGRESma3eXk122U61SCaGDnSGgRCelgLaazD13gbNmygefPm+WTF9IuRkZEieDMdTf51MXU1dfcpoIU2Fi9eLCXdfffdLVRi/cXgimQETXJI8mGJMHFuD45UpIHqyR4HP45Wu4UrTzynRT75x4EmXNaIYE+1JOAkvDbx7igpUy6XKMPxDrV3N4Z9mFrOEj1hKj9rqjm0UO4fnNQcX7Byg2kBEQfRT69ePcTP/ziN/Mc/sYZjrMwhHURCgXqvsK5B9l87iK13RfN5V85tLuKpNSNFWGXxqqZJE8bRfz10P730uz95BCzmeiBw+B9Y3Hjt1XTO2dN5y8X5owiWf+AKC4vEKhMEVk66/knlGvDPn9cuP0HV8P4xPrxwbFl8wCGSOeBzXZdwGDVqOPvxXGKORcvvZF5tfT2s6yfBveeRRx6he++9l15//XWeVnG8CKwgcGyKUBm/U3Jyskxji9/4qaeealI5ddW3rcLTjqbK8TZt6nS+N1sDfl8dfZM2ZX3QqCq0lqWmRlWiHRK3VrsbU+5m/q3iu06muYPvoLFjxlFaWipt35HIU5+nUbdxzphzzLxPtdZPFBwUQteOfJwuHHqv7ALT4i3/8AMRR6emZdCSdx5r1K6XvPF6o9K3dmI8j2zZtonKysto2LDhdO6cubLL5Lz19Mmh3/O9F/eCpjuUMaL7TBrdc46UnZWdRYcPH5J9zp51bsA8rwwblkCpfE1D/RO3byNc1+AuGHoP/TPp4aYDqicnyjYO+8S+IyOj+HdKMMGOWc+YGlii38TEHa3Krq2fT54YZFmXa9VGtWDhibkdi79BM3XqVBHWp6Sk0LhxvlbDrPc86xkbz3Zm2+TFGs/oJtysEW78WBt34IBlGc/e92HiAmXdHF7mfc/OxvCxhxkWnYHXc889J+8LOL6w4B3E+LGGs7Op63hDukDm5X8/6tLjJL2yfA+NG9KdblswknrE4EMhom1bLcv3/uklsgH//PNPHF9G//ziIB3IKKBFl4yiqSN6NaAUosxMZ1oubVDlNZESUAJKQAkoASWgBJSAElACAUcA74fWuyHG3tHPwNvy3xrPb5EGpaWlSed5r169CIIXuJMFFfTnt45y5wesUJ3JEpWLLVHBChV/Sc2d18hTVWWFSTi+cOVFrFVVVrPlCO8APKzumJfgFmmMFuI4AgUFBWLVAqIcM81dmauUviqxpno4VLGfPil6nw/shg1snKo6WW8b7RaqTGdLvRnaONKIkoxIyewe05vZnekUQhuuueYaET2Z+Pz8+q10mXT+ayNsM+Goy1tvvSXnP/YHh7V/XUxdTd1N/kBf2689aL19wVXKXKmMH4iMX/ru3BkknTsCK3s5PowQAedO4LPJG1KEWfMGtj3OZ8MT6gCPuzHcqD594ig7O5cHpDN5Krb+1KVLF8rNPcHTyBSycKqcrTZA7OMSAdWpUwU88JjG/u58XYjh6ekKJS2OP0wPCNerV08WYyJdKk+r051iYqJFqOXuN5U0gfLPO3ALXrjWVfM0nmNox449tHHjVpoxY6q0cc+eZJ6+LpuZFdHY0aN4Kr+f1yo4wXXhe7ffwmlGM+8swTBqFA+KpqbTqlVrKSEhXqZQhFjS4mV+p8Ag5s9rd4qvBb+L502pwSsvD9dFF3/Rbjh8zWKXYSws68fWkLJo794D8nziz+vLL9dSXkU0hXSJketsIPJqzV91zpw5tGjRIjmHn3nmGRHg43w2Az4N3TfSHz58mH72s5+JgPf222/naRinNDS7o9IdO2ZZTBs3boKnXmtZUAV7Lo37ax0LRJ5KOdTTWlZvGse+miCCM27ChEnizc31vdaY+PZYW1a3+BhpBStmYSFd6N7Jr3nEVBC1vPf+UnkePJyWTt9s2tYeTW7Rfe7es5OfIfLl3eOqK66W983T5cd5ur4fUmU1X8OayRVloCyUiedJ7APvOdgn9h0oDuLs8WOta9mq1V9Qjvv6ds6Am0Us1lxO/vkhQEPZcNgX9gmHOgSqaF4aoP+UQAcmAIEQ3KZNm3yEK/b+A7vfCFoMErONNMaPOGzb80EIu3r1ask2a9Yskz3g1k3lZfgYRmbbzsjuV17W8dTZeJkTYkJ8D/rLg3Po/mvHe8RUJq4l1z1jI+gB3scf7zunwWKqlty/lqUElIASUAJKQAkoASWgBJSAEmgIAbwbYhjddygd46ItZKEK1j8w3R+cfdqV37+RSvmnK7iDA8OT8k/SyDY6PngLU/jBwQIVHF7uPS/4yIVsiDTxEuai8FCvJSIIqszAHAaI1XUsAjgeMJUk3MCBAz2NW1fyJRW7ij3bByuSaWXRB3RZ9LV8sNd/HNgtVOHEGBk2lvZX7PWUFWKzUIVjCsc46mEXz3gSO9wDi3H333+/zzSJqDLahYtDY51lPcjKtXnzZvr5z39OmN4PA0D2KQUbW25LpG8ry1SmrhCoQizqtWfmVqnyQYXjCpctEDZ+bMMPsQXWhj7Cca2TQO/KXPY8+TlK8mJtd7IPd5kIxzbKMwuOW+wvEFxMTBSLnqK4qqixVevevXsRFhA1xyysVw0dOkjCEA7XtWs0LzHss1TECLfSDZZ4/MPxG6j3Cev6YztQuH39+vXiJY5bhmuexWvcuNH85Tcs3rjk2rX6q/Xsr92NGZPAU/2d7+bqEitX8+bN5sQWU1j1wuAkjlmvs+K828701eTlW88BA/pKgD8vBEZFRbAlPgzCoK1yRrGoqi8v/XnbXDu9vA6l59E9L79BL/xjO/XtGU2zpwyll39yKaeFax9ebX09tNpa9/8HH3yQDh06RF9//TU9+uij9PDDD9O0adNkGt+G3DtwH16/fj29/PLLLBY8TZdccomUUfcenR2DDwjgwvgZ1jhc38w1zoSdad3Y9GcqL1DiW6vdjS0XzwDGmd8SH4I4xf3PQkss25j6PLp2Op0szag3S88ug+i+qX+ngbGWlZE1X62ibzdtlDzTpk6jH9xjWayqt5BaIp1kiSCbLR4dPZom98Brr7mBBd6RfDV30eKd/0n5ZS1nMQFlocwHZ/yf7AP7+sc/35B99+3dj+/xuO8436GegwcPkXp/sOxdunPRXdKeuya+Qs9suJAKyn2n3W1qi7qG9yWUiSfb0tISwr7wbId9Bwqrpra9o+Rz2vNJR+Ha0Ha0F39YKB07dix/nLBXLPzYp+Pz9P/xPdX0uWBtvycbP8L909vDkpKSpG8CFrQDVXSP37KpvPz7q+xsjN+ssR/l5fOSK8cW+MAZTmaNsI7CC21RpwSUgBJQAkpACSgBJaAElIASUAK+BDwfanpeFfF+aG3UrzrxLafOLYgp0JEJ61SDB1sD15t3naLP1h/nThCrwwOiKMvqFH9Tzmkx2FBVxQNH/LIqVqdkEAlfUFuDSRJXyXnZShWsTFjWqWC5Cqa+fQcqTAPNtE51VlQjApIAxFT43WHhCNN1wWVVptOe8u012pNblUN8dNUI9w84VW1ZqMJpcH7kJXRp9HU0Prx2KxemU8p04vmX1R7b4eGWKe7iYq+gDPXAOWh3qPvFF19cQ0yFNMbSlz19Q/z2fCtXrpQOS+zHcDJl+NfF1NXU3aQL5DWm64PQpLZp+8xVykz3h2NNLrhIz35zGUZ+LHDSd8cRJi/CJAp5ONydTDJ7/JwG5ZoykcdIa6RcTshXTYlHnLOdvRXww5kwazs4GC03YSBl0iGtcXbxo0lrxYWEWOb9rS3fOJPbqWvTuVuz/WiHOWqMH2ui1V+to0eeeFquoRJg+4dr2iNPPEuff7naJjJDOaYsTJkYyoPJ5lEhsHlNSOhtaz3RrgOwIuPLK1TE2oYB7iVYLJZWZiu9V5Rnpd1pm04wJ6+IsnJ5qmPPcWrl7Oz/McXfH/7wB7rsssvYglyBTNX361//mg4ePCjTTFZUVLif8SzeON5xjCIcg28vvPACPf300yKmuvDCC2Xb+zsEHt0+fSxBX/L+fZ7KY+o4ee7Fs2+DFz7S+DBt6cVTKYd6Wrq93vIaw95Fcwct8hDau8+aVqp3nO+1xpOgDTxGnJicvE8EtfLOhfeuBiymepg+298ikH17VI/Z9Pisf4uYCu9emOIPYiq8j807bz7NmH6WKSpg1+CVtHe31P+C8y+ivu7zdUPGvyjpxOp6+dhZNdSPMlE2HPaFfcKhDqhLoLgJ4ybx+0V3mab9wxXL+dnVRbHhcXTPpFekCQ3lUVc6FIKyUCbKxj5gORf7xL7VKQEl4FwC6Cu46667pIIffGBNb2zebexrPPvZtydNmkSTJ0+WZ0L/OP9tXC/ffPNN2cdNN91ke79xLpe6atZUXmBiX+wslZf1buHPpDPyquu403AloASUgBJQAkpACSgBJaAElEBnJiDvzQyAux1tzhpf934Wb4tqjBcvo1lZ1tfPdutUf/8gQyxLQUglw4/uvXtfXlEha9AWYYiWJFJJ5LEEWFZdfGouCU/kl3mqaQYP0KnfkcQangZ2Yg+ODViigLNbp9pStkGOKzsayCwWRF3B1oLC7MG1+vN5yj+kh5hqYsR0STM38iJKqzxEp6sLqMRm+coI9nAiGX+thbZhII7zkpISMiIls+uePXsar2e9f/9+seThCXB7rrjiCk+Ho39cXdsoHxavjMMgNxwGtc1ixFX+dTF17WjnKEt3hAH+i8/aJAip3F6fYxVXM4SbtWRGGAeacBMma4RzYiNpMXHW1dPKgzDkNYVK2e7CTLmIDhRXVVXJHcEWIZxzOKZkOlg+B3GcGYEPzkl0nCPeCKWsMIsO8gYHh0insjcdpoj1J4F9Od+hnTWdSyw0VlZiwDVE7oFgVFlZTp99sYaeeubXPoOxiIMDJzhwgaiqrKycLl4wn63MhUsYrD4ibXh4hPC1Di7JEjD//HlNHNmHNu7yWl3ZtvcoXTVvhLQTvCorK8TKHkRkQI1nCljogogvPDzUna6awyqZQRCLzcI8vLbuOerDZeLIfrwdGMeVT8VbeQPX/1/96ldizfS3v/0trV27VhZYKZgxYwZbnRvqEfvinrFv3z6e0nIHJScn+9QsJiYm4J/3Bg0czFNtHqWN335Dw4Yl0KCBg+j8od+jwye30bcZ1kCjT6Pr2PD7xqCOVB0vuLXa3ZhyZw68Vn4z0E1LSxVREa47+G3byw0dEk8phw7Ssg/fb3QVJoyfSJddegV1CY2SD1n8CwgOCqGrR/yULh/+Y75GBstz6PsfLKX0jHQ5HxdctIAGDoDlyMB3hw+ncPuKqT9bXZo6ZZqnQZ8deaVWNp4EzfCg7DkDvyslYJ+7d++kLLaShbqMGAGrk853eO6aMW0mfb3+K643WyRcv5bOO3ceT/t3Ll2Z8DB9cOCXzWrE1SMekbJQCMrGPiL4OQX7xL6d6rYkbnJq1WqtVwhF1BoeqIELH/l3QFX9xe8EhlW6pkC96KKLKD4+nrZu3Upr1qyh+fPnyzsJ3jlMPyHKxXsK7qdYIKi3O6vvEP2HvgvSvPPOO3TkyBGeNn4Affe71vXUnjfQ/E3h5f/+48/JbCsv6/jqbLwaez9qbHr/c6y5+Qf0HeJfpG4rASWgBJSAElACSkAJKAEloARajYAZP+XuCI/jt0ce6XPVGKP3JGioJy8vTywL2K1TpaQV08Yd+VTJFqiqeGQC1qjw4o6OEVlgmYqnOrEsVnE4vsIXC1awXGUtSGcNRvKAJJRWsnCYjHS46ER+uaeKRlAFKwbqOhaBsrIyGdS2W6fCdH2HKw7UaOjkiLNoYOiZX7grqZKKXKdpVpd5HjEVCgsPiqCLoi6Xckuqizzlm04WCA+c4owoyYiUTL369OljvJ71gQM1WSHy+uuvF4GAJ2EDPNdcc42ICExS6zzluUNtUxaZOP+6mLqaupt0gbzGNRViJ1yecMXCYtdQwHKVWK9CvHtBHvZKHiSH81ziOELKRJhEWGspF9sozx1nF1iZ/Dy+adUBhcBxYsRZhZlAiXHIP1M5s0Z9XWKRBoJBDGZa1/VquQ7gGCorK5U0aACOP6RBWuSDgxgLU8AUFxe501r3G6u8Eom3gFjpJVOA/LPaaI4066gAA3DJyztJJ04cl3a7XJX078++ZDHViyKOMs3DYOMjP/kPeuy/fugz8Ihr21PP/Io++vhT5ljJzMu4rDxZysvLOLv397HKCgx2/rwmjfS1GrM9OcvDC8fM8ePH2dJFPjOw2EJQBaZ4zjHXOhx/+fknKTf3GFtZOuXhlbgv02CW9SQWb3ldYPDy1rd1fXgoveGGG+jjjz8mTDsD8S2Ev0uWLKFf/vKXMh0gpgR85plnZGAMYqro6GifSi1fvpw++ugjysjwCuR8EgTARq+ecZQwfIQcW8uWvy/HFap9x+Tf0ZxBt/CzMV/jGrRYz9F4lm7JxekIW7KtvmU1jPucQbfS9/i3gsvLO8ECpg/kPjQiYRQf077WQtuS5ehRY2nUyDE8dW6sPONBbNyQBXXcnbRLrMf1ihzKbanyWbqF96GHz3qfrmBRDMRUJ0/m0T/eelPEVBA4XnXl1R1GTAUW2cesKf3mzD5PBvQRBof7ij+bltv23ivw7oF9w5m6yEYA/IuMjGQR2nThtuGb9WyF0HoPgRBvTM/zmswPeVEGHMpE2eCEfWGf6pSAEnA+AXyM8NJLL0nfweLFi3mK0KPu6yqurd4Fz90NWex5Vq1aRe+++65AwLTSHeG6oLwad0wrr8bx0tRKQAkoASWgBJSAElACSkAJKAEl4EvAjAPah0S5t4KH5oPYmE8zXWamNYhot061ZEWme/ARnSLc+SyWRjAk696WQHentIR5O5ClOoi3PO41VlYYyoA7cRKDvJYzAg0VVBkiHWeNaYHg7NapEss2uY8CbzshFTmHBVL+bm/5ThodPoGVg175SQFbp8JRhLipXc5me1Zei1ZDQoezKGswFddhocq//PbaxtRJcJjmwu6mTp0qg9L2MEyn9OSTT4rVjx49etCiRYtEFIUvN3/0ox/Ryy+/bE9ep3/cuHF0xx13+MQj75133innO8QaWDC4IQMcXBe7M3U1dbfHtZQfHbNwGKRvdYeDjhdck+CVyxYOLITxGmFwZm2mBZQk7nj44SS//OMNSeAOM5scZs+PWe88+3DvQFacLhhp3fl4JWVbSRDqdOeiwkKeLi0rlwVUVTzFZzT16BEiFpiys3P5uHJRXFxPmf4T1/v09GwRE/XvH8dxUSK+Sk3NEvFVWFgI9e7dkzvswzzp+vaNEysaXgGgYeKG6HQ8NernInDZujVJLEwNHNiHIiLCWEy1in750h/c92ErE87N275zIwsAQ2nq5DH0q+cepUd/9iuP4ArT7D73q98Jn8iIaBEXTZo0hmJjo6lLly7uPQc2L1iosrukQ3m0alMKzRzXjxITk/j65aIxYxL4uInj46qEvvlmu3CYNm0MCxN6U1FRCa1bt40FfKUs8ImgsWMTmE0kvfr2WkJZdjdxJKZza19ebXo9tDe+gX4IqR566CG6//77afPmzWKFCgLgkyetKXm7d+9OsFyFaV7Gjh1LP/jBD2jbtm2e0h977DHxX3nllfTss8/WKuz1JHaoB+KXUyzMg0Dv7/98k2647ka2qjCQFk3+NfWLGUHv7n5Opharr/qNsahUXzmBFtda7TbvLHXxgJWmGyc8SQsSvi9J0tOP0ntspam0tJSnautHo0eNqStrm4RDsDhq5GhZsMMBA2At78zug+UfyHFYWHiaBsWOoy1Zyz2ZxsddSPdO+atMs4ZAiFlWfPwhlbHgNu/kKXr/o0/pr6+/5UnfHM+SN15vTvYWy1tUZH1YERsb61PmI2evoC9S/5eOFiTR8eIjVFJZyB8PVdCJEl8rhT6ZatnoFTmYQoLCKDI0huKi4mlw1/F00dB7fVKafZu6+EQ6fCOOp70cM3oc7d2XJMfKHYu+x89zPen/TXmNnll/Ph0vSWtUC+Iih0heI+bD8QeHfWBfTnczps50ehV96peYuMNnu6U32vr55LMXL2npJrRqeR2Nvz8sPNP9+Mc/Jkz7/Itf/IIef/xxSkhI8HzoBZGUsVgFP/oV7A5hxpmOznXr1tGf//xnE0yvvvoqbdy4Ufo8YJV74sSJnrhA8yivxv1iyqt+Xg29H23bmigFNTS9/16bm9+Ul5lpCdzNtq6VgBJQAkpACSgBJaAElIASUAKtTUB6IfDP0x0BC1VsWKY5O0YHLwQvdutU+acr6ePVOfyVvGXhwRJRuYVUHmEVLFbZ9uzZ8AmUBEZA5RmXdHvybFP+mQ5nWJNQ13EIQDCBASq7daoyVyntLdtZo5HdgnuKhSl7RHplKn1W/BEdrNhHl0Vfz5NhWVNB5Fdbg7VYbyhZTfMiF9qzUd+QASyo8lqoMgIge+edT4Z22Ojatavs9dixY2Kdx3yBicFniKbMgDQSoaPx888/F5EJtmGp57777oOXbrnlFlmfSVSFjqlXXnmlhpWQQYMGiRURdIbaHeqAuhgHCzqoK5ypu4kL2DUuV7wYoRMsVRlnBE+yzeHW1dCKFWmf+0LsLsJzYTb5TDi2xZk1b0AwhU3sF5dO+E0/swmXeqEQ9khZnEDKkjCEO8VJ7WyVCebjJI/i4wdwm0LYas0hFgLGsKgnVkRVBQWnuc1ssoVbhS9Q+/XrzV82Z0pHOwbZYFWpd+8enCeW9uw5KFOzde0ayuniJB0sD1nWhwwIEIMz29aWU/8HBeFIstc1mKcEOkjz55/FAw9htGLFF3SUp1761W94SiI+742DmOrF55+gaVMm0YYNW8RaycKL5vGUGFn0P6+9waIqKy3WmCLwZ48+xNfdSC6j0m3Ry5RlhKn2Opi9OG/tz2to/27Ut0cE5dgE2S/8bTN9+dfbeTqloWztKJPbC0uX1dL+KVPGenhh6sj9+1NZ2DOcp6UbQEuX/psFVqXUvWcIvb3G10rS8EHdaWh/+yB8YPBqr18QAsdzzjlHlvrqAKtVN998M5/Dvjxhqapfv3704IMP1pfdkXEYJMRUVdt3bmMhaSYt+dc/6crLr6bRo8fQwoQfUB8WWvx1831UVul9JvFvSGsJi/z347Tt1mp3feV2CY2le2e+QpP6XSg49uxNopWfrBBhav/+A2jKpGlOw9Tg+sTERLOgiqiwqJAuGnYvbc36SO7DC+P/g2YP+g4/a/CLI597675eS99sXC/lpvH9d+PmRM/zZYN3FgAJcU05ejRNrHBBoIZnV1jiiomOpRkxt9H83rESZgb671jRrVGt+s35uyU9mOJdGkK29EM5zP8g+wslbP+BZEmDugSigwU+WH3MzMqgpe+9Q7ffegfFRsbRg9P/Rc9uWEilLEZriOvCojPkiQ2Pk3cYlAUx34D+A8XKX0PK0DRKQAk4i8Dtt98u/RUQPj399NN0zz330Ny5c0VIheuqeY8x11h77XHdNM+CsLK7dOlSsUxlwpB27969ssD/9ttv01NPPSXWUbEdiE55Ne5XU16N46WplYASUAJKQAkoASWgBJSAElACSsAiUFs/hIy787hsswRVxjrVyJEjPazfWZlBpWUV3MnBw74soMIaA8DyZ8bArEAJ92R0DxIjnTiT1mybtTvviZOlnqywYgCH6eHUdRwCxjoVBHvG7SrbRhX89//ZOw8Auap6//+2pSebXkkPJIGQAiQktFCk90exgSD+LU9EkcfTh/JEQUUFOzwUBJQnojQFgUeRDgkEQgIESICEhJDeSC/b/ud77pyZO7uz2dnNlpndz0nu3HNPP5+5c+/dOd/5/aqHPkWyBpIe5rmyCouce8B/brnbTulyjjvhiy0IqpT31s65dkTHY/1CkY4V+hb1t4Vl0SKGjoN1llyygFZaWuq/cNSXjUuWLHFWVSKLCPqwy1rcY4895kUmGr9+4amFIIms9EXjHXfc4QQYR9q4ceOU7UVVistE/r/+9S8vXPEZ7mX48OHeNeBpp53mhW0hPb5/4YUXEoKWIE4xP4b4hUdjVN8ai8beVKFZLFPFBx9dSX2KohIteVFUoowuY9rc2+L3kqN4aUrsMuebcC9+r3qJsqrg67ok7YsS6YrHxVTu0AelB9mLEqL2kq16l4O+IV86V1/k7q/cn08lJcVe6BN9Oa7ZKVT5hWt9eS6RUHqI6nbpErl9kRCyvDz9WqF6cgkoUZUEWBFZtSJOuR/EQla6UqHKW02SOycJoOa9vcAedp/9IJBSOX3mfvSDb9mxxxzuBGcbU1Udy/3GjnHu/y5x1qxu8FyVKUayVHXOmafZ4MF9vPs/CaskKEqdYUFYFWsuB6OZeH3q8H52w0NLnXvhiOOaj7fb1Tc/Z//vpBH+vNi1a5e/BrZrF1kBTE2rylmt2mEDBkT3o9LSbm5hd5uvu3rDtmSxIncBuO5SiS3in8iW4dXs18MkhaaJyNpidD2o2f7tt99uckk7dOjQmpk5nqJr2YGTJts7Hd6yhR+871zH3W9HTj/aDp4y1SYOOM6umP4P+/ULF9q6benCvTCt9gWReK9np4H285NfCcmtfv+XcyMLpo0x0Uv/OcE27ljrm5KbxUyhT+fB9o3D/mSDuo322XI39vwLz/r4yOGjnNhyv0zV8iatc6cufqwS83QuGWNXHx6JpsIE5Bb1wYcesA8+WOTvK5MPmmJf+n8TQnaj7XPFEsHY0ft5q5erVq00CecyhX33HecEkKf5rN0J8TLVDWkPPfJPJwCPxFUhLez1HN2//wDTWPI1TBg/ybY6F8xyEXm/s+T2yXM/Y3s5a1z/Puk2+9WsT9dpgU8W4VRWdfTDKbWhtkpLu5vaJuQngdb2fJJv70Iu8Nf1TUJ4fS9w/fXX2w033GBy2acfe+lHWfr7JYRMz366Hsi6qb6/WLx4sS/ap08fJwx2yuBqQd+XSLSlds4555xquflxCK/6vU/wqh8vSkMAAhCAAAQgAAEIQAACEIBARCD8wCtaW4zWjaVb2iOXfxKXrF271n/ZEcQc5eVV9reHlllFebSsnxRRuS8vohD2Oori2QqoEg24WlG9pStSv9YPgpt8dIkQ5sU+nYBOWlk10pdpvXv39pmVTi7y+s5X0wsmjjIJqtZWpr5QW1K+yB7Y8lc7rfO5tjFhoUpVJc5aX7HWehX1Sbbbp7i/vbbzpeRxsP6US4IqcZEVqHXr1vkvEcNnUIOWWfvHH388beFZC7YSmMjil9jqsxsP48ePN22XX365cyEWmdWWBaDhw4fHi3mhwYoVK5KL1jKlr77i4hZ9gaUxxIMEVQoac/wL0niZvIvrWuouR+HrXommkkGXqXDs9roield8iTSV9UXci5LUho4Vwl5llKdNiUr3mxJcxKf7lyhdxdRHZUhz+9CG8vIltGtXkhD37HJWqIqdC7oSP3TdRsKmczg659wdwd9fPBlfXq4CRUTCmF69ZMktyotuQ1X+/I9uhkpXELAQ9wk5+5J2jiVGKZd8O3fusqeeedweevSx5C+6la3P2te/eqFNP/xgdxQ4iJnOyEpnca6DTT5wgrNedYV96zs/TtaVqOru+x/w/E4+sbdLr3BtiVPY4tI9l5yjIROvcSN72+dP7WZ/eCC1gH3vv+bb6rUb7cypPfz5pEWayJVwdH7Fee3YIeF2la1au9n++sIae3p25PY4IDjvhH1s/N66Z4lRfvEKc8jV/bx5qfes+hj1nmlB7re//W31rLw5liCnU+fONu+tN+yZZ5/yll2O/cTxNrh0X/vvYx62m176d5u/akat8wlWOGst0ICMhQvf97VSblIb0EgjVdEY9D5rTCNHjmqkVhPNVBUl3ZNnani//ofbV6b+j3Vt38tfJx99/BF78803vPh33H7jbeiQYZmq5VVaZ3fuKchSUvWwavUq+/s/7vVupjs6N6dHH3VMmivu6uVbw7HuAbIeJx5yy6nnZ1l43bHTbS7+8ccbvBDqxONP8u5G63IVmYmJzucgpurevYf/AUeH9h1Nf3foxxyl3UqdVay4tcNMreR2mp7VJh90sL044zn7yFnQfNgJyE4/7Uyb2O94+9S+19idb16x2wl8av9rfFkVUl21IT5qM/63x24bIRMCEMhZAhdeeKF3x3f11Ve76+HbduWVVzpXtQO9tarhw4ebrGHLOqB+OKm/7T744ANnMfZd784viKf0/cKPfvQj38706dOTf8/EJ62//dSHQr6KqjR2eIlC9gFe2bOiJAQgAAEIQAACEIAABCAAAQg4wyZFkSEPCahSQS7/9sBClQQZWtSWG4Jo4dHsqZfW2Kp122OLEvFF6iiuTn1IZoVISA/HoVg4DnuX7r4QeW/xJtu+o8I6dijyLgdVGkFVxKw1vOq91Bdf+gItCHA+cJamtlTVXOjRfJ1NkRrTLrFIiBEy5ALw71vv8udPSNO+fUGH+KHtqtppaytWW7kTWxW7NoKgSl/i5VLo2bOnF1QtW7bML/KEccpCx9FHH21PPvmkH264AMh1ohZv9Hk95JBDMk5Flqxqc8kn0/lXXXWVLVq0yIYNG+b7eP755/0FRu+RhFTa1HfcSojeS41RQV94tqrgrqlBWqJ9EDQ5DCZDQsEdoJ+zS5OoR1cy5SuEfezq5i/T8WMZ0lHxZFqIJNqIGozK+H59y4kKrmxUXAraXAwaXZiQxldgffv2cqK+9Y5VpftCva9fVFyzZoNb1Nzmvkh3n0pnwUpCq02btrgFzS2uXIGLb3PnVnd3Lyi15cvXOOsFm128u3f9lyqne8QOd35XX5yM95+LjFJjioRg4YyLzopx4/a2P/3v3+1Pd/41bQFBn8mzzzjVxu071luv+uijVU58ucKVKbCPPlrjBAnD3C/Ah7pfd7/trJ91sK995fN24+/l/i8yz6L7+023/K8TtPaw0045ITGI8H7l5tmUIhXFauNVULDQHuvTyZauSVmWem7uCps9f7V9+dRyu2Tf0Y5R7bzuefQt+/NTH9mmren3hMF9OtpXzhofG0Z+8YoNPCejw4YN2+24nn76aZs5c2adrgN320gLZ0qYo3v5a3NetTlzX/MCFokPSjv0sW9Pv9vuf/M6++dbN7j7Tk0zSiUFnf1z02OP/5+9/sbcRp1JLgiGhgweZoucBa9777+70eY2YfxEO/64E619UWd3bazZrKzjnDHuUjt93GXu7lTgF3T//sB9zjLoYi+iOWDSQda3T00LqTVbyv2UIKjatDn1nK1rqM7Dp57+l783yPrHsccc55/Nc39GjTNCCZoyiZoeefSfaffchlqo0ih1vz7skCMaZ8A52EqH9k68fdBU5yryBZu/4B0rfbbUW+E7YeTF9tHH8+2ZJX/KOOojh15gKqMgkanq6sceaktt5lN4dc6sfBquuZ/h5NV46xrstRf9sq4iOZV/wiVH59R4mnowBx54oLc0dffdd3v3fIudxam//vWvdXbbt29f+9znPmdnnumek5ylK9XT3y+1Bd3TJKrS9xVnn312bcVyPh1e9XuL4JXOq773o/qWT+/NbE/rD+w3pHqTHEMAAhCAAAQgAAEIQAACEGgyAvruwK8Ypy2BKqXA6UUaGNavX+9ryiR3CE+8sMqJqcKXGL5L13G0D7vU4nlIT+wTjSTLpyq4Kull1EalUxm8/s4Gmzqpt19wl0hEghdZEdKXrYT8JqBffytINBTC+2XzQ7TGfk35yhpp/YoH2sqKdOshK8o/SivXxbnK6VKYLrBY7dqqdOfYqvIVNqh4iF80C5YR9CVdEHilNdQCBxInSSwlAcRrr71mhx56aHIUn/3sZ01ip7gITOPWgtmkSZOSIshQQaInfbko0VWm8MYbb9gXv/jFpNhi6dKl/otPcdEY1Lbq63OovuNh7ty5vp7Kxd/PeJm8jLvLUrg0+WurXtxWzSNbJKrSJUx5ifxwRVN9pcXbkQgrbrFKbEJ5ta3yIUHpOtSmoCV2L+Ry+5Cn9FA+WdAn5uJLpVu47OC2gYnBRTPv06eHadNEwhfl3bp1duIoWdRwdw0PsMpd+4ucmG9AbGIFrkwXvylRlpZU1jNMJxSrk7vRaNxhfGJTYW++Nc/u+MvfklyUq8/aT3/0XbfwfYgXUYrRXnv18VvEUGdKpfu8l9j06QeoiguTbciQgfbt7/44+TkX6x/+5Ld+8fy4T2ixV2emQvS+RPHcfc3Eq3//Hk4IPtkGjxppp116r+3clRKmbHUi7V/c867d9+Iq239Ub2dpqo+NG7W3O2cq7Jb759qb7621N95fZ0uWx10nRvNv367YfvffJzphX1d3PVSanoXyi1c0k9x9Pemkk7xLmOAOONNIf/KTn9h9993n79uZ8vMhTQKdaVMPs1defdkJiBbanXfdYf92xjl+sfCs8d+20X2n2U0vfM027UhZ4dS8enUa5MSlmxpVTNWxYycbNHCQ7T1qdIujG73PGPfZKrBlyyUiT4kh92RgEp4dMu1Q69NpiC3fEFnjCu2VduxrFx/2Pza2X/RstXHjx07MdY+z8LnG/d0RWciRBaHWEnr36uXujQXO8oez2Df5YNvshFUvznjeVqxc4ac4evRoJ/o53N9fWsucG3MeeyKoasxx5Gpb3bp2swMPOMhmvfKyvTzrJXc9626TJh5gFx3wS9tRvtVmLr03bejTBp/t85QoUZ/q6G8NtaG2CBCAQOsioO/v9B2CXP7pe4dnnnnG3nvvPVuwYIGtWrXKPwNpxiNHjvTfZej7jKlTp6Z9pzFgwAD/XcfufmSpvwPl/k8hn0VV8PJvYdYv8MoaFQUhAAEIQAACEIAABCAAAQi0aQLRWrNbAfXryGHlPVqDb5CgSgKOjRs3+gWrUaMitxty9/fcK2vdMmtCUJVcbw2RxN4vfKfej2wFVL5Gom6o89q8tV5QpbyuXbt6az36AqV79+6pDojlHQGdqBJU6Yvz4M5R7v5koaq2sLoiWvCJ5x/U/hB7Z9eb3uJUPD0eP6TjUfFDH19dEYmzVlQs84IqJUooJOtOEuzJdV4uBH0xNGjQIPvwww9N1qPGjRuX/LJRbhIlgLrxxhv9ApnGq4UyCaAkcLruuuvs4osv9gIqueP7xje+4a1IDR482A4//HD75je/mTZFCaiC5RrNXxY09P7ExVRq/0tf+pITvqTcJ27YsMGPTY1prBpzU4Zbb73VN/+FL3yhKbvxbeuKpk2X1LD3GYnjxBUvKbAKl95gtUqXM1837EPlRH0d+jaSFRPHoeGwTxT07bq0kBzGpYTQp4rmfggzCCONH1f5BfXULFUmCKSieJQXoIU2Iho6Z6MQ8kPb4TiUz829P2diQ50x81UngLo2+dnUqCMx1RVOTCURQKX7zGvOui+HihKFusPkmVKeyCtI1LkirU197v/rymudNcj2dvhhch2oEDhGR7n6Wp1XNOeIxT5Du9vDvz3HLv/F0zZ3waq0KUgwpe2h5xampdd2MHF0P7v+sqNs5F7dEw9agU/ieaiFeDXn9bA2No2Zrme7r3/96/bDH/6w1mYXLlxo99xzj33605+utUw+ZEioc6gTr8x65SVbvXq1/fFPt9qpp55uI4aPtHH9j7Afnfwv+58XvmpvL38xOZ1B3cY4Ecwmf9zdiRUOO3R6Mq81RHRtGzN6X781xnxeePFZ+9iJpDZv2WKDu4+1uR8+lWx27IBD7GtH/M5bBlOihG3/fOgB/2za1Yk5pkye6q6JHZPlczly5HEn1Xt4d/zlvlrq/KyW9MZL/ssfb2u8xpqxJae7JdRBoHevvrb/fhPs9Tfn2BP/esyJ3bvZyBGj7GsH32YjexxoT7wfPcMfO+oLduI+kWWqhYve92XVtOqqjXwMB02a0qjD3llWYS+8ucrmL93oto9t9YbtVuEeOSqcEF4/Oit3m56BdKxQ5B78JDIvdqJUCVN1XOQeVfr26GhjBnd3W6kdtn8/a+9+mKAwZ87rft9UL839fHLFbel/1zbVvBqr3dbGvz5c9H3ChAkT/Fafeiqr7yi+853v2He/+93dVm0toipNEl67fatrZMLLLNv70Wuz53h+2ZavDntP64f2li+v+cPZkMceAhCAAAQgAAEIQAACEIBAUxHwLv+0fByWVV00rPrVq8+PP/7YLxrqV2ASaCjMeG2dW5Rw7m/07Z02v4DrvsTTT3b9FqVLDBX9kw0gfcmndJVJ1PN1VT+ku3Iu32+uvK+TKDv37Q2uXBRk8lthd79Ii0rymusEJKbSF10SyelLD4Wl5Yttp3PFV1vYXrXd1lekW2uQ5anjOp1q7QoyC6AmtD/IxrbbP61JnZvLy5f6tJUxa1bBFUrc4lNaxRY6kEhJYi9ZknnllVfSRnH88ce7BdhTk2kSkwQR1OOPP24XXXSRN6f/+c9/3rm3+sgzlzjrzjvvtNdfT/8iXQJKLWZq8UNiKsW1qT29R9pOO+00U5/xMHv2bD82jVFjbU1BZ6a3BpW4dBX465K78uny5TIKlOnOJ3lXLXKbzmn3ktxHXlejcopri657UTnfnl8QSdRRG4kyajvEo1iijkuN2koMTuNwUV1q1XpuhsS8Y4OrqIjEixIw6tzW9T+kRcK+qI4sTqmMxI4qo1mqfM20qJzSVT+UTXWZu3RSY9SX5hqn5qnN7A+3/62GmOrHV3/LjjlqmrNOt922bZObxF3ROeesWZWX7/RpusaKnSxclZeXubTtXihQWVnuRVVqQ5/vEMTsul/+Phy6fdR/LCEno9V5RYOsckx2eA4Derazv/7kZPvPCyZbu5L6Pw6pzrcunOLbUFtbt27z517ENn5O5QevnHwTqw3qnHPOsb333rtaavrhr3/9awtWVNNz8utIgp1Dph1m/fsNsB07d9g99/7NXnjxef957u6sJ11x7D120bSfWf9uo/x24r5ftk0JQZUsKBF2TyAw2rJls50w9svWr+sIG+BYfn7qT+07x92bFFPJStO9993tr5F6L/Se5IuYavcEyG1MAv5PWXepz3bfmH3nU1uDBw9xFu/28dexBx78u61cFS2USkD1i5Ne81sQUylPZfT8rDqqS4gI/OSuN+ynf3vDHpixxBY4UdUG9x3Mpm27bOuOctvuLG+WlVdauVNYJf708HGlKU9lVFZ1VFdtqC21SYBAvhM4/fTT7corr6xzGrqufP/73/ffe9RZuBUXgFf93lx41Y8XpSEAAQhAAAIQgAAEIAABCOQrAb+6lxRTRav5kRqqnjMKC1XBOpWqP/6CvhDVN8nxRUQtb4fjsHfFqpVRKR8S6TXqJKsmI2rE5r0buR1UXYk1ZKVHLioI+U1AIgCFuHu4hbtqd/cXZvvU9kft7C7nh0O/H1ky2s7vOtBm75xpa5zlqV1Vu6x3UV8npBpvg4uHpZXVwWs7X7INlet8+sryZcl8ibvWrFmT5kIvmdmCEQmaZFVKVjkWLVpkixcvtmHDhiVHJEtNsm7x8ssve9GTyitIACXrUbfddps/1i86JUqJxCtVdtNNN9k111xj8+fP99vMmTO99asgcFM7cTGVTO5XtwoVxqQONMbQt++wiV6qj6GJukk2qyuSFzS5a1elzEC5lbRCx1Y/CA/XWpWp1IGLJHY+osudK+rLqkw8z+tmXJoSfbor4Jr0QWV14H5g7i1PxS+neneV7zeNyZWrcIUrQyFfWQ3kUtCgkrP3twcJn3btKnPpVf7Xxu3alfjzU0KgkpJiL+rTuajzdfv27f587ty5o9sXJdK2uXjk4lLlJMbasWOnFx/JSlr79h2cGFiCoZwEUuubE50zgVeln1MoXORMDXzrsi/aIVMnOoZR3scfb/CsevXq4XnoM75u3Tonlip0luR6uc9kxDVKKzIJk/U5PfzQA+2/Lv+KXXvdTZ6n+ujVS5Yf85uX5qHPhARkW7ZsdZyq3HWtm335rP1t6n697fu/f8nmLdpQ8xFFFWNBn9v9R/a0n3xjuo0d0dsLqTZu3OzvD3KRVlpa6lyCScjbsrya+3oYQ9RkUQn9vvWtb3kLjLV1ssVZHPr9739vV1xxRW1F8ia9pLjEDjpwir2/8F1b4FyxSdyzYsVyO/WU07zbuaP3Od+0hbB583s+KuEzYfcEAiOdL6UdxtjP/y1l7Us1db956OEHbOGihf4eM2b0WBs1MuXmfPet507uM48/kjuDyWIk+WqJIDxmZTHFNl9k9D5jbZt7dlu2bKn97e6/2CknnebceI1K47Jw4fv20CMPepHyoEGDTXUIKQLvL4+sEaZS9jzWFG3WNqrW+HxS21xzMb218//Upz7lse/Ooml4X+QqWt+D5LP7vzCXhu7hVT9y8KofL0pDAAIQgAAEIAABCEAAAhDIJwJaT9ZqtV/b05q/P4jW+eotqNICpIQYalQiCQVZZHl6phNUubwaYigVqPEtc2KRMZFeo05yDTIZUSNqKdW+O1znzNt/uHyrDRnY2YYMGeLHJEs6hPwloPNr586d/r2UNSQFnR8LyxbUOall5R/a6ztfNVmeigdZqpre8bh4Usb4+sq1NnP7s8m8rVVbbXPlRutaWOrdSOqcl3gj10L//v1t1apVTiCwxZ566inTL+eCq0SJI7SoLNcKDz74oB+60sRZQXstUEtkorg2iVTee+897zIpiKBURpsYKPiLii4sbpNlKn0xG8oqX+KzZ5+NWHbp0sU0xlYXHIoSt0mWU+QUUI6qj0vo5EPCz55IS+gkQZS3HpVgqAuxz3N7b9XK57sXBeW5zGRTLklldeyrS3GlhESJ4NJP+fq8qK6Cs8UUFXMDKHGdhK6j3Fx4TQw0GqUbUIE7j7c5wcBaJ6CqcBbROlqPHsVOqFJuK1euc+OvtN69uztXlR3dIlu5s6y2xoljtlq/fj1Mgqoy5wIlpA0Y0MvPV+KsJUtWb9N43QAAQABJREFUekFWiXNl0r17Fy8oKirq4PID4VxgUfcYgtWzUPJbl3/JrvvFLY7NWjv2qOk21N2TJRzbsmWHc9fyrptnuY0ZM8yJp3o6Tjtt5sy3be3aNc6NxnAvqNq2rSyZdsABe7vPsKw8brfnn3/dSoo62kXnn2szXn7VXxMu+eqFodu82VfnpfNL59Hs2e+4+8wuJ8Tu5RdRxGvF4iX21ZP62JBhk2xTWQd77e2V9uzLi2zh8i2uTLFNGtPP9h3Ry6ksNluXoq027eDRNnJY9yQv3Rs6d25nw4YNcFYDi/1WWJiy8pU30PJgoNOmTbNjjjnGnnzyyVpHe9ddd9m//du/2ejRo2stk08ZEvKUlvawOXNf9e7n/njHbXbm6We5a1/6vTX8qCBYX8qnOTb3WAMjWaiqHlavXmX3/+M+5978Y28FdNLEg6xP75Q74+rlOYaALFMRsicwYX8n/nZ/byxfsczuvf9uLxzdd9/9fANvv/2WvTp7lo8PHDDIVJaQTuD0Q4fazQ/V/WOj9Fq7P1KbBAi0FgISvehvwJ/+9Ke7nZK++/jBD37gre6fccYZuy3bmjPhVb93F17140VpCEAAAhCAAAQgAAEIQAAC+ULAG53xg3Vrx8nl40hkVW9BlUQb+nJCLtA6dOjgm33vg822fuOOFI+wmp9MSSyaJ9ITS/wuN6SHgmFxXcdRPFk2mRUi0X72vLVeUCXXg7IKIXeEWlCSRSFC/hHQuSUrKnIRF9xJrq9Ya9uqIqtVdc3oxe1P2ZCS4daj0C181yM4B2P2xNZ/OgFKRVqtFRXLvKBKwgud71o0lwstjS+XwtixY72bPo3tscceszPPPNNbptEYJXT64he/6EWHN998sx+/0vUFYgiaXxBUxYVRIS4xVTyovBh86UtfquHmT243n3jiieT7qLG1yuAWgraV7bDN7lpVXFxoxU5JVSxFimOj4K1MubiOUqQlanIpLkFpElppr81XS6Qnr9M61oHbkhoqf+hruFiirt8rLRFcVFapKtwKX2VFlZXJLI/ttMri3F/xW736Yxs2rL/jUWjvvrvEXde7+Ou5RFWbNm1y52k0B1mq6t+/py1dmnBp5+YcTxNnbevWbXLioe6+nbffXuSENGVOIFPuNrWjdyBJOwEvd3f6yPrzxJ8xZhPH72sXfOYzNm3aWPc5L7aHHnrOhg7tZwMHDnT3QVl/WOasckWWvjp16mATJ+5tM2ZsjaxOucY6dUylyWqVBEDvvrvIxo4d5tu5554n7T++8f+c8Kifs17V24ERs/zlpfd73rwP7MgjJ9XKq31JlU114qmp+w+0T35ilOM111nO6OPcDQ1z51cHW7d+s0+rjdemTVvd+drFiQG7JFjlD6/cPfNrjuzyyy+35557zj+P1sx1Z6q75mkRTWJif83NVCjP0iToOeyQ6TZ7zite6PO/d95hRx95tE2adGByjps2Rz8q6OCsLRB2TyAw2hSzbKvnoDlzX7Onn3nSP8OUlna3AydNdiLeTrtvjNw2T6AqKOPbPInsAOjviwMmHeSezbrb/AVvewFVEFGpBV23x4ze10aOSLdclV3ruVfq1TmRQKyxRjbUPWJMGNrOXl+yq1GaVFtDu6y2V+es9u0VWeu6h7z9oJ5h8ygMrl0wnkezaPGhnn/++X4M2Yiqrr76aps8ebK3et/iA2+hAcCrfuDzlVd970f1LV+d4p7WH9hvSPUmOYYABCAAAQhAAAIQgAAEINBkBIIWwq/qack9sbynqFaT6xVknUoh7o7ttXnO9Z5WesMWJAJa+HabFsD95hZjnf2bVLm08lqolXwqKhPEHak2lR+1pzZD+tx5azQcH/r16+f3ElUR8pOAXKwoBFcsiq90oqZsQ5kTRt216VZ7w1mqyjYsL19qd25yVl4qlteoEnf7JxGhQi5aqZK4acyYMU4kUOgtVUlUFVwnhkkdf/zx9rvf/c5b9ghik7BXvbAFa1Tah7RQTnulyTqI2lKb8RDEVBJeqpzGlGvis/h4GxoXBwVdsYrFyYl/tDk67l/0au5YV9sqt4vKS1xV6K5izlWdqqsNt1Ul9mpPxyobRFQhTzWdFCv6F+r4o0Q7Lh7153pXe07cVeD4m3OBJ2GSH5vEOL64XnM3yPKU5iBxVIUTg0UCKt2uoq2iwske3RYPle5YQsz0EJVXexK/KLRv365G3dBuet3cPNJbWz1s3brDza/AiZzbO7Gkc/BYKTaJ+6m7V8p1YuQ+UTUTTJzwUpasoqA0Be2dSNBZspJFJgWJgiTSTIWoTFQ2lZqrMXjl6juz5+OShdQLL7xwtw3NmjXLnnnmmd2WybdMCXsOmXqYsxA7xF3Lyu2JJx+3//3zH53b3/ede99V9sEHi/yUunUrzbepNft4A6N3nStFsRNDsXziX4/5+4kYizViqmZ/a/Kywyp3663PlpeTbIJBSzClz9nQIcOsg3PHrE1xpbUWMVUTYPPP8+dO7eJFVXvavsRUaivDI+aeNk19CLQ4AYlevv3tb9c5Dv298+qr2X9/VGeDeVoAXvV74+BVP16UhgAEIAABCEAAAhCAAAQgkOsEpE3Sd2RJY09+wFoXNau3haog0ujbt69vQC9z33GCKi3GSiDlY9Hep0UJPj157I+qlQ1V/KJurFKizUQDsUlEFZ5/dUXIsr333tsWLFjgfrm/MemOMJmZQ5GSYcNafDS5MIZMEMLifXwBa0V59oIqtSlR1dPbH7P3yt6xIzueYL2KMrtp2e6sXs3a8YJzE/hK8qyrPqbFZe/bER2P9clyo7d27VrvkrB6uVw4llW2UaNGOQsz77rFwdX2j3/8w4477jjnIi31q9w+ffrYpZde6i1YPfTQQ6YF5yCSjEQ/+hgnP4yROMdNTnk9evSwKVOm2CmnnOKs1wytMWX1+a9//csLupSpsTS3pThZI1GQC8KmDoWV5Va1dZOVOcs/kjuVOwFTkePkRRz+iqtUXfWcO0Al6kDpPi8xOrFOZEX5rr4v516Cy0CXH6WpTtSI2vRpPiVqUK/x4CU1zmJChbPUIsMJlds3WlG36qKjeI2WimtOCpqBLJ+VJEVPctGnYwWhCpuszxQVKUFpUX3NM0qIyvlK7kXCLLkPVJ6sXHXr1ikpsPLlfb+hdG7vo9Mlmm840bp27eStblVVbXcL/+2dsCqypBKJksXCnZuy+lfi+MR4SWgWJURlAkcJs3bskIiqyn2Wt7t7qdziFbvu1K8YS5yWGIOL5XJo67ya83rYEueBrvP333+/s0K3rtbuZZXgiCOOcJ/5dCuLtVbIgwzNZcL+k6xv73729vx5tmLlCu8yKwy9f78B7t4buUwOaexrEhAjsVq5aoXd/qfo2UGlOnbsZPuNHecsIA6oWSkPU4487qS8GvVf/nhbXo03DNY/goSDNrJfuOh9W7zkA/dDk+ysCGeLZcmHi03bngZ9locNHZ4TwqyDJk3Z0+lkrH/gxCr72d1v2FNzUt+HZCxYS+LRkwbYt84d734Ek/5XxJw5r9dSo3GSm/v5ZN/T1jbOwJupldbGv5mw1dpNtpaE9F0HwQxe9TsL8o1Xtvej12bP8SCyLV+d2p7WD+0tX74yRNlDAAIQgAAEIAABCEAAAhBocgJpxjzSvi5zxlXq27ss0CjIpVAIb85f7xZtE4vZSkyutSYjycSkqiuZFSKJfWJxPLSdLJ9qVKu/Ids+Wr7Z5ry11ibt19uPSUIcuYWSMCdXLeMUDxtm2gg1Ccjln0K3bqnFwPpYqIq3+FH5h/bnzTdb+4L21rdogPVzWzsXX12xwla5bXPlpnjxjPENletd+ZWufn/r0qWLP6d27tzpBR+5uEArwZTC+++/74VNDz74oB111FE2fPjwtPlJEHXxxRfbV7/6VS/AmjNnjhdhrV+/Prk4LQGZLNFJPDlp0iTbZ599vLAqraHEwcKFC+3ZZ5/1wg1ZppKYKowlU/l8T5P4pGu7Quu5eamtaO/EpU6xVFDgLCH5C6x/iWQ6boFCZZ1Myv1Lv5pJpOZdxLji0ltJr6Irm7ZIsqJ2gho2IuavfO7F67O0V3Jc3+LSEjosL6RSr7KIJetVwzd9aJ17dYvGowZyLmh2Ve5862ErV37sxzlwYG/vanPNmo1e3CMLTGVuk0hq06ZtzsXrVleu0LZtL7M+fdu5tK0ubZtLK3Dx7U4E2N169Sq15cvXOuHgFnfcxX2OO/r6KQTqNz+CH3MYrr8PVtq4cSOcu8/F/pp00EFj3BxL7e23P7QVK9Y7t3+7bOuWXd6130cfrXULn6ucBasiW7tum+23X2f76KPVLm2NSyt08fXOtd1w9zkfYq+8ssAWLVrpjgd4t4odnWvAILiMRFXwao288uNdTY1S9+RvfvObduWVV6YSq8U++ugjmzt3rh144IHVcvL/cMCAge562c9ZpVpoK1evND2f9+/f38aO3i//J9dMMxi//0QrcaLdlStXelfm/fv2d89LI1uVAK+ZULb5bvyfwW2IgsRU78x/K6dnLKFXGGNrtXYlIZQEUfrj4am59RNVHT0xs5gqp99UBgeBBhKoS/QyduxY50J9WgNbb33V4FW/9xRe9eNFaQhAAAIQgAAEIAABCEAAArlKQPqGELQEG60jR2v19RJUSZkll2wSkgT3epu3ltnipU6Y4hd5w0qvuoviSQlBMitEEnu/KByGp1rV8n1TIS1VLh574IklXlCltL322ssLRNasWWODBg2KFyOe4wQkPJGgSueXFkoVdlXttPUVe/ar0p2ujaXli/3WEAQLds2zvh37+6oSeslKlSy1Nbf1pWzHLiFThw4dbP78+V5Y+MQTT9iIESPsoIMOsu7du6c1I5HE6NGj/ZaWkeWBrFvNnj3biS8W+RrB9WBLsWkOy1SaqLh1duLNg7uts21LX7TVXYdYVQfnLqPYWfKRgMlfstxLUMA4gY+XMDnVVFIiJb9/hdFxQbgy+72rrvKurBdZuWK+rnsNVoSit0epifqhYDh2OZVqy1nRKtyx1fpsXmJT+7nPlXNbmRLGRK207Gv1a3uV++x3cFvkvjWMrU+fUifQi0SWld6lXYG3NNWtm9xwOjexzjSE5tWtSyfr1tWlOTSRyFcWqgqdRTW1F/Wl+1jql/hKi+iGvnJ5rzmlj7bKWVjp7jbn3stnRPPZd+wQ23fsYD/n8nKJVAvcvbG32yS4dG4BK8ocgyIbNKCX7TXICQLd+eO5unOmU8cSmz59f19XzOQuUC4TIwtVLrnaCJSSq6Gt82qu62FLvv+nnXaa3XXXXfbWW7Uv7AdXwi05zqbqW89Lo0bt47em6qM1t6tnFln7mqBLXisNzzz+SF7NLF8tEdz/xc15xXlPB/vh0sW+ieOPO9EmjJ+YY8+WegasstffmGuPPf5/prG2VkGV3gQ90377UxOse9f2dv/z0fvi35zdvPzb4cPsyyePce/bbgo1YVZbeD5pQnx73HRb5V+b6GXIkCF2ww03uL8ZI6vIewy4lTQAr/q9kfCqHy9KQwACEIAABCAAAQhAAAIQyEUCWmeOVlkTa/r+IEqpl6AquPuTqCSotPRF3A1XT42WqtWmiyV27svMaAk7EgGkp/tyvmCihsqG4xBRa4k02b/yIZEQ0tVqz27tQ663ohNcnuWSoCqwSw40hyK5MrZgnap9+9T7qVP29C6fjN76wCy8+YnjxJkVcsMZGDsO0cTJFA7dvu66VdaxoGOyRnD7J0sQLSUaSg5mNxGNbcKECfbOO+94S1USPC1evNj060tZm4q7VNxNM7Vmaf6y+qH25X5NQSI4tZ+rluFqnUwDM/Slqyz1Ta9aZsvXv207tkS2e9JFT1Hj8fWKmmdhJFGpkR4SXOVQP5bkGw7HOlCZcOzLu4uztLQdnKergX27+bHm/hfFYQaaUYjHZ+bcJ3qFsMvz2dG55+frrgv6F93mJAAK9cJebZoXB6WIKiX0o3i+Bc3fz95NIz6PEHdmKJ3Iz8/R5wdeso7mhGh+umJWlOKqtNCWa1rWwFIiPNXQluhTZfMqwCuv3q4sBqvrwRVXXGHnnXdextJy3zJx4sSMeSRCAAIQaCiBTp06u+frzbZw4fvuRwljGtSM6iqoLQIE9oSAHnm/csoY692tg93yyPzkY1z1NlXuiyeNsbOPGFY9i2MItAkCEr0MGDDAbrzxRm+de/r06Xb55Zd7q9xtAkA9Jwmv+gGDV/14URoCEIAABCAAAQhAAAIQgECuEaixvu+XQvVST5d/QXgjUUkIXTqV2NGHDAiHLb6XwEFiEY1Voo/OziJLLoRly5blwjByegxy06jQsWNKwFRS0M6GFo/MmXEHt38aqwRguSxQ8ZYXnKhKrmyWLl3qrVXJiocsV0lsOGzYMNMvMrMVV+nztGTJEvvwww9N53PwJap+Bg8e7F0N5cwb1QwDkchE5+pQx3BA/12eRxCXNUP3WXUhsYEsmOg9ylmhmxfvuBuSvzFpWpHMJzXBasf+MJGWEP6kl3BHSq+1vVTL+RbzVqK8hS4nldOqmA/ps6/BzzOKhFTexaSrky4kdXnyE5mpvTjGRG+Z+0zLzJkDeOXMW9GkA5Fg6uyzz7Z77703rR8tmP3mN7/JmefAtMFxAAEI5DWBgQMG2bvvzbd/PHj/Hs9DbeVbGDJ4mHenJwtQ2nI5aKwtHY487qRmG0Jhz9FWvNdR7hcE7dL7rHB/u370tN3ww9/YDek5NY5++dNra6Tlc0Jz8m8MTq2Nf2Mwacw2PvGJT5g2QnYE4JUdp1Aq13llez38zLmn+yllWz7MP+z3tH5o5y9/vC1E2UMAAhCAAAQgAAEIQAACEGhyAkFQFa2hJqxUJXqtl4UqCSoU5FKsvLzcx1OWK/xh2ks8L8TDPq1gIx/E3f7liqCqkafYKpsLFqr0noWTdncTbY5zKVP/we2fPg/VXehlKt/Saf3797e+fft6EVQQQkkUpU0MlVdaWuqFVRJXyV2g+O/cudMLEyVO3Lhxo/8VZ/x9kVBHwixtwWJdS8+1JfrPabFSSwBpUJ8SQamihD21NJAQT8V/dl9dSuRr+sRgiai29kLN2jqrZQwtnJzSiUkEpcHEhVXxwblM5x5QIYiofLyGWM2l+qYqrMC5jInaU8lqXAL7pOhKZXI/wCv336PGGuF3vvMdfz9++OGHTVYuzzzzTPvsZz/r72eN1QftQAACEAgERo3c2wnpy23Jh4uTfxOHvGz3siA5dMgwU1v5FoILvcVLPrDt27fl5PA7duxkw4YOb9Xu/jKBr1y/wMo+XmQFvfa1ot7jfJGKtfOsat3b7plQbqAJEIAABCAAAQhAAAIQgAAEIAABCEAAAhCAwO4IJJdDEwuNBfPmzQsry7ur5/NcWS+sqLNgIxSoj1imelmJPrRJ6DB58uRGGA1NNAeB1atX244dO5qjq5gLq7q7C+dXXEykuBZCZAEj5NfdUsuXkGhtw4YNtn79er+vr0UlCafkQqlnz55+n2sWum699VYP+Qtf+ELLw2YEtRKQVYdcDfvs3TDXPU05n4ceeaApm9+jtk85Kfr16h410siV4RUB5XrYyCcWzUEgDwl85sKL8mrUWCLIq7erzQ521apVbXbumSber1+/TMm1pu3p8wn809E2N//03jmCAAQgAAEIQAACEIAABCAAAQhAAAKtg4B0H0dMP8rrP9INyRRYvSxUSUixffv2GtaD4kKT2sQl8TIBa6a0eP1M+ZnSQnthrza0yUqBysfbDGXY5x4BWUaS4CfT+5XN+64ZZVuuIbOPj0vx9A9TQ1ps/joSQMkilTaJqWR5atOmTd4aldwYhk0jC5aXtNdnSZa5ZMkqH+fd/KTpcXcEOnfqYlu3bdldkRbJ69QpN1zEVp983z79bPWa3Fu86927b/Wh5sQxvHLibWAQEIAABCAAAQhAAAIQgAAEIAABCEAAAhCAAAQgAAEIQAACEMgLAsF/j5MXOb2KhqwXpzWqj4WqvJgpg4QABCAAAQhAAAIQgAAEIAABCEAAAo1MAAtJ6UDrayEpvXb9j+Cfzqy5+af3zhEEIAABCEAAAhCAAAQgAAEIQAACEGgdBGSU5vAjjowsVBUURlqqxNTcEQECEIAABCAAAQhAAAIQgAAEIAABCEAAAhCAAAQgAAEIQAACEIAABCAAAQhAAAIQgEDbISDPXskQGaZKHiKoSqIgAgEIQAACEIAABCAAAQhAAAIQgAAEIAABCEAAAhCAAAQgAAEIQAACEIAABCAAAQi0BQJFRUWpaTqXf97bX/RiCKpSaIhBAAIQgAAEIAABCEAAAhCAAAQgAAEIQAACEIAABCAAAQhAAAIQgAAEIAABCEAAAm2AQJqFKjffKomqzL8gqGoD7z9ThECbIXDrrbeaNgIEIACBtk6A62FbPwOYPwQgAAEIQCD3CPB80rLvCfxblj+9QwACEIAABCAAAQhAAAIQgAAEIJDrBOTvL2GgKhHDQpUHwQsEIAABCEAAAhCAAAQgAAEIQAACEIAABCAAAQhAAAIQgAAEIAABCEAAAhCAAAQg0JYIRFKqyCpVat5VVjBv3rzqqal8YhCAAAQgAAEIQAACEIAABCAAAQhAAAK2atUqKMQI9OvXL3bU9FH4pzNubv7pvXMEAQhAAAIQgAAEIAABCEAAAhCAAARaB4GSkhI7/Igjrbi42AoKCt2WmhcWqlIsiEEAAhCAAAQgAAEIQAACEIAABCAAAQhAAAIQgAAEIAABCEAAAhCAAAQgAAEIQAACbYBAZWVlcpZBS1WVMEuFoCqJhggEIAABCEAAAhCAAAQgAAEIQAACEIAABCAAAQhAAAIQgAAEIAABCEAAAhCAAAQg0BYIFBUV1ZhmsFKFoKoGGhIgAAEIQAACEIAABCAAAQhAAAIQgAAEIAABCEAAAhCAAAQgAAEIQAACEIAABCAAgdZMIG6hKjnPhIWq4mQCEQhAAAIQgAAEIAABCEAAAhCAAAQgAIGMBPr165cxncTmIQD/5uFMLxCAAAQgAAEIQAACEIAABCAAAQhAoC0RKCwMdqgKTDoq7/Yv4fsv5LQlHswVAhCAAAQgAAEIQAACEIAABCAAAQhAAAIQgAAEIAABCEAAAhCAAAQgAAEIQAACEGjDBFIWqiSnclvCOpWQIKhqwycGU4cABCAAAQhAAAIQgAAEIAABCEAAAhCAAAQgAAEIQAACEIAABCAAAQhAAAIQgEDbJiCzVG5LWKcSCwRVbfuMYPYQgAAEIAABCEAAAhCAAAQgAAEIQAACEIAABCAAAQhAAAIQgAAEIAABCEAAAhBocwQKClIKquoxBFVt7nRgwhCAAAQgAAEIQAACEIAABCAAAQhAAAIQgAAEIAABCEAAAhCAAAQgAAEIQAACEGjbBOIu/7y3v+RLARaq2vapwewhAAEIQAACEIAABCAAAQhAAAIQgAAEIAABCEAAAhCAAAQgAAEIQAACEIAABCDQ9ggUFRUlJ52yUKWkKgRVSTJEIAABCEAAAhCAAAQgAAEIQAACEIAABCAAAQhAAAIQgAAEIAABCEAAAhCAAAQgAIE2QaCqypmkcluB++eNU8VUVbj8axOnAJOEAAQgAAEIQAACEIAABCAAAQhAAAIQgAAEIAABCEAAAhCAAAQgAAEIQAACEIAABAIBL6gqkJjKiapiYipzAqvieKHFixfbokWLbOPGjZbyExhKsIcABCAAAQhAAAIQgAAEIAABCEAAAhCAAAQgAAEIQAACEIAABCAAAQhAAAIQgAAEmopAYWGhlZaW2ogRI2zYsGFO6JOm9Gmqbtt8uxJXedYyVeWQe0HVunXr7MUXX7Rdu3a1eUAAgAAEIAABCEAAAhCAAAQgAAEIQAACEIAABCAAAQhAAAIQgAAEIAABCEAAAhCAQEsQkAGkDRs22OzZs+3NN9+0Qw891Hr16tUSQ2lTfSaFa16/VmXFUljNmDHDi6lKSkrsrLPO8io3xZs7/OlPd/ouSy/o3Nxd0x8EIAABCEAAAhCAAAQgAAEIQAACEIAABCAAAQhAAAIQgAAEIAABCEAAAhDIOwJn2Bl5N2YGXDuBsrIy713uvvvu81oeGUg67bTTaq9AToMJJEVUrgUnn/IhGAQrlJu/nTt3mgRUF198sY0ePdrHG9wbFSEAAQhAAAIQgAAEIAABCEAAAhCAAAQgAAEIQAACEIAABCAAAQhAAAIQgAAEIACBehOQfkfaHWl4FJe3OWl7CI1PQNbAQpBhqiCmks+/wkWLFvk8WaaSD0YCBCAAAQhAAAIQgAAEIAABCEAAAhCAAAQgAAEIQAACEIAABCAAAQhAAAIQgAAEINByBKThkZZHYeHChS03kFbcc1FRkZtdZJrKvyasVCmtcOPGjX7qI0aMaMUImBoEIAABCEAAAhCAAAQgAAEIQAACEIAABCAAAQhAAAIQgAAEIAABCEAAAhCAAATyh0DQ8gRtT/6MPD9GWuX9/Mk2Vc1QHMxXyUzY7kL5lkdt2+prrKpyfaKYk2X5hiXPqvL/ItVWenpBUS/r1PeHVtL1pN01Tx4EIAABCEAAAhCAAAQgAAEIQAACEIAABCAAAQhAAAIQgAAEIAABCEAAAhCAwB4QWL9+vb08a6atWrXSysvLa7TkDfA4rYf/5+UdLpbQfvh9SFOJEE/kFxcX2157DbbDDz3CevbsVaPteMK2neX2weqttmlbmVX6TuO52cV9t9WKpppKxFIJbsQ1QzItGUmVCUlFhWalnUpsZP8u1rl9capADsSClidoe3JgSK1qCBUVFcn5eFlVTFvlTovswrY1P0yIqdwpVeV8CGqzSndCRpviVuU60maprap8lW1f853sOqEUBCAAAQhAAAIQgAAEIAABCEAAAhCAAAQgAAEIQAACEIAABCAAAQhAAAIQgEC9CUhM9c+HHrBlyz6qIaaSeEiCqSqn9ah0+0qncpJIR8d+c8dVSttN/q5du5zrufftzrv+bOvXr6t1fBJTvbFko328tWFiKgmpqoup/Ph9j4lYKsELqXQYD8nsZCSVm0qKYhUVVbZ+8y57bdEG2+rGTmg7BAoLU7IpnQ3xkMqJp2aIV5WvSQqmqpxgKmxJEZUXUkUiq0hclRJdVZatzNAiSRCAAAQgAAEIQAACEIAABCAAAQhAAAIQgAAEIAABCEAAAhCAAAQgAAEIQAACjUFAlqnKynalNeUlQ3sopJIQywutnABLIqydO3fYcy88m9ZP/ECWqSoaYJaquYVUcSWWOJU7YdWilVviUyHeygkUFDiTVHH1XlJVVWBZ2yqTgMq1Em2+sUQ8pGmfId1pGNM7byTYT9zyhJXvKreRB420fQ7ep5FapRkIQAACEIAABCAAAQhAAAIQgAAEIAABCEAAAhCAAAQgAAEIQAACEIAABCCQfwTk5i8EKTqk4fD/vGzDxRKajrpc+yXzVVttJLaoyeh48QeLdZgxyM1ffYIfVrUKfvw+LRFLJUiFUiMk05KRVJFUUiKWSqjR1oYt9Rt7qhdi+UjAn+sSVVmB+xcPVdkLqiKrUzqrMmze/V8q3X18Moir4h3vefyWr99iZTvK7IzLz0BQtec4aQECEIAABCAAAQhAAAIQgAAEIAABCEAAAhCAAAQgAAEIQAACEIAABCAAgTwmUF5eHgmEJIDSPyfdmDhhohUVFtsrs1+OBFVezpHKT4mlVF6Z+h/FdTz14GlWVFRszzuLVKmyZjt37aiVVLbGqdRd9ZBKSsRSCRpajZBMS0ZSRVJJiVgqIWNbqlme7eBT3RDLYwL+nPfj11mfLqvK2kKVd+3nq6sJt/kzOxFPpPvmM6Q7R5s5hW/dR+vskRsf8WM64jNH2ND9h9YYXzZlalQiAQIQgAAEIAABCEAAAhCAAAQgAAEIQAACEIAABCAAAQhAAAIQgAAEIAABCLQAAS94cvoNyTYUl5jq4CnT/Eik55g16yXlJvMjMYmOVUH/o7hvx6VNm3qIHXrI4cmZPPvc08n4nkTUXfWQSkrEUgkaWo2QTEtGUkVSSYlYKiFjW6qZaUypFom1BQJJG1U6X5y5quwFVXL5588g1Uxt+kBlSvdl0srnDt41S9bY/T+53w9o6LihGQVV2ZTJnRkxEghAAAIQgAAEIAABCEAAAhCAAAQgAAEIQAACEIAABCAAAQhAAAIQgAAE2jKBSqfRCGIoaTYqKpzOIxEmHzTFyzhmvjzDl9FBbUIqVakuppL1qz0NmURLUp9EIRFLJXhlSsgN+2R2MmLWo0uJ7TOwqxU4120LV2yx1ZsS1rNiZWLR0JTfZxpTWgEO7PLLL0+jcP3116cd5/OBzpmuXTpZ+/btrbCwMDkVpWcvqKru1q/asf/k7U5cleyWCAQgAAEIQAACEIAABCAAAQhAAAIQgAAEIAABCEAAAhCAAAQgAAEIQAACEIBAYxKorJT3sJRQau7cOV40ddihR/huJk+eolybMfMFL/FQPAiwvLhKtZ3C6JBph6ZZpnrhxeftxRnPN3iomURLKYFTIpZKcKOqGZJpyUiqzOiB3ax9SSSG2XdwN+uxoZ29t2KzeYFZqlhaLNOYVEBMCG2LgMRT4XOgeDhOyavq5FHhThu3VUWbmT6IsU0CKy+yiqfFy9fZwR4XKNtRZoteW2TbNm7b47Ya2oAgr/pglS2cvdA2r9vc0GaoBwEIQAACEIAABCAAAQhAAAIQgAAEIAABCEAAAhCAAAQgAAEIQAACEIAABLImUOU0G1WVThLktkoXl6DotTmv2fMvPJtsY8rkg+2QqYdF+U6AJRFWEJMo3phiKomWqguXJFeKJEuJWCrBp0d5yeGm0mLlQm5ICmKqkD6gRwc7cGQP69S+KCQl95nGpEwvLkuMLFmYSKsnEMRTmqjiCvo8KGRtoUpCqui0Dqek2/tGYsfhVHbpkWovnuf7a5KX9195327/j9vtvVnvWdnOMj/JwfsNthO+coKdePGJyT6f/tPTdsMXbrDKCom+ovDL835pv77g1/7gsr9cZru276qzzKHnHurL33LJLfboTY9aj/497Pcf/N4e+MUDdt+196UJukZPG20XXnehjTl0TKJHdhCAAAQgAAEIQAACEIAABCAAAQhAAAIQgAAEIAABCEAAAhCAAAQgAAEIQKBxCXgxldQaXs6hfaTZmP3aq76jww+b7vdTphzsBVUvvPicLxMEVYcdenijWKby3VabmkYShUQslZBRxpTMTkZC/Ui5ktZWKisZ69y+2ImqejpLVVtsxYbtkbwlmZuKRNqW1HHGwcSyibYuApFVt5SYKsxO4qqsBVWRNSp3pnorVDpjq20ZRVQqH8qFbht3v3LhSvvhKT+0jas3JhvWh/3DeR/azV+72QoKC+yEfz/B51WUV6SJqUKFILBSfjZlQr2Ksqi9sl1ldtOXb7Inb38yZCX3C2YusGtOusZ+9vLPbNCYQcl0IhCAAAQgAAEIQAACEIAABCAAAQhAAAIQgAAEIAABCEAAAhCAAAQgAAEIQKCxCHgXd9JuJHQafi/Zhvv3yquzfDdBVDX14Gn++Nnnnvb7xhJTVZ+LFCNRSMTcrnvndrb3wC7WoaSmBalQujH2RU4vMmZQV+vWqdjeXe5cAKZs73gmaX2kBpqWXN+DGTNftDVr1tSrWp8+fbxlsHpVonCjECgqqnkOBqtV2QuqMlmocqeYBFORYk9nV2JLE101yhxqbeSlv79kJR1K7PM//7yN/8R469C5g816YJbdeeWd3tqURFXTz5tuHbt2tMM+dZjtN30/b8nql5/9pW/zgp9dYAefebCP9xzY019Y6ipTfTCb1mzyYqqB+wy0k752ko0/Zryt/mC1zbxvpk/ftmmbXXvGtV5U1am0U/XqHEMAAhCAAAQgAAEIQAACEIAABCAAAQhAAAIQgAAEIAABCEAAAhCAAAQgAIE9IhBZ20kIqiTn0L+EwEr7l2e95Dx+FZrEUwoSVZWXl/v4oYdEaTp44cXn7cUZz/v0hr5IPRKFRCyVYPsM7GrV3fSF0k2xH9ijo5V2amdvLvnYtu6M5pvsJzauWDSZXd/IPnuPtrvu+outWr0qq6q9e/e2q773g6zKUqjxCQQLVeFzEu8he0GVxVz+ZRJRSUzl0pOiqngvTRiXMuzyv11uU06bkuzltMtO867//vydP3vfoIteW+SFVBJbDRg1wDauSlmzkohKafGQTZl4ecW79Ohi3/u/71m/Ef181uB9B9uBJx/o7IKZPXnbk7ZswTJ75MZH7OzvnF29KscQgAAEIAABCEAAAhCAAAQgAAEIQAACEIAABCAAAQhAAAIQgAAEIAABCEBgjwhUyfiNpBvVhFRqNAhGJJSqqCi36Ucc5fsK4qrQceOJqRLypMTOjyHRSXOKqcK8Orcvssmjetobizfa+q07I2lLIjM2xFC8wfsgkPrB1VfVKaoKZfv1jXQmDe60kSpefvnlWbVUW7nrr78+q/q5WEjaI20hKF4YDurcOwtVVWHz4ioJrNwmy1VhM9lHa8xTrc5ReTd6cTFVqHHYJw8LUVs4e2Ey3lSRC6+/MCmmivfx5Ru/bKV9S32ShF0ECEAAAhCAAAQgAAEIQAACEIAABCAAAQhAAAIQgAAEIAABCEAAAhCAAAQg0NgEJJqqdKIqWd3RFkRU8WP1+dLLMy24+ouPoTHEVFF7Tjci6UhCPhKLxrtr9rhcAI7dq2uTjysboVQ2ZZodUBvtUOIpfVZCCMdZC6rcx87VjW1e2RiOUw2HDpprv/fkvTN21Xtw72T65vWbk/Gmiow5dEzGpuWOcPjE4T5v0RwEVRkhkQgBCEAAAhCAAAQgAAEIQAACEIAABCAAAQhAAAIQgAAEIAABCEAAAhCAwB4RiAunvLgqJqyq3nBxcU2HZpnSqtfL6ng3QqqWU5ekRq4xZBqHNDUxXU2qQgNiuxNM7S6vAV1RZQ8ISDw1cOBAGz58uI0YMcJGjhzpt1GjRtXDQlUOWKPKxCBYf6qeV1RSZAVOXdgcQaKp6m4D4/0OGTfEH65atMq2bdwWzyIOAQhAAAIQgAAEIAABCEAAAhCAAAQgAAEIQAACEIAABCAAAQhAAAIQgAAE9phAbRapqjcsN3+HHnJ49WSbevC0pCvAGpn1SMgkWEqmZVIy1aPtPSlaUVll73y0qUYTjSmkijeeSTiVKS1eh3jzEpAIUaKqsKl3pSnUlBz65AwvcutHaBABgSdAAAIQgAAEIAABCEAAAhCAAAQgAAEIQAACEIAABCAAAQhAAAIQgAAEIACBpiIgIUjcdVmmfqqLqeTmr6KiPCmkkqhKIZNLwEzt1ZWW1E8lI2Y7yyqtfUnWDtXq6iKr/K07yu2NJRtt687yZPnGskaVbDBDJAiofnD1VVZRWWFXfe8H1q9vvwwlWz7p+uuvzziIyy+/PC29tnJphfLkoKioyD53wYU2ZMhg69ixozlplRW6NMl8shdU5clkW2KYZTvKbMX7K2zQ6EEZu/9w3oc+vd/wftaptFPGMiRCAAIQgAAEIAABCEAAAhCAAAQgAAEIQAACEIAABCAAAQhAAAIQgAAEIACBhhJoiJjqxRnPJ7ubfsRRPt4YoqqkfioZSXZjC5ZtstGDujWbqGr5+u22YPlmJ2iKBrM7IVVVRmeAqbE3JCZR1ff++ypftU+fvg1pgjpNRCCyRlVllRWySlXg332lFRYWIqgq21VWJ/ZsysyfMT+joEpiq0VzFvk+hk8aXmdfFIAABCAAAQhAAAIQgAAEIAABCEAAAhCAAAQgAAEIQAACEIAABCAAAQhAAAKNSSCTZaq4mOqll2f67uKiqvLycouXyXY8XraUQUgVktZv3WUz311rce1SyKveR23ip7jw6Zj9M1t8qnQCqvdWbLGl67b5ZmtrS5m+vdoGUX1QDThGSNUAaM1QRcIpnYeyVOXMu1lBYYEVu3hFRYU1rw21ZphsNl0Ut0sZ5nrv5fcyVsmmTLziHy//o61evDqe5OO3XHKLbVy90cdHTBpRI58ECEAAAhCAAAQgAAEIQAACEIAABCAAAQhAAAIQgAAEIAABCEAAAhCAAAQg0FQEZHHq0EMOTzYvN3+ZhFISVcVd/VUXYSUbqCtSTZikwygpEUsl+PQoL71RiZ8yCaAkfIqLqRINp1d2R3LtN+v99V5MVVtbquRb8wVqNEFCGyDgLVQ5934VzipVZZVcZrq4xFROVJVSFrUBEGGKfYelTKjNvG+mDRw90MYdOc4G7j3QOnTp4ItlUya0p/2W9Vvs6hOvtpMvOdnGHz3eVi9ZbTPvnWlP/OEJX2zAqAF24sUnxqsQhwAEIAABCEAAAhCAAAQgAAEIQAACEIAABCAAAQhAAAIQgAAEIAABCEAAAk1GQGKqYHVKndQmpgoDqG6pSqIqhUwCrFCntn1KKJWIpRJq00FlFFGp/TQRVZSQ7HZneaW1L07ZE5KLv/ly8VcR6zBZOor49mrPrlaaw9ZMoMC5+pOlqoICt7mJykqVhFZtUlDVrU8322/6fvbWs2/ZprWb7PbLbvfv/Tfv/KYd8ZkjfDybMuGE6da7m004doI9f9fzdvPFN4fk5L5j1452xQNXWJceXZJpRCAAAQhAAAIQgAAEIAABCEAAAhCAAAQgAAEIQAACEIAABCAAAQhAAAIQgEBTEaivmCqMY09FVSmdUiKWSmhUIVVo9q0PN9qYvbpakRPEvL9yi0lQVVtASFUbmbaZXlDgJFTRfyeoiiypSVxVXl7ROIKqkq4ne7Jlmx9uNsLyX1jm/hUWpVSG1TvXJCsqnSku+TysFiSeeuD6B+yZ/33GNq/b7HM9qFi5bMpEFc0uuf0SG7LfEPv7z/5u2zZF/jeVN2ryKLvw+gtt8L6DYy0ThQAEIAABCEAAAhCAAAQgAAEIQAACEIAABCAAAQhAAAIQgAAEIAABCEAAAk1HoLg4ZWOnLstU1UdRXVQVb6t62ZrHzSOkCv2u37LLZsxfV6t1K5VDSBVo1X9//fXX179SntTwLv/c6Vru3PxFar+qSEzlPjupT08DJ1Pc4QDrstdfXe1C27z4aCvf/nIDW6pftbu23FVnhXvL7q21TK9BveyiX15kF1x3gW3f7NSJDlCXnukWpLIpEzooaV9iZ3/3bDvrirNs5aKVvs2eA3ta937dQxH2EIAABCAAAQhAAAIQgAAEIAABCEAAAhCAAAQgAAEIQAACEIAABCAAAQhAoFkISESlUOX0EA1x2SdRVVFRsbfcE9rKauAJPZXvu5YKGlOmsDvXfrVUQUiVCSRpWRGQMSeFQufmz/v7c/Fil1ZeXr5ngqrCkmHWZejDzn9gJETqMuQftmnRNKssW6z+8iIUFRfV6YovmzJhsvKlOGDUgHDIHgIQgAAEIAABCEAAAhCAAAQgAAEIQAACEIAABCAAAQhAAAIQgAAEIAABCDQ5gXbt2tmuXbvS+qmXECqtZnRQmxCrffv2GUpHSUVON1FemVn+lOtCquIiJ6whtBkCVe6EDJ7vdG7Ks11FZaX3hFfTF16WWAqKSq3rkAetsLh/sobiXYc+YgVFPZNpRCAAAQhAAAIQgAAEIAABCEAAAhCAAAQgAAEIQAACEIAABCAAAQhAAAIQgAAEmpbA0KHDmraDWOvDh42IHaVHu3dul57gjiRWySSmkkWqNKtU0mEltFixaFp7tbWlQr41XyCtStYHvbvWLhTLuhEK5g0BCapkparCufwrLIwkVEpTPGtBVWHJoNSEC9pb18EPWFGH/VNpiVhR+7Eu734n20qdZGl1a9QgAQIQgAAEIAABCEAAAhCAAAQgAAEIQAACEIAABCAAAQhAAAIQgAAEIAABCEBgTwgcecRR1r59hz1pIqu6HTt2tKOP+kStZUf072yyUqVQm/gp14RUGmtJcaHtM6irooS2RMAp9woKCr2oyhmocudspOgrzpZB5wG/s63Lv+yLdxp4oxV3nl5rVeV1GfxX27b8Yl9GdVtjmHDsBCtuX2ydSzu3xukxJwhAAAIQgAAEIAABCEAAAhCAAAQgAAEIQAACEIAABCAAAQhAAAIQgAAE8oRAz5697HPnXWDPPveMLVmy2Hbu2tmoI2/frr0NHz7Ci6m6dq1deNTZ6SgOHNnDFq3cYuu3lDkXapFARYNJs0YVJSTHmCqVTPKRhL4lPTFx5NurrWLGGjUT5eZPlqkkpupQUlSzACmtmoA/fdxJJktVCsVOWFdRXm7FMlNV6fz/lZWVWUlJSa0QSrqeYt1HL6s1v3pGu65nWLvRZ1RPblXH086aZtoIEIAABCAAAQhAAAIQgAAEIAABCEAAAhCAAAQgAAEIQAACEIAABCAAAQhAoKUJSFR15hlntfQwTKKq/Yd2b/Fx5PsApOVRCO7o8n0+uTb+AmeSqlBmqVyQdkom1fyR0ktLS33GokWL/J4XCEAAAhCAAAQgAAEIQAACEIAABCAAAQhAAAIQgAAEIAABCEAAAhCAAAQgAAEIQKBlCQQtT9D2tOxoWl/vElFVVjkhlQRUziBVgd8KrNhZqyocMWKEn/F9991nGzdubH2zZ0YQgAAEIAABCEAAAhCAAAQgAAEIQAACEIAABCAAAQhAAAIQgAAEIAABCEAAAhDIIwLS8EjLozBy5Mg8Gnn+DFVu/qqcS8rCwgJnoarCGahyFqoKnMs/J7QqHDZsmLVr1867/LvxxhttwYIFPt4S07vggs9a6QWdW6Jr+oQABCAAAQhAAAIQgAAEIAABCEAAAhCAAAQgAAEIQAACEIAABCAAAQhAAAIQgECLEpCbP2l3pOFRXJoeaXsIjU9AAiqJqioqKlzjBTJUlYi7o3nz5lWtW7fOXnzxRdu1a1fj906LEIAABCAAAQhAAAIQgAAEIAABCEAAAhCAAAQgAAEIQAACEIAABCAAAQhAAAIQgEC9CEhMddhhh1nPnj3rVY/C2RGQm7+XXp5lgwYNtC6du1hhUaGzVBVZrCpWE7169bJTTz3VFi9ebPK/KLNh8hNIgAAEIAABCEAAAhCAAAQgAAEIQAACEIAABCAAAQhAAAIQgAAEIAABCEAAAhCAAASah4BEPqWlpd7NH5apmpa5WBc4s1T6Jzd/Va674uJi7/rPC6rUvQoMHz7cb007HFqHAAQgAAEIQAACEIAABCAAAQhAAAIQgAAEIAABCEAAAhCAAAQgAAEIQAACEIAABCDQcgSklSovL7eChLCqqqrSu/yTqCopqGq54dEzBCAAAQhAAAIQgAAEIAABCEAAAhCAAAQgAAEIQAACEIAABCAAAQhAAAIQgAAEIACB5iNQVRW595OwSpszR2VFzu1fRUWFFTbfMOgJAhCAAAQgAAEIQAACEIAABCAAAQhAAAIQgAAEIAABCEAAAhCAAAQgAAEIQAACEIBAyxOIBFVOQOWsVFVWViQGJGGVIahK0GAHAQhAAAIQgAAEIAABCEAAAhCAAAQgAAEIQAACEIAABCAAAQhAAAIQgAAEIAABCLQhAhJVFRQ6y1SFRd5KlXcB6KxVFa9Zs6YNYWCqEIAABCAAAQhAAAIQgAAEIAABCEAAAhCAAAQgAAEIQAACEIAABCAAAQhAAAIQgEBbJ9CuXTvn5C9y9VflYBQ4cVVRYaEXVuHyr62fHcwfAhCAAAQgAAEIQAACEIAABCAAAQhAAAIQgAAEIAABCEAAAhCAAAQgAAEIQAACbZGAs0YlK1UVFZHLvwInqKqqrLTiOXPmtEUczBkCEIAABCAAAQhAAAIQgAAEIAABCEAAAhCAAAQgAAEIQAACEIAABCAAAQhAAAIQaKMELrzwQpu/4F0/+0IJqVys0ompFIo/97nP+QgvEIAABCAAAQhAAAIQgAAEIAABCEAAAhCAAAQgAAEIQAACEIAABCAAAQhAAAIQgAAEWjOBWbNm+ekF8VSBs1JVVFQUWaly1qokrsLlX2s+A5gbBCAAAQhAAAIQgAAEIAABCEAAAhCAAAQgAAEIQAACEIAABCAAAQhAAAIQgAAEIJAkMGXKFB8vLi5OplVWVliRhFROWFXpRFWpnGQRIhCAAAQgAAEIQAACEIAABCAAAQhAAAIQgAAEIAABCEAAAhCAAAQgAAEIQAACEIAABFovAW+hyomntHc7q3CiqoLCAj9hBFWt931nZhCAAAQgAAEIQAACEIAABCAAAQhAAAIQgAAEIAABCEAAAhCAAAQgAAEIQAACEIBABgJVTkUV3P1pb+6/hFVy/4egKgMwkmoSePPNN33i/vvvXzOTFAg0EwHOw2YCXa0buFcD0kiHcG0kkDSTkQDnV0YsJOYYAc7THHtDGE6bJMDnsE2+7XVOmvOiTkQUgAAEIAABCEAAAhCAAAQgAAEIQAACEMhjAuH7L01BIqoC5+avqqrSxysrq6zQHcv9X2Eez5GhQwACEIAABCAAAQhAAAIQgAAEIAABCEAAAhCAAAQgAAEIQAACEIAABCAAAQhAAAIQqDcBCaoqKsojl3/O7Z+Oq/y+EAtV9aZJhSYnIN+U99xzjy1ZssQ++clP2tChQ5u8TzpoWwR27dpl7dq1a1uTZraNQoDrU6NgzKtG3nvvPXv99df9w9MZZ5zhzXvm1QQYbIMI8L43CFuLVeK+3mLo6RgCrYpAPj7nLVy40P/tvPfee9tZZ53Vqt6P+GTef/99e/vtt23p0qXWsWNHO++88/h7Lg6IOAQgAAEIQAACEIAABCAAAQhAAAIQgECDCeh7wcLCIm+Vyi0I+nYqnHWqYmelKmuXf7feequtWLHCunTpYpdcckmdC4qzZs2yxx9/3Hd26aWX+noNngEV84rAddddZzt37qz3mE844QQ76KCDbMaMGfbLX/7S1//ggw/spptuqndbVIBAnMCHH35ojzzyiC1YsMBvGzZssL322svGjh1r48aNszPPPNNKSkriVYjvAYFwv8jURPfu3a1Pnz42cuRIO+CAA6IbU6aCOZrWktcncb3llls8mVNOOSWNUIcOHWz8+PE2ceJE69u3b1oeB3tG4KWXXrIbb7zRN3LyySfX+fyzZ721XO3wuZWI+fzzz2+5geRIz23lfc8R3PUeBvf1eiNrUAXuOw3C1uorhftFponynJeJStOmXX311f7vG/UyfPhw/3zdtD1mbj2cF03xHPGHP/zBtMXDOeecg6AqDoQ4BCAAAQhAAAIQgAAEIAABCEAAAhCAQIMJyL1fVVWVN65g5vbuX2GRpFRV2QuqnnnmGdOv9RW6detmF110kY/X9qJfED700EM++0tf+hKCqtpAtcJ0ve8NEVTpV7USVMmEWgjxeEhjD4H6EHjxxRftqquusi1btqRV06+btUn4+dhjj9m1116LECWNUMMP4veL3bXSr18/+/SnP+0t0eXKZ/3hhx/21vF69Ojhx1Z9/PFxxuPVyzXFsbiGEO6v4Vj7e++91x9OmjTJfv7zn1unTp3i2c0Sr4tfswyCThpEIHxu999//1YvqFq9enXy83L88cd7gWeDoFGpRQhwX28+7Plw3xEN7j3Nd06op3C/qKtXnvPqIlR3fjb3q/jzaDxed+uNWyKcF439HPHKK68kxVSan35AIOFY+/btG3cCtAYBCEAAAhCAAAQgAAEIQAACEIAABCDQZgnIQpXEU5UV2jt3f+41slpVDwtVcXr69eG0adO8dZd4OnEIiMCUKVNsx44daTDKysps7ty5Pk3WUzK58RswYIDP17l12WWXmawP6JenBAg0lICsUl1zzTVeUao2Jk+ebPvuu6+3kLR48WJvDW358uX21ltv2QUXXGB/+9vfvGC0of1RL52A3HHIAlgIcsm0Zs0aW7VqlfNDW+H3v/rVr+zVV1/175PKt3SQuE4WFmXBTGKv6iFXrk8aRwhiqfNYViQVnzNnjn3961+3X//619a5c+dQrFn2dfFrlkHQCTJtXRgAAEAASURBVATqILBy5Uq74447fClZy9NGyA8C3Ndb7n3K1fuOiHDvaZnzgue8pueezf3qe9/7nhcJjxo1yiSqb21Bf6eFoGdbfddAgAAEIAABCEAAAhCAAAQgAAEIQAACEIBAYxKQhSqpqIqKitzeWagqLLBiF9e6a9Yu/+IDUsXvf//7fjGKXwbGyRAXAbn8qx62bdtmRx99tE+Wa7+vfvWr1Yskj3XCnnvuucljIhBoCAFdp/7nf/7Hi6natWtnWmz4xCc+kdaUhH8/+clP7NFHHzW5AZS1qrPPPjutDAcNJ6CFnd/+9rc1Gli/fr3985//tJtvvtnfiF544QV/3dB7lOshF65P+uV/cIsa5/XRRx/ZT3/6U9Mv+efNm+fP///8z/+MFyEOAQhAIG8JcF9vubeO+07Lsc/lnnnOy413Z8SIEfatb30rNwbTBKNYuHChb1VW0g888MAm6IEmIQABCEAAAhCAAAQgAAEIQAACEIAABNo6Abn7c4aprMJZqqqsqrTCqkhMVehEVU5q1bCwZMmSjAvl9W1NprJkseTtt9/2Foka4iquvn1SvnURWLdunXdHKes3mYJcJSxYsMBqy89URwIwua2Um8vqruIylSct9wjIWs/atWv9wKZOnVpDTKWMDh062Le//W3r2rWrL/d///d/fp/ppaWvVeXl5f48/uCDDzINz7Zv327K06KDFp2zDZqXLEbFf/2dbd2GluvZs6e3CPbd73436eJTVkfkxml3oaGfS7HT51mCI39D3F0njZyn96W5gqxqSVAlFzsKs2fPrrNr3X8lvqrtOhfOq/nz55uEcI3Nb0/aj38mJYisT9iTfuvTT1sr29DPaJyTrFPqWqbPbTZB56SeA/Qcqft9UwdZC5GFw8b+LDT1uFtD+9zXs3sX4/d1na/1eSbIrodUqfrcd+LXbH3OG/I3X133rNTIiLUkgbb2nPfOO+/4H2Zky1yfBT2T6tlUVpybK+Tas0+29/vAqFevXtEvBHcDrDGuM7tpniwIQAACEIAABCAAAQhAAAIQgAAEIACBVkygwCmqZFijoMBtbp6yUqXvm+ptoUrum7RgtmjRIm9a/rDDDjOJFeob9OX+7bffbn//+9/9QlioX1xcbNOnT7evfOUrNnjw4JDMvg0R0AJLsGZ18cUX22c+8xk/ey2Yn3LKKT4uqytdunSx2267zZ+LSpQJtjPPPNMuueQSk0WiYAEniGpKSkps9OjR9t///d8ZXQ6qDX0h/rvf/c5efvllHSaDfg377//+72nuy5KZRHKSwNatW5PjGjJkSDJePSJ3JbL2owX5TC7nGnqt+o//+A976aWXbL/99vOWmKr3q+NvfOMb3t3dxIkT7cYbb0wWuf766/21UQtSf/7zn+0HP/iBvfbaa96VpsQyDzzwQLKshC6///3vfV9hgV+WA/fee28766yz7MQTT0yWjUc0rz/+8Y/+Oh7EKBpvc4aTTjrJcw9z1/3g0EMPrTGEhn4u5UrwpptuShNcSkQ3fvx4/0t+LQSHIFbxhWctdIWx6Py56667fNFsr09ybfqHP/zBi+DqEoqFMTTGvlOnTl48eOedd3rRh0RQOo+qXz/V11/+8hcvZFb8yiuvTF5fdSxxiiyI6VoYziulDxo0yD71qU/VcMeaLT+1oVDf9qNa0avO3T/96U923333pT0/6LOhz9Kll15qPXr0iFdJxvek32QjRGoQaMhnNH6d03spa4G6BumcVdA9/cgjjzRdS3UOZwpPPPGE3XLLLcnzWGV69+7t79dHHHGEySKmwje/+U1vfVDCzR/96EdpApOrrrrKrr76al9O19rqlgyVoc/Ab37zG3vyySe9AFVpEuLqWnLFFVf4PpVGaFoC3Nfrf1/XO1JaWuqfj7/4xS/WKUZoyDtY230ntNWQ56hs71n1vfeEMbFvHgJt5TlP57hCnz59/LN9pvuI8vVDnV/84hf+GSgICvX3qSxM6dkq/sxen/uVLPLquU/PuLpPVQ8t/ezT0Pv9cccdZ7ruB74SW4dnc1mriv8QpiHXmeqcOIYABCAAAQhAAAIQgAAEIAABCEAAAhBo4wScisoLqdyLs1flxVXl5Q1w+Sehiiy6XHTRRf4XlT/84Q/9F3j6sr4+QVY0HnzwwRpVZJFAXwTKWooWo7UwRmhbBLRwGb44DXsRkAIwHM+dO9eeeuqpNKtTyrv33ntt8+bNNnLkSO/uKk5Ov26VJRaJtLQAO2DAgHi2yera17/+dV8/LcMdyNKLFmRVb9iwYdWzOc5BAjoHJCzSgsXTTz9tn/70p02/bM4UJBStLTT0WqXzUdvurKwoL1OZUFcuCSV0kQu3TEELCxIQ6pyPB81Z57q2d99915fxvl9jhX7+85/b/fffH0tpmej5559vd999t7dUKPGO5hIshmlEDf1cqs1f//rXyWuG5q9riJjOmjXL1K/ckx500EF+4ro+iHs8hOP4e5jN9en111/316ewWBZvszniEnOFoF//S4wSv35KtPL888/XmG+oIytnuhZmslq1bNky07kjYfUFF1wQqvjngcArJIbjOD/lNaT90Kb2et/+8Y9/xJN8XJbWHnvsMdP9QWX22WeftDJ72m9aYxwkCTT0M6rzQ5usR8qNtO7p8aA8PQ/KwqTEf3r+jAdd1+UmNC74U75E1Ndcc42dd955yXM8nIPhmhtvR/FwrupzkilITCXBZzzoWiWxpK7BEmLX9zk43hbx7AhwX2/YfX3jxo1eQP3xxx/bf/3Xf2UHu56lMt13QhMNeY7K9p6V7b07jIV98xNoS895sqCm53aJgE4//fQ02BJI/fjHP67xd4HOYd3nJOiVlcXwbFWf+1W4n4Z7XbzjbJ59zjnnnHiVRo+H8dX3fr+7z7fy4qEh15l4feIQgAAEIAABCEAAAhCAAAQgAAEIQAACbZuAXx9yKqpyrRVLTeVeyiWmcsag6m2hStVl+eTLX/6y3XDDDX7hSlYFrr32WmVlFWT1Ioipxo4da2eccYa3KiGLIM8995y3viJLIRKwaJGqc+fOWbVLobZD4NFHH/WWUmQ1SueQfvGrBXRZGdKCekFBgbdQIlGALEjoC2pZ8dFCuxZbVebCCy9MAtMv4S+77DIv5tAHQ3nB8prEB7KmpsVTlbn11ltrtX6SbJBIixPQ+yhrNRLpSATyhS98wT73uc/ZUUcdlfX719LXKp1zElNpHvqVdlwgokUbWeJRGYmFtBhy+OGHezGSzllZaNM1VZaVJBg75phjku+JxAlBTLX//vv7urLe1lJhzJgxXlClxRGJM4LAraGfSwmZ9Gt9LeAMHDjQ5FpwwoQJ/vogIZGsA8jtiUS7QVAlsaT6/74TdkiIpsVhtaFQXchRFyf9Yl7iCt3DJk2aVFfxRs9funSpb1MWfuLnTOjomWee8WLDz372s56LBGyyPKUgUZLOK4mpVF9CxGnTpvnPjCx+Saim80qWvyR4Pvnkk329bPk1tH3fiXuRVcIgpho1apS3wnbAAQd4kZaeH3RvUB+yOhSsiqnunvYb+mefTqChn9F4KxJ7SEx17LHH2qmnnupFyxKL/upXv/Ku/3S+3XPPPabzNQRZ29BnVWIqfT5lyVLnqawM6pr517/+1Vv3C+XDXtdRnS+qLzGWwte+9jVvCUtxWRfJFCSmmjJlip177rn+M6VnVFnWk3hSY73jjju8sCpTXdIajwD39frf1yWq1nX7zTff9NdOWf+Nf5Ya692p7b7TGM9Ru7tnZXvvaax50k7DCLSF5zwJpmRVVs+e+v5CFhL1ww4FCYl0z5DgSWm67+i5VPewmTNn+h8E6e9T1ZO1ZVlfauj9Kv4OZfvsE6/TlPH63u/1HCdmEkvp3q5nVf1YQkH3gxAa4zoT2mIPAQhAAAIQgAAEIAABCEAAAhCAAAQg0DYJhO+bCp2bP2+mymEoduuk+n4q9U1UPdlo8WrGjBneDZWsBOhLRJn1rytI8KIF0f/P3lUAWlF04eGBAhJS0qnSpYQoiiglUoISBiEgIUgIooKKooCIgaJ0C0goklJS+iMiioQSSkqjIAqoKPWfb96bfXP37d7Y3RvvvXPgvt2dnfx2dmZ25ptzINAQhAUztau/SJEiUo07FnGx2A+SDI7Y2crCCOgIgACAuqPMQmKCFYv7TzzxhPQGggk0SoD8B8F9aFXBYi00q2AxVReQpEC6gQwYMMCnLoPcgbhBHDx27Jic9IbZFJbYRwDmHbt16ybNQWEBfPjw4bIegDyE51q1alW5CK8aSb1EsdJWgQAGbSvmPKIdxUIJBPUeWgOVoHz3kKksEMhALoLmNkWogjktkGEhIKRgYQLmeqIpIEWC6ARRJjpx7vS9hAYqaKKC4PnDZCcEJuGaN28uF7CwQAviJfzBRAruQRQWIGnoJgHlzSD/YLEMpC2Ye4y0gGgHwigEZCpVHj0fyB/aRyzmmQXkUcQB0U2u4homaUBaad++vSRcwYQLzNOgvQ0WP6fxI328k1g0g6BNRhmUKTiMH2AqFnnBeAQkF2gWVM/eTboyQf5jiYDTd9QcGcwjQTsHnh8EhEa8QyAwgegIk6c6CQQmH5UGOGhNVcQ+hEW9R9veuXNnox2AOwTvOt5rZVYQbiBRBXrX8a6gvityJfIHU7FY+MYCMUweskQGAe7XQ+vX0Tai3ca4Fe0iyLAgYKu67MVTs+t3vBpH+euzgu17vCgnx+EcgdQwzsMmH/QHIH2DbIz3DUQyyN69eyVZuChpOYaZSmXaHvcwZkcdx3gcBCts/oHJWqf9FeJUEuzYR/mPxDGU/j5v3rwyS2pzndXY3Kt2JhJl5zQYAUaAEWAEGAFGgBFgBBgBRoARYAQYAUaAEWAEYhcBaTXhymW5TkXTdHIN+TJZNcG6VfzKlYO8IzA0QGTOnFmGBlkFhIVAoi86YRFMkan0cNDqgcVSyO7du/VbfM4ISASwOKTIVAqSMmXKGOQBTE4rMpW6j8lYEEggMIOlC0xMQrAIa0UMhBY1xAnR67B04D8xiwDaEWgZguYTLFZAsHMchDpobOjXr59o1KiRXLiHKRxd9OcczbYKRCkzmQr5VKRALNaA4GIWLKK++uqrUjMX6rUSlEuZtUL5rQg3ym+kjjDjpASLUEqcvpeKlIF4QMw1CxaToSkAxDIsWHkt0IATaTIVtB9AywG0HkBrGeTOO++0LBq071mRqeBZ1XsQDkGcNgva3a5du0pnaPmCRrFQxE38qs4jPbyTikylp4/xAwiG0EgHcrYSN+mqOPiYFAGn76g5JmhC099b3AfpXr1HivCswqnnWa1aNR8ylboPUhXqgFdiRUBB21m9enWZBMw1sUQGAe7XQ+/X8a0GcjEEu2lA7vBCAvU76j1FWm7GUf76LC/KwXGEH4HUMs4DWUgJtCsqwTcqxp346WQqdV//9oRWOa9EvYPBjOm8SjNQPKH294HiU2WEPzftTKB0+D4jwAgwAowAI8AIMAKMACPACDACjAAjwAgwAoxAykYAmx2xrggegVqvghvO07kpOnYFY0EexKq//vpLahfARKFKxCpufdJLLZSZ/V1zzTWSvAJNJbp/sz++Tr0IqB2/OgKodyBNQQNVsWLF9FvGuTLngxdACbRfqHp29uxZaSJO3dOPSqMFk/x0VGL/HIuv0PAEksnq1aulJiQQMxRxB0QqkKtgSgIEm5w5c8pCqTqBi2i1VViwVyRAHWksYu7bt086wWQfNC1ZSc2aNQV+uujlQtlhElEJyAnREPVuIW21C93NewlM0I8gDmiywW5/mE6BtiIQzezw8qrsdvXFq/hhuunBBx80osMCOfpLRZTDDZia0bWWGZ7pxI5Mpdcrf2XQ76E+2bW3epo4dxu/TqiyKwO0FypNhSp9t+mqePjoi4Cbd1SPCe+qlWlK+IEmKAjGmEqgjQJmfCF6XVT31RHmfr0SLIZbidKOg/xhkK2T+Kz8s5s3CHC/Hny/rhDX+1kQAO3qtPJvPjrpd/Txht27Gsw3n117b84jX8cuAnr9S8njPNUn4Eno/Zb5yUDDLPoymFfGTxHh4Q9jOi/EydjHi3T9xRFqf+8vLnXPq3ZGxcdHRoARYAQYAUaAEWAEGAFGgBFgBBgBRoARYAQYgdSJgFw7lpqp4hLWe+KkRnmg4YpQhQjuu+8+sX79evH555+LLVu2iJkzZ/o10acmvbAYgoVPO8FO1q+++kqaWAPJJWvWrHZe2T0VIqC0DdkVPRTCxP79+41osMjUq1cv49rqBIsCmARXxBsrP+wWewigvYGmMfwg0NCwZs0aMWvWLAFNOzDNAVNC0GgFiYW2CvXcqi5j97pacLEiXMkC2PzRCYHYya3Lxo0b9cuInet5Uu+Vm/cS/QVMdPbv31+SeLZt2ybwg0CrEfotmP+ECbtwSPbs2cMRrU+cMD9qJajnKF+fPn1syc127SfeCVWv/JGkgBvqJYipeHa6ZgWrPCk3t/GregJibChjArfpqvzz0RcBN++oHhO052CR1UqszJIdPHjQ8Fq4cGHj3HwC8qRXYqUNDXFb5c+rNDmewAhwvx6PkWobcWXu161QdKoBJ9R+x6txlF2fZVU2dotNBPQ6mpLHef76BJCm8I2xYcMGw2R3OJ9WKGOfcOZDjzvU/l4Pa3fuVTtjFz+7MwKMACPACDACjAAjwAgwAowAI8AIMAKMACPACKQOBLDmSXwqQYufxub5dOmIXEUbIF0TqhDvs88+KzWA/Pbbb2L8+PECphkCiRVJIFAYvs8IhAMBaNnQxW7XPrSjYOexWgjQw/B58kMARCT8YPIPJvP+/PNPAQ0M2NGtL4jEYlulmwDUtRIF8xSgRUWJXV1X9yN11Bfa8ubNK5N1+17C3N38+fPFsmXLJOEXpv+AFQiRINFBK9nAgQMl+ShS5fQyne7du/tEB21m0MyFOu1PS6RPID8XwdZ7Xdufn+iS3HISvypXqHVeT9xJunp4Pk9EwO07mhhTaGcFCxY0AtgRPOBBN7dkBOCTFI0A9+vCr+YpjGPR7yttraFWBqf9TrDtbqj5Yf/JB4HUPs5Df9S7d2+ffglE3WzZsskNZiCHYoNauCQ1vIOpoYzhqh8cLyPACDACjAAjwAgwAowAI8AIMAKMACPACDACjICQiiTiEixCyXVIIlZJ+1Dk5gmhCpOA0OwCzT5YYIMJQGjIsBKYasPOTJCvsFMTYa1EmbPKnz9/SJoorOJiN0bAHwLFixc3bGKCWNOlSxd/3vleMkEApjYuXLggG0A77SIoCtqYZs2aialTp8r2C5obypUrJ7xqq8ykAx0+mPlwItDgB9IXyF8gCoUiJUuWFF9//bWs82PHjvUhj4USj1d+oRlMtffQfFSgQAEZtRfvJciPrVu3lj9g/d1334lPP/1UbNq0SaprHDRokCQAX3/99V4VJyLxgDjVpk0bz9MCGQFkPWip0rUPmRPCM1NEqtKlS5tv2167jR9pQXMlNASCGOfvvdYz4TZdPS4+T0TAi3c0Mbbgz0BsxrNHHdDNQJpj2LFjh9mJr5M5AtyvWz/ASPTrTvodr8ZR1qVm1+SCAI/zhFi0aJFBpnr44YelSWZd0ybGXXfddZenjzSUsQ/e1eQq3M4k1yfH+WYEGAFGgBFgBBgBRoARYAQYAUaAEWAEGAFGILYQAInqytUrYFZJxRVYB00Tl0akjUsr4rzK6m233SZatWolo8NC7JgxYyyj1hdf7Ra7QECA6TWI7t8yQnZkBFwiAFMiyvSXMhvgMkoOHgMIjBo1SjRs2FCadjt+/LjfHEE7lZKMGTPKU73tcdJWKbIoyKNWAk1Rhw8ftroV0A3msbBQAtm+fbvUvGQVaPPmzVIT04IFC4zbqlxI36nZHyMylycnT56URFxlZq5+/fpGjF6/lzAzcs8994iRI0eKtm3bynTQOW7dutVIUz9RedLdUvo5SHog60Hs6jzu/fjjjzhIUfVJXaujFX5u49c1qikTjio9dfz333/Fxx9/LObMmSPNesLdbboqbj76IuD1O+obu/8rtfgLgt26deuSeEbbOmnSpCTuVg7+SK9W/tkteghwvy5ErPfreu3Q+we7PsXrbz6rvkfPE59HFgEe58Xj/c0338gTkIGh6U0nU+GG3ZgmPnTi31D6Kydjn8SUks9ZNNqZ5IMO55QRYAQYAUaAEWAEGAFGgBFgBBgBRoARYAQYAUYgWASgcOLqlatEpkpD6+6XpWKJNGnI5B+tJXtGqEJmunXrJooVK+Y3X/qk1xtvvCHOnj2bxP+IESPEqVOnpLtaNFOesFi6dOlSgYlJpSFD3eMjI+AUAVUvN27cKOuXOR6QT2DaEruKe/ToYb7N1zGIgCLn4NlNmDBBaiSyyubRo0fFmjVr5C0QBJQ5KVUncMNJW1WiRAkZ5x9//CFJT/JC+wNNSX///bfmEtqpIpfs3btXls8c+tChQ6Jv377inXfe8anT5nJB40c0BEQzaDX89ddfZfKFCxc2SLkqPyqvob6X77//vtz9jz4J2ozMgrSUZMqUSZ3KozKneOLECcuwPp5T4IXCHKSpjz76KEkJQVSBZjMIyIdFihTx8RMIPzfxYzygTLq8+eabxjhBzwDq+9tvvy0wjoAGIyVu0lVx8DEpAgrXUN/RpDGF5oK+OG3atHIc+Morr8i6Ci0oeG+hCeTpp5+2HF+qVFQ9xbUd0UP55WPsIMD9uvN+He8o3hv8vvjii4g8VNU+IDEn46hQMqne6dTad4eCVaT88jgvEWllqhiEKDMpCiTA2bNnJ3o2nam6DedQ+yv1DgYzpjMlm2wuVRmR4XC3M8kGFM4oI8AIMAKMACPACDACjAAjwAgwAowAI8AIMAKMQMgIYA4P607gFZCaKiiqMrgFnpj8UznCTkiYUOrYsWOSyULlJ1euXAJm1aZMmSKgNaZ3797S3NYtt9wiQGyApgGlTQUaWB588EEVVB5fe+01sWrVKnn+4osvikaNGvnc5wtGwAkCHTp0kKYoQeQbMmSI1BwErWv58uUTBw8eFJMnTzZIMbVr13aSBIeJMAIVKlQQIM6AWAQSJohHaHugjQwmo+AO7UTjxo0TilTUtGlTAVIVxG1bpQhViAsL/s8884w0IwiC1cqVK8X06dNxy7GgLNDOgnYU5gpRBmhgwu7377//XmqmgslDyGOPPWakkzt3bqmh6cMPP5TmAkFqQjtbsWJFw9ye4dnlCQgtK1asMGKBiUIssEED4fr1642OCNqj0Hco7FUAp+8ltCzNnDlTRvPcc89JM56oDyDhwtzh6NGj5T1gdeutt6rk5BHvvJLhw4fL/gkkO0W0U/dS6lHVKzwnaINBfb3jjjtEtmzZpGYUaH5SpipRp+PifHnZgfBzEz+eF0hyyBfqFupu8+bNRdWqVaUpHdSphQsXykcDc3Row5W4SVfFkVqO5vfWqtxoW7GI6fQdtYozFDc82379+olhw4ZJ067QPIefLo0bNxaLFy/WnYxzvZ6uXbtW9hWVKlWSR6Wl0PDMJzGDAPfrc2V9xwMJtl/HOODLL78U06ZNk2FBIq5cuXJEnqnbcVQomdTf6dTYd4eClZd+zf0Fj/Os0b399tvlmPvcuXPi9ddfl+NuENIxHsZ4FSap7USv26H2V6GMfezSj3X3SLYzsY4F548RYAQYAUaAEWAEGAFGgBFgBBgBRoARYAQYAUbAOQIgVF1NCB4Hs39p40hTFVyuCk8JVUgDJILOnTvLBc+ENJMcunTpIjVLYKFr586d8mf2BMLDu+++K8zaQ3744QfDK3ZbMqHKgINPXCCQN29eqdXkySeflFqDQPjDzyzVq1cXjz/+uNmZr2MUAWix6d+/v4AZUpi3w7mdPPTQQ0m0j7lpq0DyqFu3rvj888/FsWPHRJ8+fXySRhsHkx979uzxcQ/2ImfOnLKN7NSpk9TEMnfuXEmiModv1qyZqFGjho8z6jk0Qy1fvlyab1Mm3KDBwksBSfbll1/2GyWIL1hcsiIsOX0v69SpI6ABDOXCD1rlwCqWnSGRqiAgb4HQC3ddatWqJebNmyedoMUDv0KFCkkzcrq/lHqu+l7UfRCnQLzDzyxdu3aVJjXN7oHwcxt/mzZtpBYiPKN9+/ZJbQTmPGBxbcCAAT7ObtP1iSyFXwTz3j7wwAOSUOX0HfUCQhBgoekDfTUW9ZVg3NiuXTu5YG1HqMqePbskU27ZskWSBt977z0Z/NVXXxX16tVTUfExBhHgfl1Iom+w/br+CNHvob8FiTlS4mYcFUoeA/U9ocTFfoNHIJj+gsd5Qs5XfPbZZ7KvwncBfrqo7wXdTZ276a+CHfuotJLrMVLtTHLFh/PNCDACjAAjwAgwAowAI8AIMAKMACPACDACjAAjEBgBWMiRP9JOBTN/WE2G9ngo6/BVLeEnLqWFwrz4bBUEu6Z1rR9WYZ5//nmp2QAaJ3SB33vvvVfAZBMWRc2CxVQsCOAeFvRYkgcCqhIit8pkk13Odb+q3sGv3bkej/JjVefgT7krf3rYkiVLCiyqVqlSRXeW51g0hjYMmBK45pprktxnh9hEALu/sdiOhXeQl8yCugYiD9ojPF/drIby67StQh0bOHCgaNKkiQD5SReQraBNBVp/IOb6qK7VUQ+rn6N8aCuhQUh/r1DPoeEPpBJoaDLHA7/Q8Ne2bVsjD3q8bs/N6enxXX/99QKLazDdBAygNcOKTKXCOHkvoS0RmsdA7sViEgQqGtHpYSEZ+EOrlxVxApo7Bg8e7NOH6djiXF3r5bQ7V+Xw4qjSUO1YKHGqsAijn1vFAQ1fIDRDC5Aqq/IHTQkgBz5uQywNhB/icRM/wiN9PFvze4XxBLS0oU7pJmAQBuI0XYWX/uzjY0xZf1U5gymV7tfJO4o0VBzqaJWuqut2flq0aCG1ks2aNUu2JzBTuWzZMtm26WaVrMKDPAXzZ2iTlOj1XYXx99yVH3VU8fAxfAhwvx56v473CNpV0e/pmvuCeUqqbqt3MZgwZj9OxlEqXcSln5vjVtfB9D3KLx/dI+DvmaTmcZ6Oi/7OoN2CtmPUU4xRlWBOAwTgl156yfhG1cMpf4H6KxVG78NU2GDGPsqv26Mqv8qPik+5q6Ny148qjJUf5ab86OHUuZN2RoXlIyPACDACjAAjwAgwAowAI8AIMAKMACPACDACjAAjgDmoS5cuiTR0xDzb1atX5Noy3NOQibN4dR1RwgmL3DCzdubMGZEhQwYB4gqO/gTmBJB5K/KDv3B8zzkCSjNY+fLlnUeSjEJCM8uJEydkjkHIyJIlSzLKfcrNqtt6ePLkSakRCmbMQOIBscesBc8OPSdtlR4XtFT9/fffso0Lh3YImPxDnUUjj7LpCzZ6PsznKBfMuwGTUqVKmW/La7e4W0bqwNHpewlsgD+eNQhBVgtOVtnB80LniT4pWDyt4rFzixVc7fIHd1WvgAMITPh5iZ+b+PV3Evm64YYb/BXF556bdH0iiuGLaNQvp+9oqDD+8ssvAqaTIGXLlrWsk9C4By10kDFjxviQJKVjwh/UI7zrIFxaEW91v3zuPQJu6yn360mfid6vY7yBfs8fESFpDOFx0dvsYL/5nOQk3H23kzzFehi376FX5XPah8TqOM8KF5B9jxw5IucyChQoENJ8htv+KtSxT6zUCysc7dwi1c7Ypc/ujAAjwAgwAowAI8AIMAKMACPACDACjAAjwAgwAskHATX/9c8//4hq1aqJBQsXiiJFihpcpXTpYP3oavQJVckH0tSdU1WhUguhKnU/7dgtPdfD6Dwbxj08uDOu4cGVY41HICXXr7Fjx0ptOyhphw4dpMYy/bmfPn1adOvWTYB4BSLlypUrY4JQoueRz+MRSMn1lJ8xI5BcEOD3MLk8qcjmk+tFZPHm1BgBRoARYAQYAUaAEWAEGAFGgBFgBBgBRoARYAQii4Ca/1KEqkWLF4v8+fKLjNdlpA2RaeVmyCtk/i9dZLPFqTECjAAjwAgwAowAI8AIMALOEWjZsqWAmb9///1XmlFat26dKFeunNRSBm10a9askfeQQuPGjZlM5RxqDskIMAKMACPACDACjAAjwAgwAowAI8AIMAKMACPACDACjAAjwAgwAoxAikcAlkzSxKURaYlMRaZRpBUjWH9gQlWKf/RcQEaAEWAEGAFGgBFgBFIOAjly5BDvvPOOGDx4sDh+/LjYv3+//OklhGloaKlq3bq17sznjAAjwAgwAowAI8AIMAKMACPACDACjAAjwAgwAowAI8AIMAKMACPACDACjICBQBoiUOEfManEVfwlclVaWmeS7qdOnYIbCyPACDACjAAjwAgwAowAI5BsEIAa1uXLl4t9+/ZJ834XL14URYsWFcWLFxcVK1YUN998c7IpC2eUEWAEGAFGgBFgBBgBRoARYAQYAUaAEWAEGAFGgBFgBBgBRoARYAQYAUYgsghs2rRJ3H777WLhIjL5lz+/yJAhg0hHmqnSpksnrrLJv8g+DE6NEWAEGAFGgBFgBBgBRsAbBDJmzCiaNWvmTWQcCyPACDACjAAjwAgwAowAI8AIMAKMACPACDACjAAjwAgwAowAI8AIMAKMQKpE4AqRpyCwgAKNVMa1dOU/jAAjwAgwAowAI8AIMAKMACPACDACjAAjwAgwAowAI8AIMAKMACPACDACjAAjwAgwAowAI8AIMAKMACPACKQSBBR5Cib+0pJ2qqtk8o/+iDi6jkslGHAxGQFGgBFgBBgBRoARYAQYAUaAEWAEGAFGgBFgBBgBRoARYAQYAUaAEWAEGAFGgBFgBBgBRoARYAQYAUaAEZAIpCPzfkquXLks0pKWqjgiVl0hUlXiHeWDj4wAI8AIMAKMACPACDACjAAjwAgwAowAI8AIMAKMACPACDACjAAjwAgwAowAI8AIMAKMACPACDACjAAjwAikYASkhioiT+EI5VSXiVSVJi6NLHG6Czn3pOCic9EYAUaAEWAEGAFGgBFgBBgBRoARYAQYAUaAEWAEGAFGgBFgBBgBRoARYAQYAUaAEWAEGAFGgBFgBBgBRoAR8EUAJv6UuT8cBf0HsQrm/9jkny9WfMUIMAKMACPACDACjAAjwAgwAowAI8AIMAKMACPACDACjAAjwAgwAowAI8AIMAKMACPACDACjAAjwAgwAikcAZCo0pCZv6tXr0hiFchUcXQN839s8i+FP3wuHiPACDACjAAjwAgwAowAI8AIMAKMACPACDACjAAjwAgwAowAI8AIMAKMACPACDACjAAjwAgwAoxAaAgcO/a72PPzUXFNurSi+l1lQgvMvpMFAiBUXb58Kd7kH5n9w/VVHIlUxYSqZPEIOZOMACPACDACjAAjwAgwAowAI8AIMAKMACPACDACjIC3CBw5csoywjx5solrrgnftCHU6f/1178y7QwZrxXp0kZWif7Zs38L/MySkfKSM2dWszNfMwIBEfj3wkVx8RLtXk4XJzJkuDagf/bACDACjAAjwAgwAqkHgXCMfS/RuOMCjT9gmSpTpgypB0wuKSMQBQSe6zNBbNu6X1SpWiLFEqpS+zfyFSJPxcWReT8iUMmGlerZZWinYkJVFN64KCX5++/nxb49R2XqaeLSiMpViktmXSSz888//4rtWw+InTsPieuuSy9urXSTuLl4/viKGaaMXL58VWzZvEfs339CHKNJwv8uXhKFC98gihbLK6pWK0V2L2mkEaT8fvqcOHnyD+k7V66s4obc1wcZUohDv/wqvqd8nD51ThQvUUDcQmXPmvU62/Bguh49/JvtfXXjpuIFRI4cmdWl5THUtPVIMMg7Qvn48YdfxK4dh0jN3VWRmyZVK956oyhfoVjE65CeNzfnKMfePcfEpUvxDNMSJYOvh27wdJPnlBCWcXf/FE+f+lPs33dCRlSkaB75PlrFuova2fPn/pHvaKUqN8vj5m/3yHfYyr8/txw5s4j0NBl8/Ohpf95s75WvWExOJl+k9nfr9/ss/V2fLZMoSuW5Nv01lveDdfyV2uhfDp6U3kuWLmTZzuoYWsVbukxhkTlLRqtb0g396dbNe8WBAyfEyRNnBPKeJ282UbZcMVG6TCHbcHyDEfASAS/75x3Ux//99wWZvfwFc4kCBXL6zaqXaftNKMBNr8Z4bvt1N33b33//K8dXO378RWAxO3v2zKJwkRvEnTXKimzZ/I/vAI/bvAeAmG8zAkEhgMmGjV/vFgf2HReHD58SICIULpJHVKD+/6ab8wUVB9floGBKFp4OHjgpfvs1/ptZz3AcEWUKF84d9Dc0SAmYN9i+bb84cfyMHGPh+7NosTxBfYNiknMv7RxF3QK5Ad+whQvlpjmAkiJL1sRxHtpwN2Pkm27OrxczrOff0/jzMpUlc5brPB1z/vbrn6JBnRcs8z52Yq+wThTv3nVYtHpwiEz7+RdaiUfb1LLMR7gcR7z1qZg3939Joq9Q8UYxY85zSdzZgREIhEDXTu/JNiV//hxi+ZrXA3lPcj9c7zkS8mrsnCTTCQ7hzLtdmuxujYA+5xHKvBEWjvBN4nTup1yFogLfluhbQxXMO6k+1auxhF0egpk30sO6WQ/Q43FyHs20neTXbRi97lrFFWi+zipMcnFLKXONlct3p/7mimjUpJoYPOzx5AK/43xiDW87fXfs+OGgyHr9dXK9rBx9s2TObE1sCsfYd9TIRWLS+OWyDGv+N1zkuiH4NUvHBU8mAUEMOXokcT0jT97stmupeAcxzw/Jned63lzh5xmntvdcQbF86XeSTIXr7r2aKOcUd/T6G3nC2KVi1MjFEqclK18TBWntIZYF42GMZaGZSgg60r+4tNhkdpU1VMXyg/Myby88N1l89b8dRpTfbfvA9cK1EVkQJ7NmrBVvvj5XXKIBlS7oxDBJF+xkux7W3zkW7ke+s0B8tmSTOPXbn5ZeQeZ6tn9LcXv10pb3lePhQ7+JyRNXiEXzvxaIF/JQyxri5VdbKy+2R3wIdOk4Uvz80xEfP3gZW7erLfo938LHXV18MudLMXHcMnVpe3zt9XbigWbVLe87TVtFhgFEz26jBYgZVlK77q1ixPtdrW7FrBvq33KqE5MmLBf79h438rn6y+EBJ/fd4mkklgpPGHfvHvqqz7eKIYM+khH27ttMdOhU3zLygQM+FD/tPizvfbXpXer004gObd+29BvIsUbN8qLYjXnEh1NWBfJqeX/WxwNE2fJFxDEiZHVs946lHzhisFKkaG7Rqcv9oiF9eMcPWmy9W94Y+MI0sWH9ThnX4uWDLAlVn6/cIoa+OssyPBxHj+8h7rq7XJL7aP9nfLhGjB/9Ge2kjyefmD2BaIvFoLr3VTbf4mtGwDMEvOyft27ZJ9o9+qYx6Y02BW2LnXiZtl0agdy9GuO57dfd9G0oI8bGw1+fIxe3zGUG4X/WJy+KUqULmm/Ja7d5t4yUHRkBBwhg8fT112YbYw49CvTj6M/xvQOyoJVwXbZCJXm7jf1gsVj62be2hcCu6XtrVxQ9nm4q8uXLYekPJKrunT8Qf/75V5L7VW4rId4f09129zW+u4cNmSO+2/RzkrBwgAakSrSbdOLUp+V9EFvdjJFHjXvKMh2vHYHJ44+9KaNt9MDtYugb7T1LgobgURN90V0/j1SG0tJmw+QuaEcnT1wpi4E5mkqVbw6pSIsWfE1t+BG5AaZH7wdCCsueLRBI4JE44JNIAmk43nOvxs4WpTWcwtlGGYnQiZv66vZd0fMR6+dO541AOJ49c63juZ8pH/b1pE/1Yizh7xkFM2+E8G7WA/ylH8y9aKYdTP7C5cfpfF248hOJeFPaXCO0JWFMB1JVJCRabTvmgwYOmCaWLNyYpJjQ7vrG2x1FnXqVktzTx7v6eRKPITjoYw79PIQoIu7VTX8eSmZBgBn8ykwjyB3Vy4hxk3sZ1/rJx7O/INLHIunUvmM98XS/h/TbnpxHq76qzHuFe6Tfc5X/aB7RVr/71jyZBfAJoLAmpYrX38jY1IGNmBCYzot1ic8r5Vn2Y2TujzIcr7WKTf7F+rPzJH9LiUCik6k8iTSESKZMWilGvBnf2CAYNJCgMqLhxcJcx7ZvUUfWW5Qs5Z1mj3/++U9Mm/K5Ty4xeQo18ufPxy+EQ0PRk7R7bMLUPlJFn49nusBk7GRid69Y/p3lYpfZv/kaO15AHlDaUrCogB3bmLTFgGn61FXiAmntevGVxxwRB8zp6ddu08aOoh7dRvmQ0TAYvPbadAaRwI5QoOcjVs7/+/eimP/pBjGViHFHHWjZcYtnrOAQ6Xww7pFGPHmnh4HJAdImOOC5KWLliu/FyNHdQirQ7l1HJJkKgerUu1UUIi0IXsoQImF9+vF6I0poWoS2A+zqV+0hzvfuOU6EKsMbnzACniLgZf+Mj8FBL80wyFSBMupl2oHS8nffizGem37dbd+Gibdhr80Sc2d/6VNMLGD8df5f+ZGGj01odrUSN3m3io/dGAGnCGBzQrdOI+W3DeJAHS5O2nNRd/EdhXqMCebfT50VYyb2TPK9w3XZKfLJOxzGTEsWfSPHeiA13XLrTT4F2rhhl+jVfYzRBoJgmi1bFnH69FnpD0Spjm3fEWMn9UyiyQ/jyLaPDDfqJMj6ILtjHuA4abnCWBNt8KaNu33STA4XkyeskNnEnEKHJ7wdaObMdb3YvnucAcNni78R/ftNNq5T8gnmYvBT0rDeS7SA/qu6TBbHX389K+eWkNk8ebKHTKhaRZtN1q3ZJkmKTKiK7iMP13vuxdg5EDLhyrs5XTf11e27Ys4LX0cPgUBjCX85C2beyO16gL/0A92LZtqB8sb3w4MAzzW6wzUabTvm0vr2HCfWrd1uZB4axqH5/b//LkmFDM/0niBefq2NaPaQtSIEI2AqPXHTn7uB7OsNO8XOHw+KMuWKuonGcdho1Fc9s9HCXc9Dcj1fTUoOoJEO8shj98hjSv2TEr6R3TwbzCOBRZU2bVo6koYq2oSVjs4vXyazf24i5rCxjwB2dQ4fOidqGYWq4HdJjToEk6HD3+kkatWpJCdI36Rd+fPnbRBQpzhk0Czx4axnPc8nzOE91ra2qHlvBdKwkleAFIQJMqS34audcqL/ub4TxdKVQ8ikVaKpKUy2tmg62GeREYsE587+E3QeR45YYJCpwFrFLlKo3MRO7h5PfiDj+njO/0Sd+yoJsKPtBKSC3DbmBQsVzmMZzE3aKHs/sgWrNHvBLELvPs1EKTJlBfygbnjZZ5uIDJfUlINlZmLAceL4ZWLsqM+MnOBZXyZzfyD1BSNu8Awm/pTqh3GPnScL8s+cT19IwgI/RWZIn+r6gcwoNAUOsVDHnPX6TCJ9+mtFg4ZVkxRo7OilcgIeN6Dxr1Jl30UxuEMboFmwePbq0HbS+b//Loojh06JBfM3GHFhUh9kg5YP320Oans9ZWK8emN46NDJfqHpfipHhQpFfeKZMG65WP35Fh83/QIfyYpMhX5lwMBHiTRVyVgcBjl4MS0az5jmTIuXnhafMwJ2CHjdP08hkvG+vcfskvNx9zptn8gdXjgd4yE5N/26275tKS1UKzIViOrPDmgl7qFxKgiamJiDmeW5s74gDXuJJql0iNzkXY+HzxkBtwhg9yY2ikDuqVVRDB3ewTBtgMUgaOnFDkx8c61a+X0S7Y1cl90+gdgPP+ztJ0QZMqUMOU3Euh9p8hobls6cOS9ATn2BSPSfLHyJNh2lNwqDRSVFKG3RqoZ4+pmHpClmbFLq3uUDacJv545fxEfT14huPXzV7D//zCSjTjZodBuFfZDMMmeXccOEIDSoQPO0vtnM7RjZyHgYT/aTOc21q7fJFO6uWc5ybB3G5DlqRoARiAACkXjP3Yyd/UEQibz7S5/veYtAu/b1HM/9wGSfm3knq5I4GUtYxaPcAs0bebEeoNIK9RjNtEPNa7j8O5mvC1deIhFvSpxrnEya6lCXb8idLRIQRiUNaFJTZKrrac581PinyNz9jQLfGzOnrxbvvj1fYjBs8Gxx3/2VBb43wimt29YS9e67VdAktciZK0s4k0oRcY8nq0Dvvv9kiihLtAqRGt5zM7ZzSYMZBORJWHNhCR6Bpg/eQRq94rUo57XRUh58bOH3KbUHkiLry9SXXbl6RcRdjSdTxRGpiglV4cc/qim8NewTSViCjWkwpINdOPMq04togVypr3zyqcbGRDrsCPd7vqVYvGCj3CUKkzOwkV60mDVBKNT8ZMhwrTTJ16jJ7T5EKcQDrSUjPugqmjV8RbJKoVHkp58Oy4GPno7K962VbhKdujYQGWnw0771W7oX23MsLnxOGlYg2PH5Bk0mK1MXUMH+UPMaYurkeLXsC4hU5o9QVap0IRFKQ+M2bUzWHjn8m8x7rTq3iDdHdJJEKulAf2DXHiS15CRK3SnqXatH7xFtHq8rnus7QXzzdeDdyW7xTE44eZ1Xxt1rRJ3Hh93s6AfMooiTcM+UKaPfHRrY4W+WXNS+Kbnxpnx+wyt/OGaid1Fv70uULChq1b1FvDF0rpj54WrpFYSCYAlVaLNWkjZBCAisZcoWkedWf/Cxi58ugT7019AuBCXD3noiialYLNY9QaYKYcr1D1okZGEEwoGAl/0zxlzjxyyV2YTpICs15XoZvExbj9fJudsxntt+3U3fhvJOmxyvQRUaW8eR2evKVRPVRIO4jnEnflbiNu9WcbIbI+AEAXwnbfx6lwyKTTOvDG5rkKngiH69a/eGhpniH7cfNL4DcZ/rMlBI+VKoYC5jvIdxH9q7evUri4caD5Jao2HO5uv1u+QYEGhs+X6fsSEJ5PsBAx+Tm7Jwr0jRPALm9fANDy1TCz/9mupYI2nmGfePH//dMFUP9ftDh7c37uE+NtRgoxB+0GSlxIsxsoorXMcpZM5NzU106Hx/uJLheBkBRiCKCITzPXc7dg4ESzjzHihtvu89Apj3cTP343beyVyiUMcS5vD6dbDzRqrPdbIeoKfn5DyaaTvJr9dhnMzXeZ2HSMaXEuca9fmNSGIZybQWzPvKSO71NzsYa4r43ujQqb7YS5qcMceGTSIwOfdg8zsN/+E4gQIH/FiCQ2Dtqm0CZHCsY7A4QyA1vOc6Mod++VVAUzYEJMl06UhzEUvQCIDbEAq/IeiIw+gxjUgj55PSpImjM+KrkpYqkIWZUBVG0KMdNVTZLyRCEyYJBwx8RLz28syIZgkfAYvmfy3TRB6at/TVNDJ29BI5GaoytYBMsvXu20xdujpix/9DLWvYxoFdsGCSzqEFe8iunb6EKuT33tq3iDa0OF7lthLSDzRLBStY2Fc7a+uS6SlFpkJ4mLf4eE6imZfVq7ZKbVXQgOWFuE1bLfRBtd0zz7fwIVN5kb9oxJGPGu3uPZuIR1vXkuZIQsmDWzxDSSul+WXcU9oTDX95uvdoLDUOoP84eOCE1CKIhdpAgnYLpoUgXptBQZzbtu7DQZo9rXZHKXlu9QeT1cltgGhVDnaLTQS86p/xfr06cIYk2t9Zo6yoU+fWgIQqr9L2Alm3Yzy3/bqbvg3qxff8fFTCcH+Dqj5kqmCwcZv3YNJgP4xAMAhcvHhZnD8Xr7k3W/asAlovzIJNIUoOEXFGF67LOhqp6xxtaLPmdxkmyvbuPWoQqhbMW2+AcX+jqgaZSjmCVFWuQjGBzVggUG3a+JNBct+2Zb/yJtC3STXthovvCTRXJxeBFlSY4INgY5Yd4Rb3sSse8wwgpu3fd4wWCfJL7bEPtriLtMBuF8eOnhbXZ7suybwMwnohf/xxXnz6yVfi591HZPqYcylZqpC4hfJtpenWKk0Qvpcu+YYmrPdIk9rlyhcRd95VzqgjVmGgveyLtT+IH7bvl1q0kY/8BXJKE6RlyhUR9RtUMbTKWoWPppvTvI/5YDFptbwss44Ngkq+WLddoPy6FC5yg2j6YOJC3uZv94iv1u8wvOzdE6+t9MKFf6UGT+NGwkkL0hiM99ZrgbbwMR8skWTBikSgrHlPeYG8oQ6D9AitnQWJlHkfPb/7aMwE051mwZh2xbLNpN3zAJldPybrOBYUixbNKxo2uY12QieS1o9S/Z83938yilo01zfro7Vk8uWQKFe+qGjXoa7ISxtkMEf57Tc/CWhofqDpHQKbDqwEGvagbRRa7zCuK1osr6hChFG0bU4k0HsOE7uqHbibcDKbStXTRL5OUPuYLl2cocXP7dhZj998Hijvyj/ap400Rw0NgbAagHlRLEbdRNqsi5coIOrQ5ipsfjWL2/rq5l3R8+K2vsLawWyqc9BEe/zYKfn+5siZlep4TnHX3eVE9bvKSrObepp8bo+Av7GEfaj4jS2B5o3crgf4Sz/QvWimHShvsX7faRvjtn1VuDjtz72cawylT1T5VscN63eK7779WY6XOnW9X1z87zL1c1/IDTRo53PkyEKWSwoLaEIqWOgGFUwe13/5o/iJxn5mKVGygF8tLosWfC2VK2TOklE8Tv0wrjG237XzkOwPKt5yo8AYVl9TU2l41bar+EI5wuSX2qCPb2B8d5il8QPVjDm2hZ9+5ZdQ5WTsq56XOV20IU90qe+j/dfsR12r+rJt6356fofFGbIgVLxEfvmcWz5c02ezlApjPmJzzOcrNksC2T4ah125clUUKJRTVKpUXDQlU4dZs15nBHHbnxsRuTgB4Rf1C2WfSFqTYU0oVHHyveNFfXXaxniFu9P3XOHrBDdotZ4+Nd4SCMa/N9G3LeaRviViE+ps/gK5pNajth3qWX4nqLS9OELruhJ/60LKD45O+yWEddM+ehEecbgRmGaePXOdZRRQdgKlJzEvtByJFUlqVmH9T84v4XuACVUx/+ScZRAf+IMGxhOoHmhWXWAQEmk5QQMuZVe0ZKkCUrORygM6L6WFRLl9/90edRqRIzpPJZlMqjcxAHlvlHPVj99/F7/4jvjvuLO0SkYehw6eJScHlSOe1Y8/HvCrpUr5DeboJm00dpighmBAiAmslCAYgDsVN3g6TTOlhGPcU8qTjFw58CGdPXsmqVkRWhVPnjwj8uf3P4F/+vRZMZ8IuRBopoKGKq9F9RfI00+7j4pSpQt6nQTHxwj4RcDL/hnmljFZBm1I/V98WOz92b/ZPy/T9ltID2+qdxZRmsd4bvt1N32bbmbqYfqIDFXc5j3U9Ng/I2CHABZnc9JCIPrgf/6+ICcl8f2kCybAlOQz9eVclxUyqfNYqHDiQsxhMvus5AfSZKbEToMzvq3V9+oP2w8Y4z693dfjUfEl1+OHNImszNS3px3vdvL76XOiR7dR4odtBwwvWCTEIsf/aKHr/LkLkvyBRWjzRjcjgIsTPJNn+0yURA49GpC7Zn+0Tiz/7FsxeNjjPgsruj+cg5gyjsyJ64QgzBt9POd/UkP2M8+1SEKyA0FmEJHEzYLFKSw2QUBEgUlSfVHH7D8a127yPn7MZ8ZmEj3vIAPhp0uVqiV8CVXf/SwmkqkTs4BkYOVe/c4yYSFUXSCCzYSx8dpSYd7zb5qLeq7vRJ9sgSQFkzog50F7ui5YxBv4wjRJwtLd8eyxg/yTuV+SZvI6pBm/hbx9mHaWq/KpI25Ai/9mmovMTVp59E2UWNQFsQoLOLrAlG2PbqMFNC8qwbsG8/HYLPkPlStUCfSeQ+OFyvNeek9GjulumcSff/4lYF4IbQZMD5nNoloGSnDU21Dz2NlfuEB5V2Eb1HtB6OQ/5Y53HDJ+9Gfi1aFtfbRZwn2zy/rq5l1B+krc1FfUx57dRxtEdBUn6s23xJfFtxmeFTR7sgSPgN1Ywi6GYOeN3K4H2KUfjHs00w4mf7Hsx2kb40X76qY/V22v27nGUPtE87ME0VoRF5qRNqW+PcdK5QPKH/pW9JGS+LzgReUsj0uXbBJLFlFjZpKGjasFIFRtJAJ1YazhAABAAElEQVTVbrkx5xfaUIu2UAnax3VrthFRfz1pqO0hdAsH8ONV267SC+W4k0yYq+dW7Y7SlqT9ypWLC2gkx5qfv+8SJ2Nf5FV/Xua8Y55JN6duvo9rWKt44bmpAhv+dMGYCBq1UKfferezpaUL+Ef5QZYY8dan4sKF//QoJNEFmtfef2+BWL5qiLTcAw9u+3OfRBxeQIs2xntfrPtBLKd6C+ULBWgTRrDi9HvHbX1108Z4hbvT9xzYOsXt9KmzxvgXGwVgiQubGZSgnfjfFz+I9UTWnzClT5LvROXPi+NmmkNXUp42eAUjTvslxL2IrHo5bR+9CB9M+fz5wdzEe+/Mt/RSr36lmCdUQRMVWFSXLtMGJkkhuSq/r9KlS8eEKsunmgIcx4xaInf9QOuRV1qfQoXl9G9njSC6yl9M1IDshSMWpTF4wDk+biIp27YmTjbeYmNaxWl+TtEkixK97GtXbxVKnWuZckVpR9xB6e30qXPKe5LjkEEfidO/nyOWtxA33phHwCZ9Y9oplzuPtS1qN2lj14ESqG7EZNGa1dtpMnIH7QI+Q7tc89Iu04I0CVsj1eyecoOnwpKPoSPAuIeOWUoIAfb+H3/8bRQlGMb6jGmr5UcqAnXodJ8R1suTYjfmkzunEOfkCcvE4Ncflx/HXqbBcTEC/hDwqn/GWOud4Z/IpNq2ryMKF8kdkFDlVdr+yuf1PX9jvGj2LwpLaLMrS1o3sLMRY6xv6eMcC73FixcQNe+tYGhHNeMSzbyb88LXjAC0+WLBGub7Ppm7XmBBXAlMsn00fY26FNAGogvXZR2N1Heu2kKUHGaglfyeMB8A7VJFiuZWzj5HjMmUnKJJViW6O3bQglhUvmJwk50qjlg7ghyBCXTIzaTF5e6a5Wyz2IsW6xWZCqSpe2pVlGrp19H8gyIW2QZ2eQMkiSceH2GMxzHPUZXmEs4TQWbd6m1yngeLYs/2mSDGkqlbO4F2K0i5CkVFtdtLiV9//UOsWrFFav7GZrxcubKKjp19SWXQYgSBphvMXxQjTUEwxX3mzDmxhsx5wLzTl7Ro0unxd8ScT30XAGXAKP5xk/eWD99Dk7rxZT9NE9ZriMgDAXalNe2AcNPfDemnfDGf9vrLL34kzV5n5K7bh1okarKCXwjwDLfs33eCiG+bZDLQ9gutFtj/uHvXIUsSDuapWj00xCCoYG4Mu8ULFcottVRt+X6vNB8KrUBWgjYGk/kgUqH+op7gBw1JN92cTy7iYrFwGREBzYSqnt3HGGQqEDowbrtIm25AplKmQKzStHML5j3HRkdopcKC1FdEFDx79m9LguDqlVsMAiY0dIUi/sbOdvEEk3cV9lKCRjWUBW0zsE5LWsdAmluz6nu56bRvr/FyYyvGF0rKuayvbt4VlQfzMZT6CpJE317jjLqKzV+3kenZtNRmHTtyStZBYHD1Kk34soSEgN1Ywi6SSMwb2aXN7uFHwGkb40X76qY/92Ku0W2faH46Q1+dJclUIARBY1EB0gJz7NhpsWvHL2av8vpWIg9BM5ESEC9Ckd9JMxLIVNhgW6duJUmw2vDVDhoDHKG1zd9ojPmOWEbEHGwIVBKOtl3FHeiof39AQ6WVADsQdaBxEyRn9JcwZ2kWJ2NfxAGttRfInKCSraSpF+urwQg2TD7cfKjUFAn/GMvAik/mzBnlOAMkDuDeicb2i1e8Zqkh7L2354vJE1cYyaFvw/gTpNA91Kdt3LBLauf5L6Hvh0e3/bmRmMuTJ7o2kIQqzFdMpTK88PKjQcXo5nvHbX1108Z4hbvT99wNbvqDGTvqM3mJedRbK90sfqd5gBWkrQqcAoy/sYkIWonDJdsTeAQ5c10f9LeR035JL4OT9tHL8HpcoZyjPW/QKPFbBBrFQIBLLgLiFCSOzPxJNVV0ni5tWvn9ndgTSS/8JyUggA5UmWZ5qucDPpqhIlm+UxpBKmvWxEHD7JlrJJEIZpxeGdxWPNV1lGRGn9IIWOHOJ3bt4UWGgOVuVlfqNn0waJVgVxsEiw2vD54jzzFBUKNmWfFqAqFKX1SQHrQ/YE0rUQSsSeOXiV59HxStHqmpbhlHN2lDG4wSDIIebTFMmlNQbkh/yUIh5hALfSjZiPanalyFSe5HN3gm97JHM/+Me2D036UPmPfeWWDpUe2WsbwZw47TpqyU9oiRRZhjCbST/Pz5C1INNfyDGFKHTKyGQ2BqAoRYCHbrYPK9Tr1K4i7S5AcTFYHyGY48cZypCwGv+uc3hsyRizBYrOrSLbhd0F6lHaknFmiMF83+5eSJPyQMN9CuOGgaGDnCtw3Hojd2+mNX4TPPN/eZNETAaOY9Us+P00k+CDzVq4k4ePCEnMB67eUZtEt1reyHf6XFaSzqKi0z0IajTKir0nFdVkikviPqxQJtB7r6nsSk9pkzf0lAMmVOb7nbGzez0OScEkXAwvXNtOCDjUfYWY1J5zaPDJeknHtrVyCiTQlJSML3bXIS7PzGHAIEJq3t8o+FD5jrgGDn9fgpTxtmODvTokGHtm+TCb7wTWBOpLkJ7MCHPEhaDQa+2towudjlyQaSbHWItAOhj0M+/WlPh4m1wa+3M8K3aHW36NLhPUmqmj5tFZmaqS2gTUIJTD08+VQjIgjdLWDqTZfeNF/yVNcPZLq7dh6Wu3xvI6JWrIibvPd/6WGjGCibIlTVv7+qAGHen1S/qwyZFytjeOlJ2pZATMiY8Vrx0qDWhnskT/BtBc2HKNcjj91rJI1FyI/JhF3efL6krndII4IyO1u77q3itaHt5EKsCojFlenTPpfzjMpNP/bo/YAk50Gjfv1a/eUtaF1cuPQVSc57njRlLSUy1ZbNvlr0QYRXxEVoRp5A7xo2sUKe6HK/fNewCBmKBPueN2h8m1zoRPu2ivpYvGtmQZ4hMI94H9WFYCXQ2NkunmDzjvC1aZEc7THM25nbMmjOfaLdCDkP8OGUVeTvFiNJt/XVzbtiZMJ0Ekp9BbZKYye0xY2f3NsUm5Ba5cyYJPHkwiElzhvZjSXsYIrUvJFd+uwefgSctjHImdv21U1/7sVco9s+0fx0sDEB4/Nhbz/hYzEAi+GrP//e7F2StPWNNSAjhzonjTnVidP6GtYAnqJ+uk/PcZLgDBOxSxZtEs3IhJyScLTtKu5AR5/v2IQxgFUYEAqUIIwVoQr3Qx37IgzGPvgpQTsfLKEK81DAFIK0X6axnz62njp5JW3CnCfnDd8fsZDG9Y+pZOQR2sowZwVBGaEF9h4il+uC747XXpkpCQjK3W1/ruJxe8R3COYmQMKBtQtohwRJJpC4+d5xW1/dtDFe4Y533Ml77gY38zPBN07fZ5sb48jatAYEMj5k4fwNYSVUKSIlNJwFK276JT2NUNtHPSzO3YY3xxfMNUy1Dnuro+EVhLjR7y8yrmP9BBqqLl+5LOcksMkH4/TL5IZNOUmN0Md6aTh/fhHAw37lpemS/VyyVCHR8pF7/PoP500wRZWoSQZM1Lz/LjFySFq3rSPNM11/fbw93X+IWY1fuAUTL8AIgpdg0JB2nieptG1hIuO6BHOCH7y3UKrAh8aVFwY+Qo1ZPNEKif9uo6EKjQ9Y51BvjgkbMNwh+BiE5qrFpP7PLG7S1nf4jHhzniRTYUcizEZiwkYRz47QTqreUFlN+Ujp4gbPlI5NOMvHuAeHLj5SrX7BhY6erys0yY3JYPywOwYLAa+/NlvArrgS/eNQuZmPH8/5Uqidx493rGssvpj9ub1u0LCqaNSkmhENdljMmrFWdO/ygahRrY/o1H6ENCeCyXsWRiAcCHjRP0NDAwiBkH5E1oGWpGDEi7SDSccLP8GM8aLZvygssdimxsOY4HiYFg8xCYVxKdr0WURMwYKSWaKZd3Ne+JoRyJEzi5j8YV+5AA40MIk75oMlUqMOFrqweQYmvl4alHTXJ9fl1FF//ksY60FDx/Hjv8udo20eHm5opsYkvCK4/EEamdXiSxbaIW0nvosT5wxv+O6GBlG1WIF5EZixGErjy4eavCruqzVA4Pv28KFfjTCxfALzGUrLGzRO1dd2eJrz/RGNSZVAO3mOHJnVpdxc17V7I+Pa6xNol5338XoZLeY9nh3Qymc8DgJ3NzKnoUSVSV3rR2geeLZ/C5/wWNBrlKBpB6YDVi7frAeR2oOefKpxEjIVPEFrVScilCmBdp9YEmg+Sq55DweOwEInUyENPMNHWt8r58JUmljQXbLwG3kJgvobNFmvtwu4gf7n8Q71BMxEWkm58kWlM0zLq7nK0mULy/RwozgREyF//pmoORnXGJ8p6dmnqREWbpg3C3azgoojlPf8vvurGPlb9tkmFYVxhPkepSHrdjLTqLcDhieLk2DGzhbBpIkf9T4HaqMQHguy0IBhRRwC0UgRr7eTdkFpZsMq0RhyC7a+gmSu5C4bLYNVSWOVKr/y6/XRas5I9blep+V1fKGMJezSjtS8kV367B5+BNy0MW7bVzf9udu5Ri/6RPPTyZYtsxgzsacPmQp+oMGx85MNzd49uW5JCgNgxUYJ+n+MCVWfAeUMsSK6lRnz+EPPo/49gzGslTgZ+1rFE6wbvsGVaccbb8onXnmtjQ+ZCvG0bldHYHwFAUlFmR6XDvRn1MiFhttTNMY3k6ngD3FPmf6MEY8KGyvHTl3vl1nBhhCreTdzPr383jHHHcy1mzYmmPjD5cdL3LDxoWfvpkabgDzXva+ygJZByFFaqw6XYKyM9SsI2sdgxU2/pKfhtn10G17PS2o5xxg5LWmkukwm/zBPD4EbzllDVQqrBXNmfWHsmAL7FRMJ0ZJz5xPVa2fIkF5mAxOa2GWJxq477WqGZKCdcErOn7sQ0M6v8uvkiA/zAc9NkaorEf7xDnVJTeBNTqLyGwYNLSR9wmLlTlKLOmtG/OAPmqWgkhw7AJXoWMENKu4xeXhnjXI+zxALcUNI9SpU5kPeHPaxwEc5iFdK3KRtnjCqXKW4eG90N0P7Cghv2CHwFdmmhcpBqSmrTzOVdIo8usEzRQISoUIx7oGBvqN6GTJtUNLSI3aL2H2wWQaIsCMWuCqX726baukyheRuc1sPdAOLc+pDEDvSmzRN3K3kL5zTe9h1A8yx2xmqp5VgQIXdyvh9AjvzIzoFtbtFhecjIxAMAm77Z4y9QMSGQB03PjyDFbdpB5uOW3/BjvGi2b9A1bsub73bmUzOJD6LDV/tFN07j5RqqzHGerDFXZ6N8fR0+ZwR8AqBcaM/ExNol6uVgGQ8euQikZ/MHWCxVJdovod6Pvg8vAi0b/2W3wQwia8W/fWNOuob2ipw2oQJLdz797+LPl5gAuCThS/J3Y/Ll2722ax1gghdUyatJELEOjLt8IjcMOQTOMYu5pP5O6XVpB3NWYAwZidK+xTmBEDSNQs2Z0H7D8bOXguIcko7FdJRm8n0dOrQDvqMGdPL53HwwAn9ls/5nZR3q0nq+xveJj6e8z/pd/9+e01bWPA5STvu8az/TdCYdYaIekr++MO3D1buTo5YwPx8RVItDYHigilGfcFQ+Y9k3lWaTo+YczxDc0GhSJYsGcRjpF3MTrAg+WibRM1Udv7gvmvnIYN82ebxOsamQ39hzPeQHyWZMmWUG3R07XeZMsXPX2L8jPGlmkiH6R4I3rXbycSgWereV0m88mL8BlfzPavrUN5z9X5jg8R3m36SxFQsLikB2VARkRqSNqtgJNixs1VcoeTdHB7jYbynv0sibfxd1cZhwervv/5NQpIzxxHN61Dqaz5Nu9riBV+T9oSqSUgK4S5Lcp43AjahjCWssIz0vJFVHtgtsgiE2sZ42b466c/dzDV60Sean06bx2uLTJkS+0nz/XBc66ahVPzY1F+mXGGx44dfxP6E/lfdi+bxr78S1zvTp09c2zPnKU4bu6txqdmP27GvOb5A1z/tPmJ8DxQmU3/btM0GOsm2fIViUvsp+uS9e477jF137jgkk8GYvTlpiE2Ogn4RJsphiWcuaULtSFpG/Vme8PJ7xy1eTtoYt2k6De8lbtVrlLEc88NaCRR/YON7uOS8xnHIeJ39O+8v/VD7JT0ut+2j2/B6XlLLuSTzks6ENGniJKkKZspVG8mEqhRUC0C2GZlg/gkqG6HZKJqSLVuiBqbz5/+WHbEymfQS7U5SmhHwsaxEaatS114fh5HJPUVGqly1uM9uSS/TQtkx+YIfBh+DXpohF8fwTFo+HD/Y+Esrt44V8lHNYnIG7tj19vZ7nUXLZkOkOQPs/v5i7TbR9MFEdd9u0tbxR8Px4iuP+gwoMBHa7/kWUm0+GpEv1m4XvVI4ocoNnnhmLM4QYNwD4wYyVYdO9S09Lvvsu5gmVFlmmhwxOdm+Yz3aEVM7iakrcxhMSGInLqR121pyocjsx+vrxk1vF/jBnMwmUt+/+ds91B7uMLT14XrAs1PFuMm9vE6a40vlCLjtn6ElEx+z2OnX/8VEMzHBwOo27WDS8MJPsGO8aPYv0JyCsSGkXv1KPmQquFUnjQL16lcRUJMPcsFmMoEC86JKopl3lQc+MgIKAZgWmDxhuby8uXh+qQmkVJnCVMcvkDmILUSmWixgTgnmuqbOeEaUr1hMBSXShLtvJSMiPkmWCEATBzQpVah4o5H/67W5A2gvtRNoqlBitdiD72VooH7uhYflWG0LmRLb8NUu8dPuwzIYNMK81H+aKFI0T8yar4f5w2lkbgOCxQqQa+0E3+R4zyD58uc0iB+6f5CpcuXKavjT77k9P3b0tBFFIVqYsRKknydvNgETIUePJPo3+y1AC2dWkj9h5zHunTh+JokXmGCbOH65nJtQhJIknsjh0qUrVs6O3HbvOuTIbEFOeg46oSoaeXdUYC0QdvKHqukNplT8EapuIk0GmGsKRn45eNLwVoq08jsRnbSZIcGEpDoivmsTFkjxfv3zz3/GwvKxY/H1F5rXFMlKTx9lwDNWGkn1e+bzUN5zFbZB42oChCoQllcu2yy1d6l7S5d8K0+RB5Abg5Fgx87muJzkHePfubO/EDOmrTZMDZnjVdcXiRwZyxJKfa1ApoXQL6FOgIjZsO4AgbESNq+WK19M3HFnaUOzYrjKnBLnjYCV1VjCCsNozBtZ5YPdwouA2zbGbfvqtj93OtfoRZ9ofjJlyxc1O4X9umCheC0z5oSgkAGEKmi6wcZ+tRHD7C+S19drGmr+9vPNojTaIG/X2RDUnI59nZZXry/raE0Pv0CCzRBq7IoyHTt6SgYpdmOeiMzDB8qf0/udiUTVu8cYaTXjo+lrpek/u7i8/N6xSyOQu9s2JlD84bjvJW558+awzGJWw/LVf5b3vXDMSvO4Ss4lKFFR1/6ObvslFbfb9tFteJWP1HTEN6C0QUNHaKqCpEtH5KpLl1hDVUqqCG8MnSs7AZiU69vvwagXTd8tdZQm2ubP2yDzhEEimMBKziao0cZCujJpp+55eYQJitkfrZNRFi9RQIwc1T1sHX+OhAlLvHxIFzsGoMbzZdqFq9SVnj2bqD5cxypQmRFPGyIbKLOFB/bF75JT4dykrecDqlxvujm/itY4Qm1nAdppDvbvkcPxgyjjZgo8cYNnCoQjYkVi3CMGdVQSQjsCE30QtIk33JBNFCiYUy4EYdElkGCxBFoGIOg7Im3eFm0jfjBLgQ/KT2jX/FtvfCLPoX0LxCqQdlkYAa8QcNM/Q6Oa0pLZlnbyF7sxb0jZcpN2SAm58BzKGC+a/UuOXFkksQ1FhWkBK7mLtJOCUAU5RKYBdYlm3vV88Dkj8CtpgZkxbZUEAoSPKUSYUqbWMNHdrn1dSeDo32+y7BtHvrtATJjytAEc12UDihR90rFzfSIu5ZZlhMZqLIpAYxnMRZoFJDtoKMFCvdJgZvaDa30SU++fzH6hKQkmKPB7up8Q0Czzyosfii3fx5t9g9nVSdP6mIPFxPVy6gMUSQrmztRGNKvMYU5BaYjKrpn6M/vN5MeMotlvKNcniCSgJIemLUe5qSOeFQhVyC9IbVZlslsk091PnkxMD3F/tvgb2swwxdgxCjfsMMdiF31iiCtUnzBvAcEEqFeC75VgCUB6munTJ37nRCvven6cnGfOnD7ksmOO0p9gfilYgdlkJfnIZJ8TURPjCIsdx/HHxGeDCXMlV6/I6XRZd7GgC8H3p53kyJElKEJVKO+5SqtW7YpSCxwWaDBWRPsAQR3fvm2/PL+X/ARTN0MZO8uItT+h5h35hZYhzIsqwSYPaJlW3/6nT52V89m4f4XMa8SyhFJf0ReNHN1dvD38E7Fp425JhgM5AD8I+r0HHrpTPE/mUtMnkPtiuezRyFsoYwlz/qI9b2TOD1+HBwEv2hg37auX/Xmoc41e9InmpxJKG2cO6+QaY0KrcSHiypzlOiNKEFP1MaFxI8InObXvGLPFGT0r584marLKRfNAVmJXHt3dPPa1iidYN72+II3rSEtnINHHrsdpEwdI3RCY+03Ocm+ditKMJcjOMGHcrkMd2+J4+b1jm4ifG162MX6S8fyWl7hlCvAtgTX4cAnGchij4TtA8RgCpeVFv4Q03LaPbsMHKmdKvY+1yjhMJpDIDVtUv+QVuSV+MabU0qeickFtIwQ72ps3HZKk5L+TnVwl9Wr1lyrLWj1S0y8DV/l3csTOLCWLF2yUp+isoeFICSqkIhb5mxBV/p0eZ81YS8SmxTI4BoZjJ/YSWbIGHjQ4TS+XNpk4McEMRqeuDXwWMf8k7VJKsKgQihQplsfwfoAmJnVxk7Y+KMQOVzuBLWVM2mAyFGbFrCbF7cImN3c3eCa3ssZSfhn3WHoa3ucFk9+6Zr1QU4Dmi0O//CqDtXy4pgg0SR8o/qvUFzkVkFwxmf0dkag+X7FZRoPJYiZUOUWUw1kh4KZ/3rf3qDHpAWL5woQxmUrnApnzVTLjw9Vi4fyv5SLkkhWvyUUbN2mreMN5DHWMF83+RR/r5stnPc7CGEvJcU3zB9yimXeVJz4yAkBgK5kHUObDGpBpIUWm0tFpSJo0htOGH5gtA9EYk6/KHD3XZR2plHteq/YtPprJ/JUUk1bZiIgA7aOYgASxSpmA0sOd0zYlQetSsAIy8cBXW4tmjQbJIPrCfrBxRMIfJoOV5jeQIh5pfY/fZEGUwnuF98sfEc3O1IjfyIO4qWsJw9yAnUDLDwTPVBEozH6VH7O7Hm8WbWENmsygCRyYAYMeTzcTD5E2L709glmxevf2N0fp+hqmk0Mxn2xOMJp5N+cl1Os5n74YapCA/gMtkugR6Kb5/tJMcOh+wnGOxRRopcIcppxYt0lEr682XmSdDeU9V/FgUQTap5Ys+kZs27pfEi/z03f1iqXfKS8iGHN/oY6djcjpJNQ2CmGnTFxhkKmgmfBp2gAM7f1qsyn8vPzCNGMTLq5jWUKpryhH6TKFxMSpT4vNpDFxBWkW27J5r6E1EX3dvLn/E5cuXhavvd4ulosdtbyFMpYwZ9LreSNz/HwdGQQCzdd50cY4bV/D2Z8HM9cYjj7R7fxqqLXi4sWLsl+10vyoE2yvc2hqK9T8BPKfUyNH6aQpc7hz5zRFCqSp00pCHftaxRGKm15fXnj50ZDHspm1DRrn/WjnCiVP0fKLMUhHsvox4LkpAhaAPp4db17cKj9efu9Yxe/PLZxtjL90vbgXTdy8yL8eR5482eU61HHSVouxsD6G1f2pcy/6JcTltn10G16VJ7Ud5ffeVVorpHYCfZN85nFpRNq4tEyoSqmV4fQp/3ZDQYKBnD37V9gguIF2G5nlWdp1g13MSnbTorNSgWnlX/mDWusjhxN3oqHRakFkMKtJVhVGHUHmGjZkjryEqvHxU3oLfbFK+fPymIu0reiCHQYdO9+nO8kJEOWQ2wIrdc/q+BeR5pRkzOhru9VN2tk1IhjMddjJPwmLr3gOeudo5z85u7vBUy83FpOWLdmkO5G95iIxa2rCJ6NRuGDcowB6Mkpy0oR47VRYkGnTrpbrnOPjSYneRym3YI716lc2CFVqJ3ww4dgPIxAMAl71z1ikxs9OoOXi9L/xY0hodYB4lbZdmm7cnYzxvOpfnOQ7R47ExX+7cZYaYyF+s0aRaObdSXk5TMpFANqHleTNl12dJjnCLBLGwJfIfM9vv54RuIZwXU4CFTsQAjfckNUw57zrx18syVg7d8Rr9QBgoW5Kwjc5tKTu33dcko+wsQvajGJJvvziR7F3zzGZJZj6CzQuxXwIJnih0Qqa46wEE4DQ/uJEdBOLVuFB5lBy6lf7OajffovPm52pNMShbwBUceKo511vb9Z/uUNu8IKfzk82Eh2e8J1vgbvTMbmao0Ic4ZBw5j0c+Y2lOGGuU8kRMiFZplxRdRnWIzQqYRH1N6rnep00J3oqwFws/If6nutpgKwMQhXe6+VLv5X1Xmk2xQbWO+4qq3tPcu5k7KxH4iTvn6/4XkaB9nbMhJ6Wm1sPpwLt9zDzhx9k395jYu6sL8WsmWvl9aIFX4vnBrT0q/1MeuQ/ISHg9bxRKInzHHAoaPn3G2i+zqs2xkn7Gon+3N9cY7T6RP9PLLS72BTwx5m/LDfrn05Yv0SMdia/QkvNve9cGjlqx48HLSP888+/DDPXIOuBlG0loY59reIIxa1IsURt9f7GMnZxQqECFFSASHY0QQOsnd/k4F6/0W1i1MhFAnMb06astN347eX3Tqi4RKKNCTVPwfqPJm7B5jFYf7dWulkSqjB/gA3+ettrFYdX/ZLb9tFteHPZwv2NbE4vWtfp0qUT0FIcRySqK1egOTcNcavI5B9trGENVdF6KmFIt/0TdeUAxC5qmGWAvWHIk081kiboKlQsZufdtTvUN5coWVD8/FO85qw7a5QVDaij0mXDV7uMS9y3E2hUWP/ljz63Gze9I6BWkjWfbxUDX5gqJxuwU3H85F6iUOF4swM+kXl8cReV5ZO5X8pYQTp6ZXAbibdKBo3Pd5t+lpcYiIT6HLZ8v1dFJUqWLmSc48RN2nnzZhcFC90gyWsHaKIZix+YONIFbpi4goCYltLVUrvBU8ftKE0QKWKfcm9DppduufUmdelzxO7sP/6IJzymT38N1dsb5IBVqXqlaiVNjkE7gNLUgwgKk79wms70yWQYLxj3MIKbzKP+5uvdYmfCR2uTptVpYjspeddcRDDLrXY7KX+nfktcZMpD7aAT0U1DpE8wW4iB64H9x43ooJkLJFSYPEFbCoF5FEx+Ywc9NExCriM/+oeHdOQ/qRoBN/1zmbJFRM+nm9rih3Ha8oSd7bdWuknUqFle7rbJkEDYdpO2baIe3HA6xvOqf3FShCq3FRcLPv1KBgXuVauVTBLNwYPx2vdwA326LtHMu54PPmcEdJLHyRPWJA6gpBM8rtFM+nJd5jpkhcAd1cuQFpPD8hZMKJe3mKv4Wp8/uKuMVTR+3ZR5L3zDRnoHvt+MJdycMmG5PMM3eNv2dYIJIgrQ9zsIVcdpLAkzv6VKF/QJ9/13ew1TWj43bC6yk6YwJTt+OCjNJqpr8zF/gURC1aZvfjLfltcY94KEAsmrEbCkg/YH2l6tZDPlX4lu4g2mX5SUpY1KVrJxw24rZ1s3jMkPH/pVktpAMg/Xd7WXeddNsfz1V6J5GdtCmm6o8Bcu/OujSdDkLWYulRlRZGjpZ5sEFpojJdAuirqMOoL5Gsx56oKxnT9tFcqvk/dcha1WvbRcdMYm2eVU/pr3VDDmXOvdX9XvplOnY2eVNo5O8q7qe0Gai7WyFIDFqV07Es0B6umZz93UVxUWcTp5V8x5cXMNgm//lx4W+2jeFaYAQZA7RPUK320s3iDgZN7Im5TjYwl1DtjLtL2IC1r0Zn/0hRHVbfTdOnjY48a1lydu5+u8amOctK8qbeDh1VjEjK3VXKPyE80+UeXBi+N33/6cpD/HnOkP2w7I6DE+s1t/inTbXomIsdjci/UYaGHGGh+0iemCdl1ps6xew/57JdSxr56Gk/OiCabYEXbTNz+Lhx+7N+RoChfJLc3W7t93QmpbLFnKd10y2AjVc4vm+BMbUx6nDRlDBn0kx3cL52+wzL6X3zuq3EgomLGI122MSj8SuHuJm+WDiaAj5nJV/UC7FIhQpZ6bF2NfN+0jIHIbHnFE4hs5ltbC0X7DRPxlaYYcZCohz7G2GAdAWFIGAs1b3i2e6HK/7U/fCQyVhvB72+2lwlr4pg9WN+KHynpd8NEM1cYQqGhvQgQpLwWTsP36TJCTQljAxk6o4iUKeJmEbVx331teZM8er4mL3jOyd3qNj9/ZM9cZGiIaNLzNZ6IO2sV0m8Y+AekCO1anT11lOJvJWG7SBvlLPQeQ79Sin5EYnSwlLUvKnMDNxfPrt1LkuRs83QDyzlufigcbD5K/Lh3fk1HheSg3mKsA+eJHmuRWbjhu+X6fm2RjJizjHjOPIuYyMilhoQmDGBCJg5Fund8XH05ZJfsDs38M2LaR6SKI2nls9oPJpE8/Xm+QoMz3QZya+eEaw/kWIqVAjh875fN+rl21Vbo/2mKo4T5p/DLp9tKAaYbbgH6TpBv/YQQUAm76Z5g58jc+rE+LL0purVxc+u3Yub5BqHaTtorX66ObMV60+hdgUPe+SsbuxBnTVhtaWhU+aEs+mRNPyIfbzSV8x1nRzLvKIx8ZASBQQvumWkYLulYLyGtXbxWnE0zOY8OGbvKS6zLXIysEHtDmDhbM2yCwu1sXbLCCVg8IFp2xeUsJxnMv9Z8mSevKzXzc8NVOCh9PdL/p5gJ+yfbmsJG4xnfc92QKCnJ/o6oiX4JGt0BpP9AscR5l/JjPjAUchMNk4NRJKwJF4XO/UKFcxjUmYP0JNgaoORaYUbT6Fv1oRrwGFsRT/U77RSVsEkL/rgv6RYzBIRiP1Li7vHE7l2Yid92a7Ya7OgHxZSaZMg5F0FZBsDgGk2rhEi/zrjT/Ia/BklL0cikTxMD655/iCY36/Vg7r3JbCaE2wIAgZFdHofHT62dYk+b5IMBqXkK91PGZPTORfKC76+dO33MVBxb/7ru/irwEgXL0+4vVLb/m/tyMnVUCTvOuiGewUKAWmFScOKLdgkmbYMRNfXX7rgSTP7MfaNb598JFs7Nxrbfz2EjJ4h0CTuaNvEs9+cf0J23wxaY/9cM4K1zidr7OqzbGSfvqtj93OteonkU0+0SVBy+Oc2d/KYmlelzQ8AJNb5DqNcrpt3zOI922Q9sizO9CYOZ3jkY8hBuIYB9NTxz7NnvoLjhbSqhjX8tIQnAsWaqwMW6HSVRFWLOKAn2X2uii32/c5HZ5CSLwiDc/tZ0n30rz7P7MILvpz/X8uD1vRt+faqO2vhlMj9fL751Q66vbNkYvB84jibuXuJnLEenr6neWlfwFpLv+fzsCJu9Vv4SE3LSPXoRHHJH4Ro6ltXDMoVxFwUniaA4C5Kp4ucoaqhKQ4EOYEGhA6qhHEDEEE1KrVn4v3qXz5g/fLc7QbqqR7y6QKhWR9J00MPLSDB9UNfbuPtZYqKpctbj4liYD8bOSMmUKi2p3+JLLsOMLqrSVYBeakt27DsnFeXVd4ZZiPpqGsCjfsEk1gcUyTLY803uCVN9cirRJraXJvhFvzlNBk6iTxA7Mfk9PkPmpTxMlhYk9DnOImBD8hhjuUyevlCx4RIABXJWqJYy4cOImbYRvQhOyYz5YLAeywwbPEZcuXhb1G1aVNkLXrtlKrO1Z8CalU5cG6jTmj1jUOXzolJHPowlatuAwZ9YXhrkHqPJ7pHUto5N0i6eRYCo9YdxT6YMPU7Fh5mXjhnjNhnXq3Rq0xsF/yMTZW298LJYt3STb3LK0CJePdtQf3H9SvPnGJ+JSgmmz+g2qWC6u/fzTUUkmxWRvy0fvEegzYDIGH5DYiTxp/HJjAQxaO8JNVg4TvBxtjCMQzf45mmmbH4vbMZ4X/brTvg2bC+67v7KYT0QBlOOJdu+IAQMfkRonMZk2/PW5Bqke7UiFijf6FN+LvPtEyBeMgEMESpQqQPU2nySn4JupU/sR4vkXW0mSCyZO16zaIt5+I/F7B/VeF67LOhp8rhAAARjaezEBD1NtPZ8cJbp0byQKEcll83c/i+FD5yqvoulD1Y1znMCcLXaNLl64UbazNWtVFDfdlFcSL6CJ9PMVm+X3u9ot3oC+b2NNJieQ7EEcsjJfZ5dfzLmMJnMV0FKFOZfeT40VzRLwWUhmpL5Y94NdUEv3AgVzGZrGsfO+3aPD5Q52tWEMZuuVqUTktWv3hqJvr/Eyrh5dPxBDhncQt1Mfdu7c3wJkqtkJJq2gMfyR1v53wj/Te7x4fXhHcTvNzfxGZgoxb6LMPNa8t4Jsd1SmS9PcihIQO9Eu1aXvA5jLhTbwV16aHjRJQ8VTu+4t4rPF8XNAvbqPFi0fuYfmZUpCyb/Iev11nmmP8TLvMCNToEBOOa7As3737flEPCsnsmXPRMVKQ9px0xvmVlU59aNO3h7w7GTSZt9YfmNB+wIEBLtwaerS8xHsOcZSfZ9tLp6lzZOQLh3eEz37NBV16lWSGn6xGLZ1y36ae5xHmkBLiYq3+I6lgk3Hyl8r+g7Edx/amzEfLBHXU51oRAuL/9Gc2eyZawwt9VZhlZvT91yFx7ERvfOzEoiKaNsgWOiwK6vbsbNMgP44zXuZsoXFLwdPSoIntEC0bV9XYBMHtK9PGrdUfDznfyqJgEc39dXtuxIwcxYeFs3fKMaNWSLrScPGt9EcQn7aXHEtafU4IkAERZ8FwQIr5hdYvEHA6byRSt3NeoCKw+kxmmk7zbPbcG7n67xsY0JtX932527nGqPZJ+K5Y1ONWcsO5kkhIMqCkKcLSAb4DjQLNDoNHPCh6N6zMSkoyCL+9+UP4pUXp0tvGGt27HSfOYhxHY22vVnzOw0t728P/1iagbqbNL2DAIa1wM3f7ZH5Q3nv8kMGg6dQxr5GoR2eQKEFtCN2aPO2nM/uSPNR3Xs1oY1/lYlok53G7v+QlYUT8rsJm1vKVSgqxk7s5ZMa5sQ/IQUZUPiAzSrtHntTPPNcC1G6TCE5Xt5PVhqwSfCTuevF8jVDbTeIuOnPfTLk8gJjXGgF1tdqzVF6+b0Tan1128aYy+IEd6fvuZe4mcsR6WvwFmreW5HmubbKH74F8CztxMt+yU37iPy5DY84QvlGRh9g3kChb5SDhntdq196Mouq5hmQViwI6q78UasGM3/o1aQZQCqbrz7CWMgt5yFFIQB1cG+920kSikCqmjxxhfzphcRk/CAyieelQMsTdqQp+ZImlvCzkxataiQhVB0+/JtcgLcKs+OHX6R6S3Wvfcd6PoQquPfo/QAttB+VjRYmD7DjwizPDWgpypYvYnaWgxqQBhRxIIkHcoDpwoGDWlvdcpU2zEy9MriteG3gdEncGvrabIGfWR5oVl2AqJZcBDsGMNCzEpAkdGlO9SFt2msNJzfP0ogklZ4w7qn0wYep2JMnJO6w7+Dng9oueXPbrfvDR32Xbg11pyTnWKgCMdhO8HH6xjsdpVk/Oz/szgg4RSCa/XM00zbj5cUYz22/7qZv69X3IbGHJp9+3H5QavJo0XSwuYjSDBXGiFbiNu9WcbIbIxAqApgAef3NJ0TrVq/L7wUsXLV9ZLicdFCT6CpOfOt069FYXRpHrssGFHyiITB0eHvRmQgSR+hbHNpQuiZo6tW8SHJ8i1Y1dSfjHISpZZ99K3+Go+kEpgXbPF7b5BrdSyxKfPnFjzITNe8pL4m2weYIGhXeeKeTJKBhIWfdmm3yp8JjvgW7KrEJIBiBFti+zz0knuoySm5Qw3PAT8kHY58Sd1MelYDIgjyDzAMt5CBVmQV5fOb55n7HyBloMhUT9k9ZhM+RM0sS88Ug4D3UsobUeo5Fu6GvzhKv07wFJj8Vca4WEaSgxShYQVlgjvdbMl8IbdDQHIEfpEy5omL2J/2DjcqvP6/z3r3XAwJkKLS/ep6RCWzAmzy9r21+QMgDSQgLaNDghoU9XSZ/2FdAA0YsCTbBQJsbyHqYZ3ybNsjgZxavaZMgEvZ+5kFZz1DHzHNl6BuvXLlsqRUZeXPznutlgznUQmQWWtdsf78fkqgXY2c3ee/es4lYu3qb1FSxbu12gR/aBLWpCbgWL1lAmk7Sy2l17ra+unlXrPITjBvaNRDgFAlOmYpSYdFm9aP2EUcWbxBwO2/kdj3ATSmimbae7wsmzWppLUgwun8vzp3O13nZxoTavnrVn7uZa4xWn4hnPmzobLF4QTwx1FwHzONR3B87qZeltlL0A9gYoUxq6XE92qZWwHFxpNt2fEs8+VQjSa6GIgWrcQg2244c1c3YsK+XSZ2HOvZV4dwcMS7s1qOJGDd6seyXrfLuL3703zD/+TRt4IC5cWi5wuaLUMVtfx5qev78tyTlH5PGLZPfMXb+vPreQfyh1Fev2hhVLie4u3nPvcRNlSFax5aP1JRkKmwgXL1yi2jc9HbbrHjZL7ltH92GRyFD+UbGRo4GdV6wxaZD27d97mFDyPTZz/m4RfsC8yGXLl0SaeiI8fnVq1fo++6yJFWRMTKW1IIAPX8p8iMtgh9q99a+Rbw36klDNZzCG4vXt1cvLSZ9+IyhWlHdMx/TktYgXVAGf0VIG5eU7a6HN58nqm1LvJNWAZboZHsWR4MJs2CXwOhxTwlMbGCApAtYrS+/2lo81jbpRG5B2gGIATwW5q0E8WLX4PwlLwtMLFqJ07RVXNjROoIGfQVpd6pZYD7xJSJyvfZ6O/OtmL62ekZWGUbdgio/XdziibjiLJ6nOR09Tb3+QWsWJK1Wz9Q7oO6psLof5RbNI+PuLfp6u+APW71epDG1n3qO9Ht63Loff+d6GD1NqzAYjChxUk+hvWUVDVgh6Dtg6iVYwccitGOY22IVHlpgZs8bYGsDuzW11a1o4OxPkyIWbD5ZOFDgw1pJnKESNN5FPTMdC9UOxKVJxEe/r+LiIyMABMLRP2tVjzS0+fZ/OurhSFuPP9hzL8Z4bvt19S4HyrPVmAKbDSZN62PbJqF9m7f4ZUMVuzkNt3k3x8fXjIBTBEqVLig+pbqK/k+JTqbCN0PPp5uKqdP7+exAU365LiskUtZRbx/1cWKwpYSWlemz+kltn/rORYTHwgRM2A4a0ibJt3KePNnF8y+0ksQPu3SxS3wA7cr+YFz3gAvXbsfIwZZX+cPGM/X+tO9UXzkHfcRE5Iw5z8v3UZnXxLi1QaPbqLw9jO/IzFkyBhUnxrPTZz9LmsTLJpmrMY/j0deNHNNd9OrTzHKsjY1gk2c8I7Ahyyxx2rxN777NpCYs83PHjneU7ebi+c3BpRbwdqTtBos7EGAIokvmzBnEI4/dKwa/3t541lZzPkkiJIdxtNiHTRYlSxXyabvs6pVVHMG4gTjtVd4bkXb0j+b2l88b74meV/2dtMoXsPvo4/6i/4sPS4zN30v6u2AV3qkbxpyoO5Bgn42eFt7lcZN72X6/YcGwibbQoddbH3wSvlF93BLyJedcTGPjh0kzw9vvdTa0tKk8QQPbmyM6Sc1L8WVK/LZTfty+5yoeHKHtSBfztX7Pi7Gzm7wXLpJbLqLfdHPiOwwyFfCFVqYJU58W5csXM7KcRmsXDMeEE7f11em74rS+glSOsb2u5e2//y4ZxcL9MRN6Su0ghqMHJz71WZtHNEetf/sFetd94jS9F+Z4zdd63Ho8Zn/qWm+3gvGvwuHoZt5IxaPPxyo3u6OeV91PqHPAKqwXaau43BzNJlP9tTFu0kFYt/N1XrYxyI+5rOZr+NHFTX/udK5RTx/nofaJ5vB6vfPXBicNF+L6mzYvrOLC2ha0IJnnW9NnuIYI/s3lWE/5tTs6bdvt4gvGHWtz0DZuzjfaLMxXT535jNTwZI7L7djXHJ+8pvFvKALtstNnPR+vVSphzKOHh+adevUrizbt6ujOxjnK9ymtSzZvebfAczILxkRQPpGDtI3Zidv+3C5es7te5ez6E8xbPNrmXp+g5rbdzfeOT8R0EWp9ddPGmNN2gnvI40gNdDe4IawSfRyv3HBU6ydm7oDux6vzO2g8hzkwyIwPVxnf7lbxe9UvuW0f3YbXyxbsN7Lds9Lj0s+Vf70fUuNTdQ/+UR9QJdQ9FYfuR7m5PWI+QY3949ONk/MpIFWlOXL169BaXLe54fCpGgHsjNq29QCpxs4kypUvatnppkSAYD95987DpIb/NO1sLGJJVDKXG7uYDhw4Lk6Tqvu/aHdktuyZRVHahQktEaqzMIexunaSth7PH3+cl9q4/v33olSxX7BQbp8JOt1vajh3i2dqwCgcZWTcw4Fq8opz0MAZcgc6cj1hytNJtAoGUxrYgMeOv+PUFmPXeT5qTwvTIo8dOdUcJxZpwLSHKQmYYb322rQiP5nYKFDwBrlwY/bP14xAOBGIZv8czbS9xjSa/Qt2M+7be1Ts33dC5M6TTS5kYvdQsBLNvAebR/aXOhDAd8vhQyepjz0tMma8VmACqUDBnD5kBH9IcF32h07qvYdF5107D0mV8aXIvBvqVTCCMd6xo6dkuHN0npuIRfkL5BIgXdlNpAcTb7j8QCtBo7ovSG0tlSrfTAsw/VwnBY1NWBxQcs+dzwiYEVKb3ZS710dMPh765TfSxHOUTO9lECVLFgp6nK3ygl2/27fuF3//858oT6ZGFEFM3bc6Ylyyb89x8dtvfxIhOb/Abu5Q5kys4oyUW3LOe6QwCpTOeTJRs2/fcfmddkOurJJkhXFVOAXfhdDqtefnY1Tf8kgivL7wY047HO+5OY1wXXuVd4x7Dx44IX45cFJkoLECTAmFMu4NV/kiEe9/NJ+6f/9JmkM4I00q5c6dTeTDPAL9WLxFwIt5I29zlPxiw7i+xu19DG2PIEPOW/RS2PtVt/N10W5j3PTnXs41RqNPdFLLn3h8hLTqgvnYdV+9JaMAIXIXrZ8VLnIDaS4saBDmncQfyTAwbbjzx0Px5qFp3c+fKTCrfDkZ++rxPN1jrFj9efwG5PWbRoTUt8LCz/69J8ShQ7/KcHnJ9B82QyjTz3o6VucY+x8lU+3QcnqF+vkChXLSuChf0OGt4ox1Ny++d5yU0U0b4yQ9r8NECzcvywHzeWi7IO++/6TP5kKrdJz2S27bR7fhrcqSWty2LzsjqlWrJhYtXizy58svMl6XkcY/aaV2KtRhJlSllprA5WQEGAFGgBFgBJIpAqdocaR+7QHSrJCX5jaSKRycbUaAEWAEGAFGgBFgBBiBFILAsCFzxEfT18jSvE/m9GA+z0vBwlSrB+PNy7ZtX0c881wLL6PnuBgBRiAIBML9ngeRBcdeknPeHReaAyZLBHjeyJvHtnb1VtGr+xgjshHvdxW1695qXPMJI+AFAlYL/l7EmxrjuPeuZ0khw59yo++G795LjRBwmRmBiCHQ88lR0nw1tBl/vODFsKTrtn10Gz4shUomkSpC1cJFi0gpTkGR6bpMUI8lNZJBq3K6ZFIOziYjwAgwAowAI8AIpFIE/rt4WfTr31KWHub5WBgBRoARYAQYAUaAEWAEGIGUgECVqsWlRqVr0qUVd9cs56hIK5dvltp5YOJM1+gErVTDBs+ScUJjk5XZPUcJciBGgBEICQEv3vOQEvTQc3LOu4cwcFTJAAGeN/LmIW365mcjotJlCotadRLNexs3+IQRYASijsDZs3+LmR+ulmQqZKZU6cJRzxNngBFI6QgMHd5BakVOly6pee+UXvbUUj5p5k/A5CQRqfCXNBPDJCHcmVCVWmoBl5MRYAQYAUaAEUimCMDUaatHaibT3HO2GQFGgBFgBBgBRoARYAQYAWsE6tSrZH0jBNd9e4+JMR8sEe+/M1+UoMWUwoVzCSyy/LD9gIDpHkjTh6pLs2QhRMteGQFGwCMEvHjPPcpKyNEk57yHXFgOkKwR4Hkjbx7ft9/8ZET0VK8mcgHRcOATRoARiCoCMO+3m0yiQ07TxgmYC1TS+ckG6pSPjAAjECYEMmfJKPBjSeEIJGilunz5MpmfTSvSEKHqKpn8Y0JVCn/uXDxGgBFgBBgBRoARYAQYAUaAEWAEGAFGgBFgBBiBlInANdfET+1dunxF7PzxoPypkqZLGyc6drlf8CKLQoSPjAAjwAgwAowAI2CHwKtD24rz5/4RcTR+qFK1hJ03dmcEGIEoIHDixO9SK62e9LXprxHPklWH26uX1p35nBFgBBgBRsAhAleIPAWBlm9oqVLXTKiSsPAfRoARYAQYAUaAEWAEGAFGgBFgBBgBRoARYAQYAUYgeSHwBBGm6jeoIrZs3ieOHz8tfv/9vMiWLbO48aa8oky5IqJgwVzJq0CcW0aAEWAEGAFGgBGICgJlyhaJSrqcaOpCoF37OqJe/criuuvSp66Cuyxt564NyNzYWRkLrfOLAjTGh6m/7Nkzu4yZgzMCjECsIOC2fXQbPlZwiFY+FHkKJv7SknYqaKkSZPYP5Ko0R65+DYIVCyPACDACjAAjwAgwAowAI8AIMAKMACPACDACjAAjwAgwAowAI8AIMAKMACPACDACjAAjwAgwAowAI8AIMAIpHoHty86I6tWri3mfzheFChUi0m9GEZcmjrR2ppVaqlhDVYqvAlxARoARYAQYAUaAEWAEGAFGgBFgBBgBRoARYAQYAUaAEWAEGAFGgBFgBBgBRoARYAQYAUaAEWAEGAFGgBHQEZAaqkgjFY50EJevXBZp4tJIL0yo0pHic0aAEWAEGAFGgBFgBBgBRoARYAQYAUaAEWAEGAFGgBFgBBgBRoARYAQYAUaAEWAEGAFGgBFgBBgBRoARSPEIXCUWlTL3h6Og/yBWwfwfWVplYQQYAUaAEWAEGAFGgBFgBBgBRoARYAQYAUaAEWAEGAFGgBFgBBgBRoARYAQYAUaAEWAEGAFGgBFgBBgBRiD1IAASVZq4OCJRXZHEKpCp4uj6CmmqYkJV6qkHXFJGgBFgBBgBRoARYAQYAUaAEWAEGAFGgBFgBBgBRoARYAQYAUaAEWAEGAFGgBFgBBgBRoARYAQYAUaAESAEQKi6fPlSvMk/MvuH66vyGMeEKq4hjAAjwAgwAowAI8AIMAKMACPACDACjAAjwAgwAowAI8AIMAKMACPACDACjAAjwAgwAowAI8AIMAKMACOQuhC4QuSpuDgy70daqYhNJQt/mbRTQVhDlYSB/zACjAAjwAgwAowAI8AIMAKMACPACDACjAAjwAgwAowAI/B/9s4E0Irpj+Pn3fcIFUlKeyEqFUqWLFkqSVKWyFKKbKUia5a/LCFL9qiUhIoQhdBiDREVKrSQNpQoS9J77//7nvfOvHPnzV1n7rvvvfv98ZqZMzPnnPncmTNnfud3fj8SIAESIAESIAESIAESIAESIAESIAESyBQCMKTKlzh/8EyllCzl3+zsHL1Og6pMuQt4nSRAAiRAAiRAAiRAAiRAAiRAAiRAAiRAAiRAAiRAAiRAAiRAAiRAAiRAAiRAAiRAAiRAApoAPFTBkCovF0sJ9yf/Ik1srBTMqigkQAIkQAIkQAIkQAIkQAIkQAIkQAIkQAIkQAIkQAIkQAIkQAIkQAIkQAIkQAIkQAIkQAKFBNau/U19/90atUNOtmpzVFNyKYcEdKg/MZ7Kzs4WuyrxUBXKUjmynpubS4Oqcvh785JIgARIgARIgARIgARIgARIgARIgARIgARIICaB1as3eB5To0YVtcMOqZuHCVf6f/31ry57p513FEVlyTrR37z5b4U/t+wsddljj13dydwmgZgE/t36n/pvuyjbc0Jqp512jHk8DyABEiABEiABEsgcAqno+26XfsdW6X8gOlXFijtlDkxeKQmkgcB1V41WCxesUIe03q/cGlRl+jcy2mnE+csVr1R5+XkqlF9gTBUSo6rUaUbScDOX1yJ/27hFxmmEtwAAQABJREFU/fzz7/ryqlXbVe1ZfbeEL/W33/5Uy79fo8+DRV2rQxoVxoBMOKukT8CNuPqnX9XXX/2olnyzSsehrC4KugMP3ls1b9EwZn3+/vtffd43X/+ooPDbffdKql79PdWRRx+gqlSplHS9Ej3xG6n/339v1afVqlNN1a69R7Esvlq4Ujoy24qlR0rYd7/a+nq89v/zz79q0YKVavHiVWqXXSqog1vuo/ZtVEtpS0mvEyRtu7ij+/7b1WqxsPrll9/VJvn9q+xeUdWrV121OGhv4VY9wpkFybm5+erL+d+rFSvWq7XCett/2+XcPVWDhnup1oc1FutMRA71FljprpHfOZbs06i2qlq15H43uz64F5d9v1Zt356n77v99o/O0z531Y+/qC+EzcYNW1Qj+d0Okt9j1113sQ/hegQC5B4BTALJGzf8oVYsX6/PqN+ghkIb6iVLpL34c8s/+v5ueci+ejn/s+91u+t1fLS0qntUVhVEGbxuzcZoh0Xc1/zAhlqZ/J+0Iwu+WO553G5VKqoGcj07VtjBc3+8ib/Iu/LHH37Wh+/fpK7ns2kz9Mq3SdN6qlLlnb126TS8TxfMX6ZWrlyvfl6/SaHuNfaqog5o1lA1aVo34nncQQJBEvDbp7LrEk+/xj4+yLLtfBNd99NXscvy+173825Ltm+Ltm7+59+rtdIu4xuhatXKql6D6uqgg/dRtWpVtS+P6ySQcgJwff3Jx0vVyuXr1E8/bVAwRKhXv4ZqIe//ffatGVf5fp/DuArhQSVC4IeVP6tf5fvTLSExlMG3aLy6DBgl4Pt30cIVav26TbqPBZ1Bg4Y1YuoNUDaUnMtk5ijuLRg3oM9cr251+ZbdX1XetaifhzbcTx95n31ruS81ZdtfSP8zV66lUuVdAu1z/vrLH6pTuxs96/3EmIEpVRQvXfKTOuu0O3XZ1994ljrn/OM965GqxBH3vaxeeuGDYtm3OHBv9ezk64qlM4EEYhG4tO9Duk1Bf2zG7LtiHV5sf6qecxQUVN+5WKULE1JZ90hlMt2bgK3zSERvBD0z9O3J6n6atWig8G2Jd2uiAr2TeacG1ZeIVId49Eb2uUGMy9j5JbKezrITqWdQx9r3rleesfR1XueUlbTyomts1byfvG/yVOcuh6k77r6grOBPup4YB1sk3x3ffPWD2nW3XfQYZzP5ZqlUyduwKRV938cefk09NWqGvobZHwxX1fZMfOw4aQCl/EQYhqxZXTSeUWOv3SOOR+IZhJ4fUr3GbpxcEeW3zbTn3KCY8cbnWs+A7X4Du5jkcrcM+ht59BNvqMcenqY5TX/7dlVHbCpKu2SJRRX6xVlZ8ieVhU0NdJ80qCrFv9xPq35VY8e8pV575WOFgWjI6d2PVv+77byEa33jdWPVRx9845z3+cJHfQ9cO5nFsYKX0YDLH1cY5PeSE9ofrEY8cqnXLp028dk5avhdk7UCwH0QjHsmTrlJNW5Sx70r8O0FXy5Xvc651/k47NO3oxo0uFuxcgYPGiWK39+KpUdKuPv+i1Snk1sX243rvveuF7SBlL0TL38oN70GKeZ+uFgN6j8yokEXeJ3arY0acNVpxToQuM8efmCqen36PLXh1z/sIp11GHNde0N3dXibJk6avTJl8vtqzJNv2kme67ff1UvXw3NnihJhaDZDru2p0TPU8mXrnFJmvT88pnIfH3WXXPiw+k4M1WzJEvP/83qdoK65/kw7mesWAXK3YPhcnfnOAnXn0Od1Lmh70AZ5yS1DnlHfLv1J7/po3oMqJM99n573ex0aM+3ots1Vw71rqGfGzYx5rNcBE18cog5oXl8P/F/Y6wGvQ3QaOin1xSCg7yUnqZPlwxvPVqJyy43jFdpA5DVtxlBPg6p33v5SDbttYsSsHx91hTrqmGbF9qN9fPaZ2WrU46/LTPoCo1r3QRgkxGBQ+xNbuXdxmwQCI+C3T2VXJN5+jTknyLJNnokug+iroEy/73U/7zaUn0zf9vN536lR8iE675Nv9Ycc8rElR1xO9zjvOHVZv85RDUPtc7hOAn4IYPD0rtsnOX0OOy+8x/E+Rx8ZE2G8xO9z6JUn09JL4IlHp6k3Xv8sYiUwa/q4Ew5UV1zZVdWs6W0ACiOqfhc/qv74469i+Rxy6H7qkZH9Is6+xrfa3XdOVmgvvQQekFrKbNIxT1+pd8Ow1U8f+bEn+3sVE3gamFxw7r06386nHq6G3dM7sDKk25w2sQfd7fWSqlC2KEbLuqAdHTvmbX0Z0Ku1bLVvQpf02tSPpQ1frSfAXDHo1ITO5cEeBArtSJKwJ9EGpKl4zoPqO3tcrZOUyjbKKURW/Nyvfp8Vux6lfT1ZvREMjic9Nydp3c+4ZwYH8k4Noi8R7TeKR2+E84Mcl4lWH6996Szbqz4llZasvq6k6peKcsqbrhHektCng1FVSUi62nbog24ZMl5Nf/WTYpcJ76733H+hatehZbF9dn/XXi92YAIJdp/DXk8gixI/1M/7PJHKwgDmjlufc045ok1T9eTYgc62vfLipPfE6OM1ndT7wg7qymtOt3cHsp6u+9VUPijuJf2cm/qnc4m2+sH7XtJVwLg4HNaUVwn6GxmTOmCMBMkvXJZ6dqImgKYAw5P4vMNYI+57GlSVwl8OSsCxYlX81ozPPQ2IEq3yG2JAYhtTJXq+3+MxO+WKyx8LM9BBx2LHHXOcQelIg9PonNx9+0T1wqT3w6qBj7y//vxXP4h4IOHFKdWCRnPozc86xlRBlldfZuu6ZdxTb6sR9xY00tgHzy15wgMPLgY0L+x5n3QABqn9G4d7RIHlte0dCw87rOKNK3vwennKR9rLzdgJg8UVucQCLZR//tmmxo97x2zqJZTOcL//558FBgTw7HSZzLob/fRV2rVh2MGldGPbv/+pV16eq54WA8U1SXjZwewlGIIYzzcYIMLseyjg0fmd8PRMtVXuwZtuPTcpI5BSis13tcjdN8KMygAdq5XiFW/IdePU2299oR5+/PKErn/pktXamAontetwsKrr0a4mlKHr4DvFCOvlFz90UuExEN4OMKvfvMOwvuz7dWJQ5RzGFRIIlICfPpW7Ion2a4Is212XRLaD6Kv4ea/7fbf56dvOfOdL9cncJWG44FHvH/Gciv4d+ojokyyXvtrIMQPYJwkjxY2gCWBywuV9H9b9YeSN77NG4oEW32X4nsU9CQXzbxs2e96Pfp7DoK+F+ZUcAfSZpr/2qe7rwagJnvVsQRs3sN9I5/sek4GqVKmsNm7crA+DodSFPR9QTzw1oJiXavQje/YY7tyT+A6GsTu+Z9eJlyv0NdEGz/tkqV1kmVgfO/otXU98h/a5KNiO5h7VdlOLlj7pcHh92qfqhmvGOtvleQXf7/gzcnKHm2UA/RezWSaWv/yyWb/7UdkaNXZP2KBqpkw2eXf2Qm2kSIOq9P7kqXrOg+g7xyKTqrq7y/Vzv/p9Vtx14Xb6CMTqS0SrWTx6o6DHZaLVx70vnWW768LtkiFAXaM/zulo26FLGzzgSfXunEVO5RE9BxFttm3brh1jXD1otPrf7eerbqe3cY7hShEBP+/zolwSX/t47mKJ6PODatqsQeInB3BGOu5Xu9rp4m7XoayuzxInB/BIB+lx7rF6WV7/KQ/fyH5+G238JVZU23NzC6ypxKRKG1Pl5NCgyg/YVJyLH+vMrneEGe1AOb1l8z9JFYdZncOHTU7q3CBOwvVcI3FFjbcjuNgfdFU31VjCIsGoCq5r33x9nhgIFQ8LgPLfEGWeMaaCAda1Q85Sxx7XQg9io/OC8IEvTHxPvJAUue0Pot5eeYwTY5zly9Z67SqWNnL0FerfKCH/fv/9b3XpRQ/p8+DSGN5bbIGL5QfF/TwESuThD/RVx7drqRXL94qnrldemqvghvLOoRPVMxOvtU/V7kXhXaWtcGpzZFNVU0ISQokMl8nvvbtIjR/7jv494JXiGRl081LIIhTfuT1P0Hk03Hsv/VtBsYjy5n60WA+QXDd4jHrj7TslFFjkEF0wiKgeIURl3Xo1wuqdyo0xo95UTzz2ulME6pwr4f7QEMYjD4+Y6hhTwQIZM4LhPhWz8q+47FH9fL44+QPV7sSWCpbulAIC5F567gQY/0x++cZiVuAbJHRl/0sf1RWFx7s7Pdwx77pbRVWhwo6eXvSeePwNrYBHBvBc17JV+KAY0uHVzi0YPLttWC+dvG3bf2r1qg1q6itznbyg1Efb3/3sY9ynRtweN6bAvTEO6NM38kDTSeINsEWLBmH5jH5yhpolhgqRBB/JxpgK7eOQW84Ro6mWjrECjFynyaDxs+OT8+IVqVymk4BNwG+fys4L64n0a4Iu212XZLb99FX8vNf9vtuC6Nsi3HWPc4+TUKP1FAbC0SeeNvUTdc+wF3RfEX01eMAq6dBJyfyOPKfsEsDsTUwugBx7/IFq2PA+TmgDDAbBsytmYOJ+nPn2F8W8N/p5DssutcyqObwwN5VQypCNYlj3tSivMXFs06Y/FYxTbxQj+imv3iwTVSo4YDCoZCZLnXnW0erKq0/XHvcwsaXfJY/qEH6Lv/lRPT9htrr8ii7OeVi5/uqnnHuyU+dD5dzTJCzz7voYhBCEBxV4ALcnm/ntI4dVIEUbKySc5pxZC3Xux7Rt5tm3TlHRzJYESKCECJTEc+6n7xwNQ0nUPVr53BcsgV69OySt+4F+24/eyetKkulLeOVj0mLpjYIelzHlxrNMZ9nx1K8kjklGX1cS9UpVGeVR1zhWPNXhXt6zepVUYUt7vvCkZoypdhOd+WOj+ku4+71lLPA/9dyEWerB+1/RDO6+Y5I68aRWCt8bqZTzeh6vOpx4sHalske1yqksqlzkPUoi6zz4yGXl4lrSdRGZ8Jy72b4gHswgMJ5ENBdK/AS6nnaEePQq8KK8VwQv5fHnlvojc8RwChKCN2u4qRLJyc4WW4LtNKgqwFG6/jXuHg9uuY/qe2kntbO8dHufd19Slbzv7ina8AYxpmEhHa9BUFKFeZwExd/qn37Ve45vd5C6d0RfbZxjDkWMdBjuRBIY/0DgnelJCXHXqnWRKz0YZIER/lItMEYaNfINXQxc7Hu587TrYOK+22n2+rPjZzmbXT0s1V8TwwJzH1zW/xRnAAKepq65vrseNMPsWhhFoW4NGhYZJ8GICn9uwTENGrbXM8eNMdf8z74PM6jaaacddUjJzl0OL2YoBW8vIx69VHU7+VZtjQtPLN9++5PuMLrLMtuNm9RVpaGRNO5Owe+sc45V51/QXl03eLT69OPYs5MxUPSOeMuBYNDyHhkYMGFL4E7/9DOOVk+PLXCxP1UM3WhQZX59MeCFP0QRci/gkM5/MZsd7wG3GGNXpFesuHPUGRqY4e+WavJMGNl7n5pRzzfHYVlRnkW73dpv/zrq+PYHaWOA554paB9hLBuvQRXeM2+LV0cIjB6bHhBupKp3FP6Dj1382RLrQ3+2zEIwcvd9FxULeYrBuoskVCHCf/4ug4QUEkgFAb99KrtOifZrgizbrkcy6377Kn7f637ebbheP33bY45trrqedmSxMNfoE5925lHS1/9PDZPwa5D33/uKBlWaBP9JBQF8p3zycYG3NEz+uPWOno4xFcrDe/3Sfic7YYq/XvSD8z2D/X6fQ+RBKf0E6tap5vT30O/Dt3yHjq3U6acM1d6PEc7m4w+X6D4grubLL5Y7k1hgfD/klnP15CLsq9+ghkJ4PXyL4jv41Zc/lnuss3a9jv3r1v2mlixehVXtfn/Y8N7OPqRhQg0md+EPnqyMBNFHNnmlajlOwrkZ3UCfi09KVTHMlwRIII0EUvmc++07x8KSyrrHKpv7gycAvY8f3Y9fvZP7ihLtS7jPt7fj1RuZd24Q4zJ2+fGsp7PseOqX6mOS0deluk6pzL886hrtsbtUsktn3lNf+sgp/q57+zhjY/je6NO3o1omnpwxdohJIgg5d9oZRzrHp2IFk/7xR4mPwJyZCyVyzzqFcQxKcgQy4Tm3yaz68RcFT9kQGEnaEZ/s47juTQD2AaXBRsC7dsVTYRScm5er9UkYA4DOKFfS4AGdIf+K80prCn6c4044SJ0vg7KHHLqfrgu84CQjcGX/qhjmIM8ht/RQt//vuWSy8XWOGTTCzXb19WeGGVPFyhguGL//bo0+7KROrcOMqWKdG+R+fMzcdsuz2iANHgHatTs4pkFVrPJfKgwbBc9RnbscFnY4ynvtlY91Gn67M7qHe2h54vHpWolsTpoqoewGDe5mNmMuWx9WcF/hwOXfF/A1J8EL2OndjzabxZaYPQwL3MkTCyxylyyOblBVLIM0JdSURrvfgC7qnPOO1+FIEqkGjDTMLOn2EkbMGFMhD4QqeXFyUTjKWTMXaG9V8CpHUYrceRckSqDfFadojwNoB39YuV57w8NAbSzBuwahhSBeXvdinR9r/8IFy/UhaCMPO6JxxMOhrC5LHcSIF8IdpZKAnz6VfUHJ9GuCKtuuR7Lrfvsqft/rft5tfvu2XgbzNscOJ7V2DKqWLvnJ3sV1EgiUwH//5ao/t/yj86yy+64KXi/cgokVRlaJ4Ywtfp9DOy+uly0CaEO7nXGUE6Js2bI1jkHV1JeKQiuf1Lm1Y0xlrhBGVc1aNNSTimBANe+Tbx0j94VfrjCHKXyzQ/8QSeCBuawIvKAiBB8Ek3miTSbDrHh8m8IwbcXytTJIUEt7j4XB7buzF6m1azaq3arsUky/EBSL33//U7085SP13dLVunzoDvZvXFcdJPXuJB5i4xEYfL8x/VNRWH+vQ2o3E0/eRx7VzLlHvPKA97L35nylvlq0Qns+Rz1qiZduhCBt2qy+6tjpEMerrNf56UxLtu4jH50m3ilzddUx0c0IPJLj+m2pV39PbYxt0jCp7qMPvzGbEq68wAv71q3/KngOdMuZ4jEYz23QAm/hIx+dro0FDxQDyrZiNI664R6G0SO8b9YRo8wT5fc7UfSB0J25BX3at96cL57rV+rrwD2OAcUGDfZSJ3c5VBtXmnPWyL6XXvhAbx4vOteJz8+RkC+rVLPmDVSvPu3VXjJBBrq2zz79Vry+V1Sndj1CYTKll8DDHrwpw+sddJYNGu6lDhGDUbRtyUis5xwhdk07AON6d6hUu0zUa720jzk5IceLn9++s52/ez1W3c3xaJ8+ER01PATC+z10aRiM2ke8WTfar7ZqJ5OrMInTLX7vVz/Pil0Xv/crok5MknsOURbWrd2gn9+qe+wq9/geChEG2hx1gA67aZfJ9cgEovUlIp9VMLEllt4oyHGZaHXx2pfOsr3qU5bSkm1j/LavhlGy7/MgdY2JvBNNvc1y7oeL1eeffaf7S30vPUn9ty1X3nPv6Qk0aOerVq0s0WbqKXhCqlN3T3OaXn74/tfqW+n7uWW//WtH9eLy2tSPtZOASpV3VhfIexjb6NtjggTeBwcetLeeNGaPw5gygmrbTX6JLBHyy0zQxzcwvjvccsqphzljh6++/FFUg6pk+r7m93KXizbkoks6hnn/dR9jts39snDBCvn9flKbJBJOo/1q6d+5+9ltwyZLmXPcS0yOeeet+dqAbLn0J/Py8lXtunuoli0bKTiQ2HXXXZxT/L7PnYx8rMDgF/cXrn2MeE1GBJpEJZnvnSDu12TbmKC4J/ucG77JcINX6wkSXQmC/u8+8m0LPdJnYtiEe7ZW7Wra61HPPh08vxNM2UEs4XXdSLRxIXMMlsm+l3Cun/YxiPORhx9BaOZJz73rmQWcncD5RmkWtBHZ4pEqV0L+Qa+EbZNGg6pS9svhxffQY/5dDuIDf+gtBQZUp3ZrozshJX2peHDgQQmCzgWUIYmI7Yr/bHnQ0iUIr4dOJWb/33DT2WrZd/GF/YtUX3RUjKewo8Q4aQ/5iLZlvXRUTTzW/RvXVvDiZQQvfeO9xaR98fn3ZjWu5c+iuDBSpWp42SY92hKNh5GKKXZZasrxu4QSOVn54vOCexjnH3Fkk7Bsht0xUSt6TSKeu6+/XkkvVYVAyN3cGVzGSwAf0rvvXlF7VoRXxZ9/3qRq1YquwN+4cbN6RQxLIfBMBQ9VQYtp91Cnb5euKeYdJujymB8JuAn47VPZ+SXarwmybLseqVw3zyzKcPdV/L7X/bzbUt63tfpou+xSuj9QU/n7M+/UE8DgLL5h8A7+5++tWrmA71hboAAzUtP1Lvf7HJp8uSybBOrWKxqI+UnCPhv5atEPZjXi9xS+x4yO4atFK51+n93u2/k4GZbRlWdEiWzC1PeWGe+R5LeNW9QVlz+mvlq40jkEg4QY5PhABrr+3LJVG39gENo9Ycs5wccKfpNrrxqjDTnsbGDcNen5d9WM1z9Td9x9QdjAin0c1mGY8qSEE7cNgqD/eHHyB9qr+dXXnVnMyA4GMkNl8ptbMDiFwSYIDFEQktQe1HEfn45tP3UfNfJ1ZzKJXXcYA+HPlkNa7xduUPX5d2qMhDpxC4wMvNJhzJ0Kg6qtYmAz+okCL/AI7/m36A+vGzwmrFow9kJIHRjnweO9LRjEu+XG8doIy07Hb48Z5FNeeF88k7cTD+9n6t0/ycxyc31miR3Qzc0XnVp18cpjT2bFoC4MqzCAYwtC2V5x+eMKnheN4FlD+HhMsPtHritRifWcw+OFqfMyeU4eHtnPs4g//vhLIbwQ2gyEHnKHRfU8qTDRbkPdfedo58Wquzm3U4cblW38Z9LxjENGPf66um1YzzBvlkif7/N+9fOsoHwjfu5X3I8D+j3uGKKbPHHffCb2svg2w28Fz56U+AlE6ktEyiFevVFQ4zKR6hEtPZ1lR6tXWdiXbBsTRPvq531u2l6/usZE34nu3xSG1sZwoZt4Uxo84AkxPCmaoIV3K96R2vB56k1hp78xfZ6a/po0Zi45+ZTDYhhUfSIGVEv1xJwfZUIt2kIjaB/fnb1QDPU/FA+1Vyg7wgGOCaptN+UlslwsIczN73bYEU08jfZbtWqko+1gnCjad0kyfV/U1f693HXHGKodTt29H9uIVnHjdU8rTPizBX0ieNTCPX3fgxd7RrrA8bh+GEuMuO9ltXXrNjsLbegCz2uPPDRVzZh5p472ggP8vs/DCklyA1600d97792v1Ay5b+F8obZMwohXkv3e8Xu/+mljguKe7HMOtsly27hhs9P/xUQBROLCZAYjaCc+EM/8H4qx/uhxVxX7TjTHBbGcL7YBRprLBK94JNn3EvJ+bWry7WMQ58dzfdGOgW7ioQde8TykQ8eWpd6gSus2tWeqkDaqypaJPabdp0GV589a9hNHPjZdz/qBp5xEvBcFeeWwYDcCN4BQPMyetUgUW9+IS/5NMmNyL5mxWEcUekd7zsQx58PjxwEyMxHW3zj3M2nAoAzDjMO2x7VwPHmZsoJc4oPrgeFTdJY9e7dT9epX921Q9dILHzpV7HpaG2fdrGz8dbNZDeu4QMEFIzksGzepoxWOWEcd4xUoMO6wPJUdeVTx0ICx8lq4oEhJe1CMcIt3Dn1ebfxti1ioK7X33jUUQiGeIrP8qteoEquYUrN/g9y3RmzX1XNmLVDGNW/TZg1kduMP+rCNG7aYw7n0QYDcfcArw6fCev/33/92riAei3WEUMVHKqRP3xOdc4Ncabh3TT1zCnmOHf2muuOuC/THcZBlMC8SiEbA9IlwTDJ9KpN3Mv2aoMo2dSiJZbS+SjrfL4Zlqvq2xsgAjGP10Urid2AZ5ZsAvCpjwBrh+6bI9w0GxI0gJNvzE2abTQVvILak8zm068H19BAwbSFKRxhoI78VftdiFmD9BtVNctgSfTIjG0TJasROxwxaGBY1PzA+ZafJo7QtYRwBBTpkX/HickzbZhGrOFAG640xFYxfjj3+QJUVylLvyjerMSyKeLLPHdAxXHTBCKc/jm/j1qL/+VMMZN6dtVDrKzAodu1Vo9UTYwZGLA3erSDNWjRQhx3eWP3yy+9q5ltfam/RmFRWrdqu6sKLw43K4MUIAk836B81FE9BCMW9adMWNVvCeSC80/syaNL3ggfU5JfDBwD1iWn8x0/du599rBjNFFz7RlFYzxZDHgjYNbG8AyLNfjb0Mc0bhrXX77/3tXj22qRn355+ZvGQNOCZalmxfL0Yvs3TxcDbL7xawEZ86ZJVnkY40C2edfqdjoEK9EuYLV63bnXtie3LL5bp8KHwCuQlaGOgzIchFe5f3Cf4g0eMffatqQdxoTR/UwwB3QZVA/qNdIypYNABneR/MukGxlQmFIhXmZHS4nnOMTkVXqnQz/tIDAU3b/7b00Bw1ttfOgaY8NCViETrO0fKJ566m3O3F3pUw7WgbQZrDE7AaG72zC/0RMXBA0fpCcboXxhp5vN+9fOsmDq4l4ncrzCSGDzwSedexeSvQyX0bLa0WWtXb9D3IBjk54vSlJIQgUh9iUiZlITeKFLZTE89gWTbmCDaVz/v8yB0jX7fie5fZ9htE7Ux1Y4VdtAei2qLF5i1azeqJd/86D5Ubx8sxkPwTGQEhheJyG/iGQnGVJhg2659S21gNfejb6QPsFrGNn+VPuYD6k0xzIGjAyOpaNtN3rGW9vcHPFR6CdjBUAceN2HkjPclwlm6JZm+L/KA19qtEk7QyALx1Gui/Ji0SEtMmDz7jGHaUySOQV8G0WgqVdpZ9zNg5AbufaVvP+2t28MitZg8H7r/FTV2zFtmU09wQf8TRgjfyzvtk7lLtHeebYXvfhzo933uFOZz5aJLO2mDKugrnpZruPF/58SVo5/vHb/3q582JijuyT7nfrjZP8wTj72uN2EjcHDLfdVvogd4S7xVYWwc/W9MIoJX4lTJosLx8D2q7aa/NeMpJ9n3kp13Mu1jkOfbeSWyjva8U+eibxF4FIMBXFkRfAfqt5os4akKAqO+XPn+LnoTlZWrYT1jEsAL1IRm6T/g1DAPRzFPDvAAeBYxghfqOWfeLYZUv5kkbYAy/VWlJotF8zCJN+x2W/3z+t/1sYjdjtlYbvfjUAxiNhQsr6++/oywjpVTiM+Ve+6crJUVUOpccrn/2UJ//rlVXJJ/rmsFz1Nu5Qx2bLAMpHbdtaizNem52ZoZwl/dekdP1f/Sx7RF+QbLAMt9ubC4/laUUFC4fDJ3qfru29XOIfDk0vuixIwPMNsRDSAEswPcbl6dzAtXUL4RY3D01Kg31cDBp6mzerQ1u0r1EtbQRjBDEYKBo7vumKzXoew5uu0B6rZCgyp7gEgfwH+SIkDusbE9KB8wDz0w1fNAYzXtubMUJ44f97Z8iBcoExGOJdZMcrSpcEMNgcFrOwnLmQpBqAkYUUIwWwfK93YdWqqjxPsiQlTEqmcq6sQ8M4uA3z6VoZVMvyaosk0dUr2M1VdJ5/sl1X1bDBQYOVrCh1BIIJUE+g/son74Yb1WYN3+v2dlluoc/R7+RQanMahrvMzAG44JZW/qk87n0NSBy/QQwH0x1ZqBbnQAUGpv2vSXrlTFShU8Z3tjZ2VRzhkxBljY3ldCVGDyDmZWQ+l8fo/h2ijnuBNaiKHNftogSc80NCeXgSVmfuO7E4KQ1pHqj4EPeMGGYOb1qHFXOmE4L5ZBgz4975cQfKlTYI6R73szueE08Wpwy23nOSEXL7mskza2WiXegaC/QT0RwiWSIMTaHXf1cs4/86xj1CV9HtJGVRPGz5RQMycoeJMwglAPl/XvLAZCx+hQbyYdy0Gic+h/6aO6XHhZAKdDxVCrtIifut9w89nOZeDajEFVRwn9i4mA0aSNTKrDn5EB4m0Jhgk777yjunnoeSa5RJf4toLnQ1xXj3OPc8rGIOSLEsJur5rhRl0PiEcEE3b2hPYHq9uH9dIDseZEDK5MGP+O1peZNHt5xaBTtXEePMN3PP4GvQteF19941ZtnHe9eMp6Q4ypvpwf7g0ekzyN4SL0aaPlWcMkVshFl5yknzUMQiYi8T7nnU45VA90on2bKe9YPGtuQZ0hCI94otwL8UqsvnOkfOKtO84/QQbJ0R4jvJ27LUNEgIt6jdB6gGfGzZTjigyq/N6vfp6VSNedyP0KtsZjJ7zFjRo7qFi2OMbNpNhBPhLKo94oUl8iEqaS0htFKp/pqSeQbBuDmvltX/28z4PQNfp9J7p/HUxMQP/87vsvCosYgMHwWe984T5cG2nbE2tgjJyoTho61THjBzvRAPrLe/qqAU9qA2eEiJ3+2jzVTULIGUlF227yjrUM+44t7AN4nQODAiM4x8ugCvsT7fviHPR98GcE7Xy8BlUYYwVTCMr+n/T97L7102PfFucSL+mxxEdGvCr9+nNNMXoJb2UYj4XgGuEF9lgxLrcF3x233/qc9EcKDBGwz+/73M7fzzq+Q6CbgBEOol3AOySMZGKJn+8dv/ernzYmKO54xpN5zv1wc/8m+MYZfO0ZTp/pBBkDgjE+5NVX5qbUoMoYUsLDWbzi571kl5Fo+2ifi3W/57vzi2cboVrvvu9C51AYxD3+yGvOdmlfQb88VOiBX49TimFVFiqN9NJeedYvMQL4gW+9eYK2ft6/cV3VvcexiWUQ4NH2bJER976kjakwuw0hCPHxb4xxVsusnEFwfywD47aY86GQeORBsbwSwUvgbFGw4EVt4ldOFOU9PrqDFsxkxMA55Box2II3Ab+CTuU/hRbkcH2KmZRugYWtEaOcAQvD4Lye7XRYq91220UfhvxMnuY8s4Tx1qMPvab52MZUF192snr6uasTcq8HhRXuLQjYD72zlynGc4mGExbzcM0OZROs8yH4neG5apq4LiwLYjyAQSm1S2GIw0cfelWHM4D3nBtv6SEvpiLDt9/ooSqQn5Xc48OoLaZhNe36i+/s9B2VJ0puKIPxh9kxGAi46/ZJCnHFjdgfhybNvXxx8vvKzDy+4ML2zuCL+zi/251Obq06dznMyQYzLCY+O0f1u+RRdfRhV6m+vUfocCJQ3lNIIBUETJ8IeSfTp8J5yfZrgigb5ZeExNNXSef7xbBMRd8W/WEMSEEQavskabcoJJBKApgcMvaZwXoAHOVAiTvy0enaow4GujAJBCG+bh5afNZnOp/DVDJh3uEEthX29eChAxOrMHP0/LOHOx6WoYQ3Bi6/i1djM/hSWWZIR5LwwYkiz8D4VoMHUTNYAb0IwlgMk/7l6V1uUyceP0S/P39a9UukrEtVOsJnGC9v8DjV0Zrh6a7o89InNQLv5FWrVjKbenLdpf06O9tBr8C77EsvfqizxbfytUPOCuuPY2La5RJOw4i5JrNtL+F54Nobzgw7HwN6nQs97SB0wNsz5tun6Alql/U/pZgxFQ6CrqWvGJQZsb04mrR0LjG5rqzWPRXcwMI2pkIZ+A17nHec1ieZMjGgO/3VT/UmJl/eI8p6u13ADrx/LujTQSFMpJc0a95AJyO0vNG5NTmgnqOfaySGiZA//ijynIxt9LWMDLiqq3Mu0qDrTHQSZiLP+YknHeLU783X55lqOEuE7zEesg6XMI12O+Ac5LEST9/Z4zQd4sc8z7HaKJyPAVl4wPAyHIKhkTG8XiTeBc0EK69yS0tavPcrjMyNHBXBy2Br8Vhlrt8cG/TSrS8y20GXk4r8EulLRCq/pPRGkcpneuoJ+Glj/Lavft7nfnWNQbwT3b9OlSqV1MgxA8KMqXAMPDhiPCkV0l0m3SMaixG8/9EnNO8MOBkoLWJHJnH3P+w62t8z6MN6STJ9X6984k3DN7gJ7bj3PjXVrbefH2ZMhXzO69VOoX8FgZGKCT2uE+Sfxx5+1UnrL318tzEVjkPe4yZc7eRjzi0ty76XnqSrggkh8YwpB/m9kwwDP21MMuUFdU6Q3DDxYcCgrk6bgDq2P7GVgpdByBqxL0iVoK+M8SsI2sd4xc97yS7Db/vo93y7Lpmyjm+RPHiPhQGV2EFk6b8sbSSakykQMuU6J098z5kxBetXKBLSJW7lQ6tDGqmHHr/c8eQBIyBYm38kcU7hvk57Lrqqm1NduMO0BbF7O3Rs5STN/Wix6nfxw9q1H8497cyjPN1QOicksIKZoDD6gcAlMxroIMQoG5FXt9OLzyhD+pY/i9yS77RTBSRpRTDqhJdEP5kNDtlJZhAa+XPLVs/4yOi8oaH/VzoIttEVvMDAIOv8C6LPXjT5oxEZct047fITaRf0aS/uFfcxu8OWcM8PxeeRRzcLu/8wiHinuI2Fu3/IvXe/qKBQgOFVaRa8NCEVCg3qFouL24nPFnTk4WkL7uUxm9OI/fuZNC4TJ0DusZkd0aaphDbY3/NAzBaJ9MHmeUIJJ2KAq1XzfhFLbdK0rp5tHvEA2YHBOfMhWG3P3VSXrkWzlaKdl+w+zLoBc8x2hutpI1BGYrYy/qYgzvyIvnHNbjHnc0kC8RDw26fy06/xW3Y81xfEMfH2VdL5fklV3xaDxPfdPUVjxOyjoeLJlEICJUHgycdfV6NllquXwMj48YdfU7Uk3AEGS21J53No14PrqSXQ+7z7ohYAJb4Z9LcnV5nvLq+Ts0WZZeTfbf+ZVb1ECIApr96sZz/OeGN+2PfvejHoGvfU22IQ8a6EduihJ3mFnVzKNl6R8HfGq0kv+faGwVgkMd6n8F2NCWhuwQQneP9B3zlogaGc8U6FcswEJLucdjKDfuedK+jf44eV6+1dYetHSt29lNQnnXyoenHyB/rYFSsie9rCgM/PMuMevzX0H5BNYqhn5Pffw/VLJj2ZJQYw33mruJeGWHkhFKM9YGiOL8m6mzKTXULnuEn0d4lI5co7qXPFu1gkwYDkOecXeaaKdBzSlyxe5RhfQp9lJu5FO8e9D/UxUrHiznqCju39rmLFAj0c+s/oX0KRDkHoHgietcMlxKBb2p/YUt16U8EEV/c+r+1EnnPzfGOCxOfzvtWGqRhcMgJjQ9QVcrJ4s4pH4u07e+WVSN3d56M/jOf0N21IW7DXtHEYsPr7r3+LGcm580jndiL3a03Lu9q0qR+L94TWxYwUUn0tZVlvBDaJ9CW8WJa03sirDkwrWQKJtjFBtq/JvM/96BqDeCe6f53zLzhBVaxY9J5070/Fth0ayuQPRwxNm9VT33z1o1pR+P41+9K5/OuvonG7ChWKxoPcdQpZfXfTL3Uf47fv684v1va3S1c73wP1JNTfQtEjGTETW7DdvEVD7f0U7+Rl368L67su/maVPgV99jPEQ2xZFLwXEaIc0XReEE+oF4qXUejRIkmQ3zuRyog3PZk2Jt68gz4uSG5tjm7q2edHtBI4a8HE91TJn9ZY/c67RH7mo5Wf6HvJzstv++j3fLsumbKek5Oj8iWUbSiUJd9XuXLZWWJbJSH/5FuLBlXl6C6AwcrDheGf4LIR3oHSKcaDEuoAi/Kbbj0n7OUEpdo115+pXbDjpf3enEVqoGVQhdmlUGBAOnRsGWZMhbQ2MuuqQ8dDFLw+QQE7X2blIwRTEAIPRGj0YRF/w01F7tT95I0BeBP2Di/tfRvV8syuSpUib0d//vm37sCYUFM3y6wu4ykLSgYjNmuThiWM6oxbSRhXvPP2F2qkuNeDARsMmsyMP/scr/W7JbydMYRq1bpR2CxT9/GHeSiWcAxm7N3/0MWqe7c7dSgGzFx/b85C1fU0b8Myd77p2sbvgfsQf+hIDr35WW3Eh+er+9kFHce/rN/C/v3SVefyUC65x/4VYUzVp29HzwPffP3zUm1Q5VlpSYRysveFHWRGzAkxw7hCIYmZuJDzeh6vB4r0Rgr/OaXr4Qp/CCczT1zzz//se3mHfeN4WMT2kGufVk+OHZjCWjDrTCRgv+eT6VP56df4Lbukfq94+yrpfL+kom+Lwb0Blz2u+yiYSHGnGH/C2JtCAqkmgNACY0fP0MXguwaeQBo3rSd95q0SDuJLMaaaphBOCeG6nn72atX8wIZOldL5HDqV4EraCMATBzwptThwb6cOu1nfwPBeGkngqcKI12APvjnhSfm6G8/WfbUvJZTY3I+WOGHr4RHm5hvGq/oNauhJQCav0rRE+MPxEm4DgsEKTByLJNCj4DmD1Ky1h2P4YR8PY6pq1XZ1jrP3+V1fu2ajk0VdGZjxEpRfY68qCiFC1qwuOt59bG0ZOPOSWoUzj7Fv/bpNxQ5BCLYxo2ZofZIxKCl2kCRs315gbOK1L9G0pUtWJRW2YA/5HWyDqnTUPdFrdR+PmfyJenpDKJVoBlX7iCcD6AfjkR9/+Nk5rLF45U9GbKPNnQpDSJol8tuxcIAUz9c//2xzBpbXri24f+F5zRhZ2eXjGvAbG4+k9j73eiLPuTm3k3i5h0EVDJbffnO+9t5l9r0x/TO9ijrAuDEeibfv7M4rmbpDn/bCpPcUwlObUEPufM32f2IcWZolkfu1hYQWwnsJ9wQMMU9uP0T3lTDhuFnzhuqII5s4nhVTdc3lUW8EVl59CS+G6dAbedWDaakl4LeN8du++n2fJ6trDOKd6P5lDmjewJ2U8u06dQu8zLgLgmMBGFTB0w3GssxEDPdxJbm9m+Wh5u8o3yzGow3qtksEA7Vk+77JXq99v7wr47D4iyWYDGH6rrimtWs26FMa7l2jRPTwseqX7P6LxYhq0BUjddSM5yfM0aH/IuUV5PdOpDJipfttY2Lln4r9QXLba6+qnlXc1YngtM1zfxCJu4qNgpEthY43zHa0pd/3ksnbb/vo93xTj0xaQqeQLSFLc3ONMZXS6/j+o0FVOboT7hn2gn4JIAzZ4GtOS/uV2bOl4BZ0n32LGxDBBWRtmbUMS9LVPxW8kE3Fq1arrI2asA33q15ylHhBgkEVZJWEBgxCYPhkPBD1lBlvDffeK4hs1ctTPnTy6XraEc66e8XmtkYUlK+8NFcfgs41LKiNbC50Pw4DhHhm5SEsx1k92oriuqE676x79MAbwnJ0k/CLxkjL5G0vccyk59/VSY32q60efqxf0h0muDI9XwwlTOjAlcsLZvjZ5ZW29aqFymco08ACsz9wHf+TGdXG9ezmzUWu4O3fr7RdS1mqD7mXpV8r8bqi7UeIPgieoz33rKJq19lDDwRh0CWWoGMDLwMQtIElHd4W7zP8ISwFPiinyKz5++6ZotfhfQuGVTA+pZBAUATsd0uifSq//Ro/ZQd1/bHySaSvks73S9B9W8zuv+TChxSM1CE3Dz1ftZUQQhQSSDUBDIY+O36mLgYGH+PEYMqEWoOiu1fv9tqA44Zrxup348MPTlWjx13pVCudz6FTCa6knMCFF3cUw6Xquhx4XsagCDyW4bvULTCyg4cSDNQbD2buY7BtKzHt95P7WHhKQggK/F15TYFnmVtvekZ9+cVyfegjD76qnhp/lfu0UrE9Q/QbxkgK4c6ifavjO9R4iNrdCvXnvpCKUcIouo9NZHu9GAkYqWp5yzFpZonfCgZVqC+M2ryuKdIgmZ3+889F5SHv16d9KpMZxjkei5CGGeYY7JJPDJUn9xN0TZDc7UXGeDrBxz/4XonXAMgupkKFou+cdNXdrk8y65UqVUj42qGjjCbQCcYrCJtspKaE7EtGoCA3kl3oQSI7u+i3yckp8giH2ckQ3LsY0IXg+zOSVK1aOS6DqkSec1PW8SccqL3AYYAGelC0DxDc44sWrtDrx8kx8dybifSddcbWP4nWHfWFlyHo0oxgcie8TJtv/40bNmt9Nvbn6cELc2TpWyZyv+Jd9PDj/dT9w6eoeZ8s1cZwMA7AHwTvvVMlesH1Ei61QqFxX+m74vTWKJG+hLum6dYbuevD7dQQCKKN8dO+Bvk+T1TXGMQ70f2rJNLGuc9NZht9Qq9+IfKqVLnIaxAMU+0+YTJlBXHOHtZ3TLQoJVs2F3myqiZjnF4S6XrsdHff1yufeNPs+wVl7CJeOmOJ3XddJ5M4YNQNQbjfsizHtTtQh7GEsTNCGPfq0y7i5QT5vROxkCg7gmxjohQT+K4guVWM8S2BcdtUCfpy6KPhO8CMx8cqK4j3Esrw2z76PT/WdZbX/eg/mjsqJEoFeBzM09+E+TSoKk8/Otw2QuCt6Yyudxa7tN8kTq6RDsffIAqmkDawubTfySY50KXdwcBsyUiCuLxQAECxBi9KRsFqK0hr1vQ+38T0Rd7rrNmRkcqKJ335sjVO5wCGRK9O/STstK0SqtDIs8/MknjCH2tl3fS3bvd0cY9j0eC+Pq0gHygMvFztmTwxo83ItMKy0cmBNy8jeKiNEY/NyeyPtmwiM8ePllB7s2cu0ANwy75bq5q1aOB5ysRn54gR0TS9Dx3qJ8YMVJV3jd3Z8sysMLF+wxrO7pWiVC3tUs1SDI8pDGnS99JOYYZ2fxQOZOJaMEBE8U+A3P0zLM05QPntxzsdPF+s+vEXfYndz26rYinpY7HIlzY1WYGBJZTZn4sR1TtvzdfZQFlMg6pkifI8LwJ++lR++zV+yva6lqDTEu2rpPP9YvfZ/PZtMUMTxlQwqoIMuLKrOk2M5CkkUBIEEGbShA/rJKGFjDGVXfbJ4kljuEz4QdgyGBpD+WrC0afzObTryPXUEjj+hIPCPJNFKw0G9lXEEAHeR6GAhGGVCQFln7fFmsgCr0vxCiZJ3XLbeapb56H6FHtgP948SuI4KION5zcYRfQ479ioxcJQCs8Vnq9ohmiRQo1EzTyOnbaXMOhzIgm8/EDwmxoDCvex5hh3up1vZWtgDZ7M4D0azMDgiiu7qdPFm5fdHuEd2eG4G9xZ+t5uf2Irhb9kJZ11T7bO5rzJL99kVgNbxhoksQuyQ/P9ZYXgsI9JxToGUzArGbo4/EUS+36NdEyiz7nJB4Mi8D41/bVP1cIFK7ThZS35rn7rjc/NIXGF+0u07+xkLivJ1H3cmLccYyp4JrxSJgDD47uZoIj8/3fjeGcyqV1eaVxP5H5F/Zs0ravGPH2lmi8eE98Sz2Jfzl/meE3Eu+6lFz5Q2//LVbff1as0Xm7a65RIX8Jd2aD1Ru78uV0yBGLp64JoY5JtX1P5Po9H15iKd6Jf/Wqid8V///2n36tenh9tA9tdkgy1lWh9Yh2/h2UcZRtNuc/bssWafC+eOr0k0b6vVx6JpNn3y43/Oyfhvmwla4LGn1G8cyVSp3Qdiz7IhRL1Y8h14/T46IuTCsKLe9UnyO8dr/yjpaWyjYlWbhD70sktiPrbedSosbseh1on3mrRF7b7sPZxZj2I9xLy8ts++j3fXE+mLfH76j8J9YcwfzCu0mEA5bcvmoKTaVTK+fVu3BA9bigMlyCbN/+VMhK7W4YoCP0QSf4pNFDCTWo3tFWrFilII51vzkXekWZdQon/5vR5YcU3bVY/Lhf/UObiL5JgNujGfwtYY/ZjJMEgu+lkQQESLS7vnjJLyy3XymwlzP42slQG643rUK/jzXGRlnA5bQRuy70MqmDMdfedk/VhcNE+atwgZRuwmfMTXf4lBn9Gdt45ubiz5vySWFYTzzm2YLbIhRefaCdpZZZJqO7x+2Gfn/vQ5J1JS3LPpF878Wt9anSBdyoMyJzf6/jEM3CdYby7INlua12HRd3s0LGVY1BlZsJHPYE7SSABAn77VKaoZPo1QZVt6hDkMpm+SlDvl2SuI6i+LQbNL7voQYVwf5AL+nRQF4nLcgoJlBQBeNE1slfNou8Kk2aWCIuEPvB2Cd/z6y+bFLYh6XwOTd24LH0E9txzVyec85Kvf/Q0xlr8TYFXD9Q+0Yks+I6Dl9QVy9dp4yNMUIr2XZ4OQu+/97Va9v1aXTRC/cXql8JACQpeeLSKFEYLSl94f0lG7BCLXufDmMPIhl8i66B+/fV3fVikUGnYaU8ANHliadfdbm8+fP8bPSkPx1x8WWfV56Lwb3SkJ9snN7oW5JEKSWXdU1Hf0pQnwnUaWS0hJJs2a2A2U7qERyUMov4q97l9T7oL3RBDF4vjE33O7TJgrAyDKjzXM974TN/3xms/JmIecdQB9uHF1pPpO9uZJFP3d976QmeB9nbk6AGekzR/ckUssMssL+sI84c/yPJla9ULE99XE5+bo7dfm/qxum5I96jez/SB/CchAkHrjRIpnDrgRGhFPzaWvi6oNiaZ9rUk3ufRdI3peidG/8US24tJAb9v+stxsGCfvbFw/BJpkUJ+2ceXxHo1yzjqm69/8Czyjz/+csJcw1gPRtlekmjf1yuPRNLqNyyKwhOtLxMpTzjBgKMFjHGuKfQAG+nYspDesfOh6rGHX1PQbYwf93bEid9Bfu8kyqUk2phE6xTv8enkFm8d4z3u4Jb7aoMq6A8wwd9ue73yCOq95Ld99Hu++9pS/Y3sLi9d2zDw3S7erbNkCZuV/Pw8mcCWq42qaFCVrl8lBeX2vqi97oBEyhphGTCbHXJZ/846bBnCv6VK9hKjnTp195RQfr+qlaK0hCIdSghbkAYlCATGOraL40MObaSmvvyR3vfdt6tV68P21+v2Pz/8UOChBGn16u1p73LW18iHuTEMMonnSyi/gw7ex2yGLZseUF/P8g9LtDZQlxmFM8AObrmPeHtqrh+snaIYB7304odODrG8ssDt9X7711EoB3Lk0QcU82g196MlTn7Yn6iYATic59Wpm/3OAnXLjU9rJQ1meI4aO1DVrVcQriHRstzHf/nFMidp/yZ1nfXSunKU8J3ywvu6emhAb73jfP3smPriRfL5vO/0JjqVkZ6pRO9DzM7+/fcCg8cKFXYQ/nvqDqtx9SpV0SHH4B3AeOpBJfAcxBMC0tS/tC7JvbT+Mumv16cfL1WLCz9au3RtI4rt4kao7lpiFrHXbCdz3IZfiwaZbINTsz+epR0aokJh2EJ0XFeuWOecDs9cMBxGyBO8/yAIjwLlN2bQw8MkZBc5xv7w0In8J6MJ+OlT+e3X+Ck7lT9asn2VoN4vyVxbEH1beD7of+mjMtP/J12F07sfra669vRkqsNzSCBpAraRx8/rCwwlvDKzDTx2KHw34rh0Pode9WRa6SCA8PambUMI5eYeuoqP7e/go5omXHET3gt6h5KegR9PZceNnqEPg96kZ+928ZyiaovOBQZV66QviTC/jZvUCTvvi8+XOaG0wnZE2NhdPIUZ+earH3TYRLPtXtaqXWRQNe/Tb9279Tb6vTBCgexlGWDpBOsfeHv1kvlSfyN2iDeEfjFygEyY85JP5i71So6Yhj75T6t+0UZtmDyXqu/qIOtuh2L566+i8DIRL9K1w5y/deu/YZ4EXYeVmk0TRhQVeuP1eQoDzSUl8C6Kexn3CPQ10N3ZAh2emUhpp7vXk3nOTR6HtWmiB50xSXaGXH/bY1s4usMOJ7X29Oxnzk2272zOxzKZupv7vY7oFL083mNwask3ReEA7fLc637uV3Mu8kzmWXHXxc82DHxvuPlstVx05QgFCAO5VXJf4buNEgyBZPRGwZRckEuiOuAgyw4iL3jLnPT8e05Wh8qYzB13X+BsB7niV18XVBuTTPtqygaPoPoibrZeukZzTDrfiaYOQSw//+y7Yu9z6Ey/WrhSZ4/+mT1maJdZ0m17SzGMxeRejMfACzPGheBNzBa068abZZujI3+vJNr3tctIZr1BYSh2nDvv0+/U2ecel3A29epX12FrVyxfr70t7t84ubE987uls/+JiSkXyISMO4c+r/t3r74y15NHkN875rpRUDx9kaDbGFN+SXAPkpvnD1OCidDlmvsD7VIsgyrzuwXR9/XTPgKR3/ORR0l8I5emsfCCfkmhlyoMwounKuiRYFQVAhBK+SBwRvdj9Ox0zFD3+rNnAsOlIY459PDGKbt4GJ906XqEzh+GXMY4yi7wDfEcZVzT79uolr1L3E62dIx9nh0/y/HIZA7CQPWUyQWGLkjbd7/w881xiS4RDsCLn0nrKEoKIwe3aqSPRUx3t7GYOQbGS3DtDMFA/eFtYjPvelobc7qCq39boGyAS2gIXKXqQVsAAEAASURBVNsbxuaYD977Stmeu0y6Wb7/7lcKH5YQ1PlgcbVtC5TX11w1WivTMPCPGWSN9qttHxJxHZ7R7HjM7gMx23bC0zOd5EjGR84BpWDlmOOaq913L/AOJkapErt2h7BaTXruXceLWaeTDw1M6frAfS+r004Zqv8Q0geCZ8ikIVwFjC++FiW3ScPyyy+Wh9WvrG6Qe1n95VJf76cKB5pgIAVD4njk8osfUc+Mm6nbNffx6LAtlNBFELSJtvtmcyyUSS+LYawxgjLpZon30XPPzDab6iAxtoWsW7sh7PmcI6FWIeecOcxJf2rUmzrt5iHjnbQh1zyl0/gPCRgCfvpUfvs1fso29Q966aevkq73Cxj47dtCWTeo/0j1hYQKgXQ6ubW6+dZz9Dr/IYGSJLCf9W3wpgzoeg0gz5m1QG0sDDmPSTZ2yMt0PoclyYllJUbgVOsbeOpLcxVmd9vy4ftfa68eSMOgMyYhGUF/7uYbxmujdZPmXs79aLGcX2Dovs++taMa27vPLYltfMeZ9v2kzq1VzUKPbrHKPrVbgc4Fx40a+bozgINtKAOffuotrMYtdetWc46FAjaaYGKA0RUgjKLXt+jzzxZ4YEE+bY6MPKiESUJ4v9uCPjb64BD0R44+prmzu5pMyDPy7uxFZtVZwvDluWdmOdvxrKCtguB9i5BqqZIg6248/6Gu8Rql2NdlQhCD9XffFhhr2/tL2/ohh+6n9WqoFwyEIt2j0IkF/Ru2Fd0QBKzsSZM6Uf6Z9FyR8YFJcy+Tfc5NPhj8O/GkQ/QmDCgff2Sa2RU13J+fvrMpINm6G8MzeNo3A0wmTyzRbiGkTTzi5371+6zEUz/3MfCs8+/W/9zJzrbdzmMiJSU4AsnojYIrvezn9IdM8MWkP/OHflaqxK++Lqg2Jpn21e/7PFldo/kt0vlONHUIYvnCpPe1YamdFzy8wNMbpM3RzexdYesl3bbD2yKiz0Aw2W2yZXiINOiNn59Q1PftdvpRSPaURPu+npkkkLh/43pOvx0hUY3BmlcWeHeZiS72/lO6HK43YQg84t6XI+rJF4iePVoYZD/vc7s+fte7yfenmahtTwaz8w3yeyfR+9VvG2NfB9ZLknuQ3NzXUdLbbY48QI/Do9wPP/gmZvFBvZdQkJ/2MYjzkUdJfCOXtrFwjDvmipeqvLxcIBCBYZWMHep/+U+pIoCZRnDhbASzn4wsXbJKDwqb7RYHNYzoackck85lF1HujXx0mu4U3X3HZB0XvqMM/mSHstWc2QvEAniiU72+l3Ry1rECQ6ITT2qlXhFlKlwvXtTrATXklh7aKw86HMPvesEx3oFhWIsD9w47v7RsvDKlwMsW6nPKqYfHpbjtJG68R4hBDRR5M9/+Qj0o62ecfYzaJPfGww9O1TyQ35HSoXSH4cOgPGZTniScWx26v6pbp5radbdd5CNok84Lih90eiAdxGjNDrMIzoP6PeEYr7Vq3Uh9JkpU/HlJ06b11GFHFBmIYfboNVeO1mkdRclTTyzfEZIQysxPxTr/6bFvawt+5IXO5yGt9/PKNiVpGNT5adUGJ+81hZ7RkDB54ntOuIdQKEv1OO945yUJA4uTuxymYNQHxdnVg0ZrV9yNxbvWHFHcjrj3JSfPWN7HnAMzaIXcM+jHLoFLRZiXT+YWeOhr1+HguD3n/SOhW++750X15hvztAvfA2QQrqbMqP9hxc/q3numqO2FIVs7djrEs43+7ts1CgbAUPZ2P+dYhbYPIWPQlmIm8lOjZjgDYPDakUpj5RLAzCJKKQE/fSq/l5TOst1199tXCeK9nuy7zW/f9t67XlRzPywabN5XjFrGi7FoJDn3vOMCM/SOVAbTM5PAfo1ryzdZTW2cgm/Xvr1HqOtvOksbuUBxOnvml+r+e4r6yPimsyWI59DOj+vlgwAMgOFFGgp4hGobcNlj6pJ+nVVdMXKZ//l3aviwF5wL7Xp60QQkJCKkLWaNTnv1E61DaHv8gWqfffbShhfwRPrOW/O1HsXMFodBammTsYVG9jAc8gpfF6m+0B08LuEq4KUKuoNB/Z9Q3Qr5vCphpN6TCVWJSG3RHxiP2Zh53+uc4XoGu5lk1FS8QZlQiajrpf1OVoMHjtJFXCEeFO8c3kcdLvqZLVv+VjCmmlQY0gqer3vIeymaXD1olLpr+IXqcNEx/CphCvGtbcI8tj2uhW53zPlN5HvcCAw70S61l++DipV21h6kb715QtxGGiafE9ofpF6fVqCLG9jvcdW9x7Gi29hf1KdZWqcSlPeYIOsOj+O1a++hdUT4rR+8/xUxPGumquxeUS4rS/Q9FZxwq+Y67aU9MXHItWPFm/0p+hsL3hcgMLBLlacuux7xrqMvNfjaM9S1MgkQckmfh9SAq7qqdh1aag+/GAxb8OUK0aG9JF7uG6sDDwpOT3iWfAfiuw/tzchHp6vdRM/WWQYWt/2XK/f5bMezebRrSfY5t/PsLM/8xEJDRbRtEAx0RLpWv31nU3aydW96QD314w8/awNPeIHo2bu9TOxspOB9/akn31AvTi6YMGrKibb0c7/6fVai1SvSvtde+UQ9OXK6vk9OPuVQ0SHUkonDO4pXj9UKhqB4Z0EwwAr9AiUYAsnqjUzp6RyXSWfZ5vpLeulXXxdkG5No++r3fe5X15jOdyLuE0yqcXvZMWNOMJSFQZ4tMDLAd6Bb4NHpliHPqH4DTpFJ7ZXVB+9/pW69aYI+DH3NC/ue6D7F2U5H297tjCOd6DX3D39R5coEhmMkgg0MwDB+ZBwr4HqPimIMhotIpO/rXHSSK3DMAO+Ifc6/X+uzL5Sx1n4Du8jEv1ZiaLO79N3/kSgL6/V3Eya3NGvRQD0xZmBYadCJTxFHD3CagMkqvc69V1193ZmqSdO6ur+8QqI0wAHGlBc+VDNmD4s4QcTP+zysQj430MeFV2B7fM+dZZDfO4ner37bGPe1JMM92ec8SG7u6yjpbYy/tz3uQNFzLdB/+BbAbxlJgnwv+WkfUT+/5yOPRL6R8Q5wT6CwJ8rBw73t1a+ChEU1egaUVVoE15EldgKwY5GZXWI8ul3sBbJpUFVafiC7Hj9JiDwM/HrJN1/9qN0qmn29L+xQqg2qELLo1jt6qttvmaANaYbdPknhzy2ndmujYLzjloGDT1ffywv660U/6NmOZ3a9w32IdtWPWPOlUWAQ9drUIneRRrEZq65wo3ffg3218Q7yGDvmLf1nn4dBjKESfs5L4LkISoloigm4mL75tvPCToeHKdu7FbxZ4S+SnHnW0WEGVTgOjQ0MHozRg9e5CB94y9Dwsr2OCzINMwbQ0fMSGEnYcoZcV3b2jk7SFYNOFaOJNfoFBEUQZs+4BffgAc3ru5MzfpvcM/4WCBTA2NFFM+z7RPmgjlSo+x1qH4eP+ksuP9lOKraOgSoYuEYSfJze88CFYYaqkY5lOgkkSsBvnyrR8uzj01m2XQ+sB9FX8fte9/Nu89O3RSgQWx4eMdXeLLbe5dTD1B4Vijx4FDuACSSQJAEoQO669yJ13ll36W88DFz17DFce5AxSnSTNfrHl19xitl0ln6fQycjrpQrAsOG91YXi4HEatGJwBvKpYWeeu2LxCSWM89qayc56zCYevP1z/Sfk+haQWjB8y84wZWa3k0MSrz/3te6Em2Pba4nkcVbI3hUuOeBvtoADQM5785eqP/M+dAbQPmHSQDxCGZjDr7udNX/ksf0RCv8Dvgz8ugT/dUxUkcjMGRBnWHMA2/aMKpyC+p49fVnRO0j7yTKVCjsEdbWLVX3qKwGXNk1LBkGeAh7C+/dGLQbdttEdZfomqC8N4Zzx4uBFLwYxSu4ltYS1ugzCV8InQo8R+AP0rRZAzVpyg3xZhX1uKDr3m/gqQrGUGh/7TqjEpjENnbC4Ij1gUEejIQwgAYPbhjYs2XsM4MVPGCUJsEkGHhzg7Ee9GX3ywQZ/LklaLNJGBIOuvo0fZ/hHnPrN/FuxCxmTMTzEj/PuZ0fwqHWrbenM8EU+zChMpIE0Xf2U/d+A7qoObMWak8V785ZpPCHNsFMagLXRvvX1qGTIl2DSfd7v/p5VkwdEl2iXYMBnDGCM6GiTD5os66R9hFLSjAE/OqN0jkuk86ybfpbXZ7Vsj2MYOzjg1hPVl8XZBuTaPsa1Pvcj64xXe9E/OZ3D5ukpk0tMAx13wPu/ij2P/HUQE9vpXgPYGKECall53XO+cfH7BeXdNuOb4nL+nfWxtV453v1QzDZ9uHHLncm7NvXZNYT7fua8/ws0S+8/Iou6snHp+n3slfdo+WP9zfCf14pEzgQbhxerjD5IlHx+z5PtLxox3cXJxZPPfmm/o6JdFxQ3zvIP5H7Nag2xlxXMtz9POdBcjPXkK5l9x5ttTEVJhDOevtLdUrXwyNWJcj3kt/20e/5uMhEvpExkaNTuxsjsunT8/6wfZgQMmHSdWFp6d5Anxz/YXISvuqy5Bs7W3QkSJcAVpTSRgA/TrwSkpdYvGKy1R9pJfihBiOiEdKBqCMzHd0C70g3i2HN7Xf1cu/S2zAsemr8VXqWKToZbjm8TRP10rT/Oe4q3fuxHZIBbreEfFx/loUc3oyiCYyKEO4Q0kpiLMOQKF457oSD1EOPXea41DPnYdAf1/3UM1c7LinNPizPklmUmDkJRaiXYGboldecria/NKSYQlNbXHqdFCENillb6sjsRXx8wKjASzBzAjMeX5n+PwWlaElKvM+Kbhhd9wfq/fiT/bWSyn0fwkL5f2KYdm7P6Er5RO9Dux0w9xlitRrRDbtgNvtMun2MSUvnktyDpW8/W9HY2vcFrKkjib3PzjvS8e50+xy7TPdx2LbbpGTuU3gmnCkdVgjawERmiONjEd4x3M+vzkz+gYfDSdImRoqBfZ4832dJx9ntEdCcjyUGbKa8eovCh7WRkKuNNL+ZzcK8j0LWy8Xeb/LikgRAwE+fKhJB69Yr9k6xz0lF2Xb+8a777augHL/vdfMsx6qzV5/CT9/W3e+KWT5m0lBIIEUEGjepo16W7zC8/4zYxlT4zoMBxNMTrgmbgWaO9fscmny4LF0E7PbR7ifGW0t4WZkw8Rrt7dOeuYjzMTBx0SUnqaF3nl/se7NGjd3V9TeepQ0/IpWLWeJDZFb2o0/2izlw7bePHO/1muMwgco8P737djTJcS+hiHx28vX6eTThNdFv7dT5ULneK4RXwXdkpco7x5Un+rMTJl0rHrEPKKZzMHmZjPCue3hkPzXwqm6efW3oQMY+e7XCJDq3hKz31KDB3bQnLPfvjhnvuLZ9G9Vyn649R/cSbzcY3IGAIQxdKlXaSfU49zh1x129nd863nfokzLYh0kW+zeuG9Z2RbqvilUqzgRMyAqq7p3Fo/bzL9ygf288J3Zd7WfSq2pg9/yLN6gbbjpbM3Z/L9nPgtf5yabh2xH3DiTe38YuC8/yk2MHRvx+w4BhF2ugw75vw/gU6s3C0grrpXUurm/ps8Uzw/0PXex4aTN1gp7t3hF9teelgmsq0t2YY/w+5yYfLOHtyBb3tr0viL6zn7rXq19dD6JjUqcRGFOBL7wyjX76StW8eUOzS2aDR+6/+r1fk31Wkr1fYVQO3YXt5W3btu3OtWL/yNEDtHcQJzGAlbD72dIjurO2dTixnvWwPF3PhTtf97adt52P+zizbbdb8RxvzsPSj97I5GPrY01apKVdV/uYRHXA5twgyjZ5+Vm6Q6ZGa2P8lINz/errgmxjUB/3tbq3cYwtft7nyeoa7fKxnug70X2+fd9Fa4OLnxe5vXYfi227HLMf40PwguTWt1bYaQcx8D9D9/XMsZGWybbtkfKLJx3jW4ik46432izoq59+7mrt4cmdl9++rzs/vS3930QE3mUnTLy+wKtUYZ/HPh+edzp0bKXO79XOTnbWcX0vy9jeGd2PUfid3II+EZyAVBVvY5HE7/s8Ur7udHt4NNL7BHqLc84/LuxUd9vu53snLGPZSPR+9dPGuMtOhnvC/UgLuh9uONeI3Y83aVia8ZPsBPsldh7xrh8h/TnowCDPPjPT+Xb3Oj+o95Lf9tHv+fa1xfuNHOm3svOy183x9vvB9E/NPhyP+wG3hNln8rCPMWmBLKUw6BZycwtC/mXJfZ0veoas1fkfJ9biBlIbZpKpBBA/HjMO/pWQdJgpWadu9TBlTzQusPhevmyNWrF8vapeo4pW9sDCMhMEM8oWLlgpLsUrqmbNG3h2VtwcMAsKoRJ+27hZwa0eFKu1xeAJsXIjdSDceSS7jbJXrlwnXiQ2q79kZmeV3SupBjKDFB4uzIsu2bzTfR5iYS9d/JOEVNgos1TrexoKpruO5bF8ci+Pv2pi1zT0lmf1DHScNXrclcW848WTG2LAY8bfOnl+Meu8prRJ9WSQJ14DT3SkYGmPUBIIZbrjjtmqloTYqF1nTz1wE08deAwJBEXAT5/Kbx3SWbbfurvPT+f7JZP7tu7fgdtlmwD6/j+t+lnesRvFYHFHBQVS7Tp7hBkjRLvCdD6H0erFfeklgEHnJYtXaZfxCLeO+yoeQR9v7ZoN+rwtsl5dDItq1a6mYHSV6u/geOrnPgZeCTq3v1F7a2nZal8ZgLnGfUjC2/DYhMEBI8ceebXoBbYoM2nLpAe9hDHTqh9/lTAgayT03k5q//3rxt3PNnXBrN9FC1aov//ZpppLqBFjIGb2ey3RL1n+/Tr1669/yGS7WgqzucuK3qEs193rt0hH2p8Somb58nX6O23PartqIyvoDFMp+C6EV6/vv1sr91sNPcnTHvhxl52K59xdRqq2g6o7+r0/rFyvflz5s9pJ+goIJZQpOt1togNfseJn0SFs0iGVqlevompCjyB/lGAJBKE3CrZGZS839OuPPvwqx9sjjCFfeu3mlL9X/err0t3G+HmfB6lrTMc7MZm7/KILRuhIINDHvvvRfToLGEQukTGXevX3FM+FdRyD+WTyL8lzENpw8derCsJDy1hRtFBgXvVKpu9r53PlFU+oWe8UTED+cN6IhN6tiFSzYtl6BW/oeCfvJaH/MBnChH62y/FaR99/jYw/wstpnrzna9fdQ/pFNeM+3yvP0p4WxPdOMtfop41Jprygz0kXtyCvA+Hz0HZBHnzksrDJhV7lJPte8ts++j3f61oyJW3Rm5vU4Ycfrl6Z+qqM+9eR9nwXbcxldAs0qMqUO4HXSQIkQAIkQAJllMAGGRzpeMIQHVYoyHAbZRQHq00CJEACJEACJEACJFBOCNx952T1/ITZ+moekXB6CJ8XpGBg6qzT7tBZ9uzdTl193ZlBZs+8SIAE4iCQ6uc8jiokfUhZrnvSF80TyyQB6o2C+dnmzFqgBvYb6WQ24pFL1QntD3a2uUICQRDwGvAPIt9MzOO4o64VpwZ/6Im+cz9/KBMR8JpJoMQIDLjsMR2+Gt6MX5x6U0rK9ds++j0/JRdVRjKFQdWhhx6qXn1tmqpbt660q5W0lyp40IJRVU4ZuQ5WkwRIgARIgARIIEMJbPsvV11zQ3d99QjPRyEBEiABEiABEiABEiCB8kDgkNaNtEelHXKy1TFtmyV1SW/PmK+98yDEme3RCV6p7r5jos4TCkCvsHtJFciTSIAEEiIQxHOeUIEBHlyW6x4gBmZVBghQbxTMjzTv0++cjJo0raeOb1cU3tvZwRUSIIG0E9i8+W/13DOztDEVKtO4Sb2014kVIIHyTmDY8D7aK3JOTvHw3uX92jPl+nJyisym8vJydbjaUHa29txZtCdTaPA6SYAESIAESIAEyhQBhAs9q0fbMlVnVpYESIAESIAESIAESIAEYhFo16FlrENi7l++bK0a+eh09cgDr6j9ZDClXr1qCoMsXy1aqRC6B9L19DY6LFnMzHgACZBA4ASCeM4Dr1ScGZblusd5iTysnBCg3iiYH/KzT791Muo/sIsOdeMkcIUESCCtBBDeb6mERIdslIkTCBdo5OLLOplVLkmABFJEoFLlnRX+KOWXAMJTKgnvjqUsVK4YVWWFsvQF06Cq/P7uvDISIAESIAESIAESIAESIAESIAESIAESIIFyTGCHHQpUe9tz89Tir3/Qf+Zyc7JD6sJLTlIcZDFEuCQBEiABEiABEohE4LZhPdWfW/5RIek/HNJ6v0iHMZ0ESCANBNav/017pbWL3rHCDupaiepweJsmdjLXSYAESIAEkiCQL1ZUWVlZKlu8UmGp5H8YVmGbBlVJAOUpJEACJEACJEACJEACJEACJEACJEACJEACJJBuAheJwVTHToeoL+cvV+vWbVS//fanqlKlktp7n71U02b1VZ061dJdRZZPAiRAAiRAAiRQBgg0PaB+Gaglq1jWCfTq3U516NhK7bJLhbJ+KSVa/4sv7SThxjbrMiWat6otfXyE+tt990olWg8WRgIkkDoCfttHv+en7srKRs4wosqSBjY/P08bVOXl5auQbCP8X9bq/I/FtopCAiRAAiRAAiRAAiRAAiRAAiRAAiRAAiRAAiRAAiRAAiRAAiRAAiRAAiRAAiRAAiRAAiRAAuWfwKI3N6kjjjhCvfTyyzIprY6qVFGMVeGtSgyqYGQldqwUEiABEiABEiABEiABEiABEiABEiABEiABEiABEiABEiABEiABEiABEiABEiABEiABEiABEsgcAnl5eeKRKlt7pYIxFSRXvFNBGPJPY+A/JEACJEACJEACJEACJEACJEACJEACJEACJEACJEACJEACJEACJEACJEACJEACJEACJEACmUIA4f1+/32zqlixsvrnn2067B/SEAqQHqoy5S7gdZIACZAACZAACZAACZAACZAACZAACZAACZAACZAACZAACZAACZAACZAACZAACZAACZAACWgC8FClVL7CEkZUsqrX8/Pz6aGK9wgJkAAJkAAJkAAJkAAJkAAJkAAJkAAJkAAJkAAJkAAJkAAJkAAJkAAJkAAJkAAJkAAJkEBmEYA3qhrVq6n69WqrnXbaSRtV5eTkqNzcXHqoyqxbgVdLAiRAAiRAAiRAAiRAAiRAAiRAAiRAAiRAAiRAAiRAAiRAAiRAAiRAAiRAAiRAAiRAAiQAT1TwTAUDqgJvVUqvZ2dnq5za6nASIgESIAESIAESIAESIAESIAESIAESIAESIAESIAESIAESIAESIAESIAESIAESIAESIAESIIGMILBIvamvc+vWf9XWf7cplRVSITGuCmWHlNhZ0UNVRtwFvEgSIAESIAESIAESIAESIAESIAESIAESIAESIAESIAESIAESIAESIAESIAESIAESIAESIIFwAlliSyUpYkulxI5KIQwgPFflhB/FLRIgARIgARIgARIgARIgARIgARIgARIgARIgARIgARIgARIgARIgARIgARIgARIgARIgARIo3wR0mD+xotouIf+0NZX8s317rsrJyaFBVfn+6Xl1JEACJEACJEACJEACJEACJEACJEACJEACJEACJEACJEACJEACJEACJEACJEACJEACJEACbgIwnIKEQoVuqmQ9JztbjKq2M+SfJsN/SIAESIAESIAESIAESIAESIAESIAESIAESIAESIAESIAESIAESIAESIAESIAESIAESIAEMoYAPFTl5uUWhvnDZWfJdp7eDmUMBV4oCZAACZAACZAACZAACZAACZAACZAACZAACZAACZAACZAACZAACZAACZAACZAACZAACZAACQiB/Px8lS0eqXIl5F8oVGBChTSs06CKtwgJkAAJkAAJkAAJkAAJkAAJkAAJkAAJkAAJkAAJkAAJkAAJkAAJkAAJkAAJkAAJkAAJkEBGEcjKklB/+eKXKiukjar0phhUQQqCAWYUDl4sCZAACZAACZAACZAACZAACZAACZAACZAACZAACZAACZAACZAACZAACZAACZAACZAACZBAJhOANyptPlXoqQoscnLEuGr7dhpUZfKNwWsnARIgARIgARIgARIgARIgARIgARIgARIgARIgARIgARIgARIgARIgARIgARIgARIggUwkAA9VIbilEsnLy0MMQKW3JI0eqjLxjuA1kwAJkAAJkAAJkAAJkAAJkAAJkAAJkAAJkAAJkAAJkAAJkAAJkAAJkAAJkAAJkAAJkEAGE4ARVV6+GFLBsCoUEnsqMagKZansUDYNqjL4vuClkwAJkAAJkAAJkAAJkAAJkAAJkAAJkAAJkAAJkAAJkAAJkAAJkAAJkAAJkAAJkAAJkEBGEsjJyVH5efliTJUlHqpyhUGW2FZJyD8xtAplJBFeNAmQAAmQAAmQAAmQAAmQAAmQAAmQAAmQAAmQAAmQAAmQAAmQAAmQAAmQAAmQAAmQAAmQQMYSgIeq7OxslZtrjKlU4bqiQVXG3hW8cBIgARIgARIgARIgARIgARIgARIgARIgARIgARIgARIgARIgARIgARIgARIgARIgARLIUAIwqMovvPaQhP2DcVWB5DPkX4beE7xsEiABEiABEiABEiABEiABEiABEiABEiABEiABEiABEiABEiABEiABEiABEiABEiABEshYAlliRKX/JNQfwvzBuEqHAcyXMIAZS4UXTgIkQAIkQAIkQAIkQAIkQAIkQAIkQAIkQAIkQAIkQAIkQAIkQAIkQAIkQAIkQAIkQAIkkJEEQqGQ2r59u8qSJQyr8vPzdMg/pOdkJBFeNAmQAAmQAAmQAAmQAAmQAAmQAAmQAAmQAAmQAAmQAAmQAAmQAAmQAAmQAAmQAAmQAAmQQMYSQMi/UKjQS5UYVCnxVJWdHSowqspYKrxwEiABEiABEiABEiABEiABEiABEiABEiABEiABEiABEiABEiABEiABEiABEiABEiABEiCBjCUAb1S54qUqLy+3kAEMqxRD/hXS4IIESIAESIAESIAESIAESIAESIAESIAESIAESIAESIAESIAESIAESIAESIAESIAESIAESCCDCOTn50vIP/FMFcrWYf90CEDxVhXKIAa8VBIgARIgARIgARIgARIgARIgARIgARIgARIgARIgARIgARIgARIgARIgARIgARIgARIgARLQBlQS8E9IZKl88BDjqmzxWJVFgyreHSRAAiRAAiRAAiRAAiRAAiRAAiRAAiRAAiRAAiRAAiRAAiRAAiRAAiRAAiRAAiRAAiRAAhlJQIyn4KUqN7cg5F+WGFTl5+WpnIyEwYsmARIgARIgARIgARIgARIgARIgARIgARIgARIgARIgARIgARIgARIgARIgARIgARIgARLIaAJ5YjwFCcGQSpbOtk7lPyRAAiRAAiRAAiRAAiRAAiRAAiRAAiRAAiRAAiRAAiRAAiRAAiRAAiRAAiRAAiRAAiRAAiSQIQSM8RRC/GVnZ2tPVQj7F2LIvwy5A3iZJEACJEACJEACJEACJEACJEACJEACJEACJEACJEACJEACJEACJEACJEACJEACJEACJEACDoGcnKLAfnl5uSpbvFSFxLAqT4yqivY4h3OFBEiABEiABEiABEiABEiABEiABEiABEiABEiABEiABEiABEiABEiABEiABEiABEiABEiABMovAe2hSoynsJSFyhWjqqxQlr5gGlSV39+dV0YCJEACJEACJEACJEACJEACJEACJEACJEACJEACJEACJEACJEACJEACJEACJEACJEACJOBBIF+sqEy4PyyV/A/DKoT/C3kczyQSIAESIAESIAESIAESIAESIAESIAESIAESIAESIAESIAESIAESIAESIAESIAESIAESIAESKLcEYESVJWH+8vPztGEVjKlCso3wfzSoKrc/Oy+MBEiABEiABEiABEiABEiABEiABEiABEiABEiABEiABEiABEiABEiABEiABEiABEiABEjAiwAMqnJztxeE/JOwf9jO18sQDaq8gDGNBEiABEiABEiABEiABEiABEiABEiABEiABEiABEiABEiABEiABEiABEiABEiABEiABEig/BLIE+OpUEjC+4lXKrGm0heaK96pIPRQpTHwHxIgARIgARIgARIgARIgARIgARIgARIgARIgARIgARIgARIgARIgARIgARIgARIgARIggUwhAEOqfInzB89USslS/s3OztHrNKjKlLuA10kCJEACJEACJEACJEACJEACJEACJEACJEACJEACJEACJEACJEACJEACJEACJEACJEACJKAJwEMVDKnycrGUcH/yL9LExooeqjQh/kMCJEACJEACJEACJEACJEACJEACJEACJEACJEACJEACJEACJEACJEACJEACJEACJEACJJAxBHSoPzGeys7OFrsqeKpSKkfW8xEKMGMo8EJJgARIgARIgARIgARIgARIgARIgARIgARIgARIgARIgARIgARIgARIgARIgARIgARIgARIQAgg3B/i/OWKAVVefoFnqtzcXBUSoyoaVPEWIQESIAESIAESIAESIAESIAESIAESIAESIAESIAESIAESIAESIAESIAESIAESIAESIAESyDgCWWJRBU9VWVnyJ1efFcrSYf9oUJVxtwIvmARIgARIgARIgARIgARIgARIgARIgARIgARIgARIgARIgARIgARIgARIgARIgARIgARIAFZU2pBK/hF/Vdq4Cp6rcoiGBEiABEiABEiABEiABEiABEiABEiABEiABEiABEiABEiABEiABEiABEiABEiABEiABEiABDKJQJ6E+oMV1XYJ86etqeSf7dtzVU5ODg2qMulG4LWSAAmQAAmQAAmQAAmQAAmQAAmQAAmQAAmQAAmQAAmQAAmQAAmQAAmQAAmQAAmQAAmQAAkobTgFDiEJ86fdVMl6Tna2GFVtVwz5xzuEBEiABEiABEiABEiABEiABEiABEiABEiABEiABEiABEiABEiABEiABEiABEiABEiABEggowjAQ1VuXm5hmD9cepZs5+ltGlRl1K3AiyUBEiABEiABEiABEiABEiABEiABEiABEiABEiABEiABEiABEiABEiABEiABEiABEiABEsjPz1fZ4pEqV0L+hUIFJlRIwzoNqnh/kAAJkAAJkAAJkAAJkAAJkAAJkAAJkAAJkAAJkAAJkAAJkAAJkAAJkAAJkAAJkAAJkAAJZBSBrCwJ9ZcvfqmyQtqoSm+KQRUkJ6NI8GJJgARIgARIgARIgARIgARIgARIgARIgARIgARIgARIgARIgARIgARIgARIgARIgARIgAQyngC8UWnzqUJPVQCSkyPGVdu306Aq4+8OAiABEiABEiABEiABEiABEiABEiABEiABEiABEiABEiABEiABEiABEiABEiABEiABEiCBDCMAD1UhuKUSycvLE29V+UpvSRo9VGXYzcDLJQESIAESIAESIAESIAESIAESIAESIAESIAESIAESIAESIAESIAESIAESIAESIAESIIFMJwAjqrx8MaSCYVUoJPZUYlAVylLZoWwaVGX6zcHrJwESIAESIAESIAESIAESIAESIAESIAESIAESIAESIAESIAESIAESIAESIAESIAESIIFMI5CTk6Py8/LFmCpLPFTlyuVniW2VhPwTQ6tQpsHg9ZIACZAACZAACZAACZAACZAACZAACZAACZAACZAACZAACZAACZAACZAACZAACZAACZAACWQ2AXioys7OVrm5xphKFa4rGlRl9q3BqycBEiABEiABEiABEiABEiABEiABEiABEiABEiABEiABEiABEiABEiABEiABEiABEiCBzCMAg6r8wssOSdg/GFcVSD5D/mXe7cArJgESIAESIAESIAESIAESIAESIAESIAESIAESIAESIAESIAESIAESIAESIAESIAESIIHMJpAlRlT6T0L9IcwfjKt0GMB8CQOY2Wh49SRAAiRAAiRAAiRAAiRAAiRAAiRAAiRAAiRAAiRAAiRAAiRAAiRAAiRAAiRAAiRAAiRAAplGIBQKqe3bt6ssWcKwKj8/T4f8Q3pOpsHg9ZIACZAACZAACZAACZAACZAACZAACZAACZAACZAACZAACZAACZAACZAACZAACZAACZAACWQ2AYT8C4UKvVSJQZUST1XZ2aECo6rMRsOrJwESIAESIAESIAESIAESIAESIAESIAESIAESIAESIAESIAESIAESIAESIAESIAESIAESyEQC8EaVK16q8vJyCy8fhlWKIf8KaXBBAiRAAiRAAiRAAiRAAiRAAiRAAiRAAiRAAiRAAiRAAiRAAiRAAiRAAiRAAiRAAiRAAiSQQQTy8/Ml5J94pgpl67B/OgSgeKsKZRADXioJkAAJkAAJkAAJkAAJkAAJkAAJkAAJkAAJkAAJkAAJkAAJkAAJkAAJkAAJkAAJkAAJkAAJaAMqCfgnJLJUPniIcVW2eKzKokEV7w4SIAESIAESIAESIAESIAESIAESIAESIAESIAESIAESIAESIAESIAESIAESIAESIAESIIGMJCDGU/BSlZtbEPIvSwyq8vPyVE5GwuBFkwAJkAAJkAAJkAAJkAAJkAAJkAAJkAAJkAAJkAAJkAAJkAAJkAAJkAAJkAAJkAAJkAAJZDSBPDGegoRgSCVLZ1un8h8SIAESIAESIAESIAESIAESIAESIAESIAESIAESIAESIAESIAESIAESIAESIAESIAESIAESyBACxngKIf6ys7O1pyqE/Qsx5F+G3AG8TBIgARIgARIgARIgARIgARIgARIgARIgARIgARIgARIgARIgARIgARIgARIgARIgARIgAYdATk5RYL+8vFyVLV6qQmJYlSdGVUV7nMO5QgIkQAIkQAIkQAIkQAIkQAIkQAIkQAIkQAIkQAIkQAIkQAIkQAIkQAIkQAIkQAIkQAIkQALll4D2UCXGU1jKQuWKUVVWKEtfMA2qyu/vzisjARIgARIgARIgARIgARIgARIgARIgARIgARIgARIgARIgARIgARIgARIgARIgARIgARLwIJAvVlQm3B+WSv6HYRXC/4U8jmcSCZAACZAACZAACZAACZAACZAACZAACZAACZAACZAACZAACZAACZAACZAACZAACZAACZAACZRbAjCiypIwf/n5edqwCsZUIdlG+D8aVJXbn50XRgIkQAIkQAIkQAIkQAIkQAIkQAIkQAIkQAIkQAIkQAIkQAIkQAIkQAIkQAIkQAIkQAIk4EUABlW5udsLQv5J2D9s5+tliAZVXsCYRgIkQAIkQAIkQAIkQAIkQAIkQAIkQAIkQAIkQAIkQAIkQAIkQAIkQAIkQAIkQAIkQAIkUH4J5InxVCgk4f3EK5VYU+kLzRXvVBB6qNIY+A8JkAAJkAAJkAAJkAAJkAAJkAAJkAAJkAAJkAAJkAAJkAAJkAAJkAAJkAAJkAAJkAAJkECmEIAhVb7E+YNnKqVkKf9mZ+fodRpUZcpdwOskARIgARIgARIgARIgARIgARIgARIgARIgARIgARIgARIgARIgARIgARIgARIgARIgARLQBOChCoZUeblYSrg/+RdpYmNFD1WaEP8hARIgARIgARIgARIgARIgARIgARIgARIgARIgARIgARIgARIgARIgARIgARIgARIgARLIGAI61J8YT2VnZ4tdFTxVKZUj6/kIBZgxFHihJEACJPD/9u4mOXrdyAJoqYgOewsevk28rXtR3b2C4o95UU6o4tMOlAcRJEhKkzyF4Y1MAgQIECBAgAABAgQIECBAgAABAgQIECBAgAABAgQIECBAgACBWyDj/jLn77gDVOf17kx1HMfjeYeqBKocEQIECBAgQIAAAQIECBAgQIAAAQIECBAgQIAAAQIECBAgQIAAAQIE2gl83YmqdKr6+rqvu/qv59cc+ydQ1e4oKJgAAQIECBAgQIAAAQIECBAgQIAAAQIECBAgQIAAAQIECBAgQIAAgaSoZpDqvt39qma4Kp2rBhoCBAgQIECAAAECBAgQIECAAAECBAgQIECAAAECBAgQIECAAAECBAh0EjjvUX9JUe33mL+Zprpv+348xhgCVZ0OgloJECBAgAABAgQIECBAgAABAgQIECBAgAABAgQIECBAgAABAgQIEHjM4FQcnveYv9mm6n4e23aHqvaHkX9OCAECBAgQIECAAAECBAgQIECAAAECBAgQIECAAAECBAgQIECAAAECrQTSoeo4j/+O+UvpX/f7Od8FqlodBcUSIECAAAECBAgQIECAAAECBAgQIECAAAECBAgQIECAAAECBAgQIHBd12O7O1Id98i/5/Mdocq3PAtUOR8ECBAgQIAAAQIECBAgQIAAAQIECBAgQIAAAQIECBAgQIAAAQIECLQS+Pq6R/1dd1+qr+cMVc3XO1CVNVpJKJYAAQIECBAgQIAAAQIECBAgQIAAAQIECBAgQIAAAQIECBAgQIAAgfYC6UY141P/7VQVkDHucNW+C1S1Px0ACBAgQIAAAQIECBAgQIAAAQIECBAgQIAAAQIECBAgQIAAAQIECDQTSIeq//+//338z9ge//znP2f1GfeX70b+NTsMyiVAgAABAgQIECBAgAABAgQIECBAgAABAgQIECBAgAABAgQIECDQXeA8z0e6VGVVkCphqm3bdKjqfjjUT4AAAQIECBAgQIAAAQIECBAgQIAAAQIECBAgQIAAAQIECBAgQKCbwBjj8a9//evx119/Pf7xj3/MzlT5lqVDVbfToF4CBAgQIECAAAECBAgQIECAAAECBAgQIECAAAECBAgQIECAAAECzQXSoSrdqI7jWBLVtUqgapF4IECAAAECBAgQIECAAAECBAgQIECAAAECBAgQIECAAAECBAgQIECgg0CFp1JrRv4lXFVLoKok7AQIECBAgAABAgQIECBAgAABAgQIECBAgAABAgQIECBAgAABAgQItBD4+vqaY/6yJ1yVTlUJVeVdoKrFEVAkAQIECBAgQIAAAQIECBAgQIAAAQIECBAgQIAAAQIECBAgQIAAAQIlkK5U+76vUNV1XTNUle8CVaVkJ0CAAAECBAgQIECAAAECBAgQIECAAAECBAgQIECAAAECBAgQIECghUC6UiU8lY5UWTNIdb+nU5VAVYsjoEgCBAgQIECAAAECBAgQIECAAAECBAgQIECAAAECBAgQIECAAAECBD4FEqJKgCrhqnSoWuGqz3/yTIAAAQIECBAgQIAAAQIECBAgQIAAAQIECBAgQIAAAQIECBAgQIAAgQ4CFaLatm2GqV6v19x1qOrw66uRAAECBAgQIECAAAECBAgQIECAAAECBAgQIECAAAECBAgQIECAAIElUN2o1of7IcGqLIGqyeBGgAABAgQIECBAgAABAgQIECBAgAABAgQIECBAgAABAgQIECBAgEAngYSq0qUqY/+yMgIw76MTgloJECBAgAABAgQIECBAgAABAgQIECBAgAABAgQIECBAgAABAgQIECAQgfM8J0SCVFkrWDXf3AgQIECAAAECBAgQIECAAAECBAgQIECAAAECBAgQIECAAAECBAgQINBEoMJU6VKVQFW959nIvyaHQJkECBAgQIAAAQIECBAgQIAAAQIECBAgQIAAAQIECBAgQIAAAQIECLwFxvge7Jcw1bZta+SfQJVTQoAAAQIECBAgQIAAAQIECBAgQIAAAQIECBAgQIAAAQIECBAgQIBAK4GEqK7rmp2psmfcX/YsgapWR0GxBAgQIECAAAECBAgQIECAAAECBAgQIECAAAECBAgQIECAAAECBAgkPJXxftWZKqP/6ptAlfNBgAABAgQIECBAgAABAgQIECBAgAABAgQIECBAgAABAgQIECBAgEArgQSoKkRVhSdclc5VAlUlYidAgAABAgQIECBAgAABAgQIECBAgAABAgQIECBAgAABAgQIECBAoIVAwlQZ81ej//I+w1R31yqBqhZHQJEECBAgQIAAAQIECBAgQIAAAQIECBAgQIAAAQIECBAgQIAAAQIECJTACk/dAaqEqbISsJpj/+qf7AQIECBAgAABAgQIECBAgAABAgQIECBAgAABAgQIECBAgAABAgQIEOgg8LyDVAlPfY79y8i/LB2qOpwANRIgQIAAAQIECBAgQIAAAQIECBAgQIAAAQIECBAgQIAAAQIECBAgsATSoSorXamqQ1V9E6haTB4IECBAgAABAgQIECBAgAABAgQIECBAgAABAgQIECBAgAABAgQIEOggUB2qxhizU1VqzvMcBdgBQI0ECBAgQIAAAQIECBAgQIAAAQIECBAgQIAAAQIECBAgQIAAAQIECBAogRr3lw5VCVHlPc8Z+6dDVSnZCRAgQIAAAQIECBAgQIAAAQIECBAgQIAAAQIECBAgQIAAAQIECBBoJZBOVRn5V5cOVa1+fsUSIECAAAECBAgQIECAAAECBAgQIECAAAECBAgQIECAAAECBAgQIFACFaLKnlVjAHWoKiE7AQIECBAgQIAAAQIECBAgQIAAAQIECBAgQIAAAQIECBAgQIAAAQItBNKJKmvf97kb+TcZ3AgQIECAAAECBAgQIECAAAECBAgQIECAAAECBAgQIECAAAECBAgQ6CgwxngkRJWuVLW2bXscx/H4/lJ/sRMgQIAAAQIECBAgQIAAAQIECBAgQIAAAQIECBAgQIAAAQIECBAgQOAXC6RDVa4KVGXsX8JU2QWqfvEPrzQCBAgQIECAAAECBAgQIECAAAECBAgQIECAAAECBAgQIECAAAECBH4KpDvV6kj1R5cqgaqfXr4QIECAAAECBAgQIECAAAECBAgQIECAAAECBAgQIECAAAECBAgQIPCLBdKJKqGq7Pu+z0rzniVQNRncCBAgQIAAAQIECBAgQIAAAQIECBAgQIAAAQIECBAgQIAAAQIECBDoIlDhqdQ7xphlp2NVwlXvty4S6iRAgAABAgQIECBAgAABAgQIECBAgAABAgQIECBAgAABAgQIECBAoL1AOlPlyjqOY+71TaBqcrgRIECAAAECBAgQIECAAAECBAgQIECAAAECBAgQIECAAAECBAgQINBF4DzPOfIv9T6f7yF/CVSlS5WRf11OgToJECBAgAABAgQIECBAgAABAgQIECBAgAABAgQIECBAgAABAgQIEJgCGfOXsX8JU1W4KoGqPAtUOSQECBAgQIAAAQIECBAgQIAAAQIECBAgQIAAAQIECBAgQIAAAQIECLQSSHAq3ahq3F+Kr2CVQFWro6BYAgQIECBAgAABAgQIECBAgAABAgQIECBAgAABAgQIECBAgAABAgQqPBWJdKlKuKqWQFVJ2AkQIECAAAECBAgQIECAAAECBAgQIECAAAECBAgQIECAAAECBAgQaCGQ8X51JVyVTlUJVeWbQFWLI6BIAgQIECBAgAABAgQIECBAgAABAgQIECBAgAABAgQIECBAgAABAgRKIF2p9n1foarrumaoKt8FqkrJToAAAQIECBAgQIAAAQIECBAgQIAAAQIECBAgQIAAAQIECBAgQIBAC4F0pUp4Kh2psmaQ6n5PpyqBqhZHQJEECBAgQIAAAQIECBAgQIAAAQIECBAgQIAAAQIECBAgQIAAAQIECHwKJESVAFXCVelQtcJVn//kmQABAgQIECBAgAABAgQIECBAgAABAgQIECBAgAABAgQIECBAgAABAh0EKkS1bdsMU71er7nrUNXh11cjAQIECBAgQIAAAQIECBAgQIAAAQIECBAgQIAAAQIECBAgQIAAAQJLoLpRrQ/3Q4JVWQJVk8GNAAECBAgQIECAAAECBAgQIECAAAECBAgQIECAAAECBAgQIECAAIFOAglVpUtVxv5lZQRg3kcnBLUSIECAAAECBAgQIECAAAECBAgQIECAAAECBAgQIECAAAECBAgQIEAgAud5TogEqbJWsGq+uREgQIAAAQIECBAgQIAAAQIECBAgQIAAAQIECBAgQIAAAQIECBAgQKCJQIWp0qUqgap6z7ORf00OgTIJECBAgAABAgQIECBAgAABAgQIECBAgAABAgQIECBAgAABAgQIEHgLjPE92C9hqm3b1sg/gSqnhAABAgQIECBAgAABAgQIECBAgAABAgQIECBAgAABAgQIECBAgACBVgIJUV3XNTtTZc+4v+xZAlWtjoJiCRAgQIAAAQIECBAgQIAAAQIECBAgQIAAAQIECBAgQIAAAQIECBBIeCrj/aozVUb/1TeBKueDAAECBAgQIECAAAECBAgQIECAAAECBAgQIECAAAECBAgQIECAAIFWAglQVYiqCk+4Kp2rBKpKxE6AAAECBAgQIECAAAECBAgQIECAAAECBAgQIECAAAECBAgQIECAQAuBhKky5q9G/+V9hqnurlUCVS2OgCIJECBAgAABAgQIECBAgAABAgQIECBAgAABAgQIECBAgAABAgQIECiBFZ66A1QJU2UlYDXH/tU/2QkQIECAAAECBAgQIECAAAECBAgQIECAAAECBAgQIECAAAECBAgQINBB4HkHqRKe+hz7l5F/WTpUdTgBaiRAgAABAgQIECBAgAABAgQIECBAgAABAgQIECBAgAABAgQIECBAYAmkQ1VWulJVh6r6JlC1mDwQIECAAAECBAgQIECAAAECBAgQIECAAAECBAgQIECAAAECBAgQINBBoDpUjTFmp6rUnOc5CrADgBoJECBAgAABAgQIECBAgAABAgQIECBAgAABAgQIECBAgAABAgQIECBQAjXuLx2qEqLKe54z9k+HqlKyEyBAgAABAgQIECBAgAABAgQIECBAgAABAgQIECBAgAABAgQIECDQSiCdqjLyry4dqlr9/IolQIAAAQIECBAgQIAAAQIECBAgQIAAAQIECBAgQIAAAQIECBAgQKAEKkSVPavGAOpQVUJ2AgQIECBAgAABAgQIECBAgAABAgQIECBAgAABAgQIECBAgAABAgRaCKQTVda+73M38m8yuBEgQIAAAQIECBAgQIAAAQIECBAgQIAAAQIECBAgQIAAAQIECBAg0FFgjPFIiCpdqWpt2/Y4juPx/aX+YidAgAABAgQIECBAgAABAgQIECBAgAABAgQIECBAgAABAgQIECBAgMAvFkiHqlwVqMrYv4SpsgtU/eIfXmkECBAgQIAAAQIECBAgQIAAAQIECBAgQIAAAQIECBAgQIAAAQIECPwUSHeq1ZHqjy5VAlU/vXwhQIAAAQIECBAgQIAAAQIECBAgQIAAAQIECBAgQIAAAQIECBAgQOAXC6QTVUJV2fd9n5XmPUugajK4ESBAgAABAgQIECBAgAABAgQIECBAgAABAgQIECBAgAABAgQIECDQRaDCU6l3jDHLTseqhKveb10k1EmAAAECBAgQIECAAAECBAgQIECAAAECBAgQIECAAAECBAgQIECAQHuBdKbKlXUcx9zrm0DV5HAjQIAAAQIECBAgQIAAAQIECBAgQIAAAQIECBAgQIAAAQIECBAgQKCLwHmec+Rf6n0+30P+EqhKlyoj/7qcAnUSIECAAAECBAgQIECAAAECBAgQIECAAAECBAgQIECAAAECBAgQIDAFMuYvY/8SpqpwVQJVeRaockgIECBAgAABAgQIECBAgAABAgQIECBAgAABAgQIECBAgAABAgQIEGglkOBUulHVuL8UX8EqgapWR0GxBAgQIECAAAECBAgQIECAAAECBAgQIECAAAECBAgQIECAAAECBAhUeCoS6VKVcFUtgaqSsBMgQIAAAQIECBAgQIAAAQIECBAgQIAAAQIECBAgQIAAAQIECBAg0EIg4/3qSrgqnaoSqso3gaoWR0CRBAgQIECAAAECBAgQIECAAAECBAgQIECAAAECBAgQIECAAAECBAiUQLpS7fu+QlXXdc1QVb4LVJWSnQABAgQIECBAgAABAgQIECBAgAABAgQIECBAgAABAgQIECBAgACBFgLpSpXwVDpSZc0g1f0Z96eMAAAlyElEQVSeTlUCVS2OgCIJECBAgAABAgQIECBAgAABAgQIECBAgAABAgQIECBAgAABAgQIEPgUSIgqAaqEq9KhaoWrPv/JMwECBAgQIECAAAECBAgQIECAAAECBAgQIECAAAECBAgQIECAAAECBDoIVIhq27YZpnq9XnPXoarDr69GAgQIECBAgAABAgQIECBAgAABAgQIECBAgAABAgQIECBAgAABAgSWQHWjWh/uhwSrsgSqJoMbAQIECBAgQIAAAQIECBAgQIAAAQIECBAgQIAAAQIECBAgQIAAAQKdBBKqSpeqjP3LygjAvI9OCGolQIAAAQIECBAgQIAAAQIECBAgQIAAAQIECBAgQIAAAQIECBAgQIBABM7znBAJUmWtYNV8cyNAgAABAgQIECBAgAABAgQIECBAgAABAgQIECBAgAABAgQIECBAgEATgQpTpUtVAlX1nmcj/5ocAmUSIECAAAECBAgQIECAAAECBAgQIECAAAECBAgQIECAAAECBAgQIPAWGON7sF/CVNu2rZF/AlVOCQECBAgQIECAAAECBAgQIECAAAECBAgQIECAAAECBAgQIECAAAECrQQSorqua3amyp5xf9mzBKpaHQXFEiBAgAABAgQIECBAgAABAgQIECBAgAABAgQIECBAgAABAgQIECCQ8FTG+1Vnqoz+q28CVc4HAQIECBAgQIAAAQIECBAgQIAAAQIECBAgQIAAAQIECBAgQIAAAQKtBBKgqhBVFZ5wVTpXCVSViJ0AAQIECBAgQIAAAQIECBAgQIAAAQIECBAgQIAAAQIECBAgQIAAgRYCCVNlzF+N/sv7DFPdXasEqlocAUUSIECAAAECBAgQIECAAAECBAgQIECAAAECBAgQIECAAAECBAgQIFACKzx1B6gSpspKwGqO/at/shMgQIAAAQIECBAgQIAAAQIECBAgQIAAAQIECBAgQIAAAQIECBAgQKCDwPMOUiU89Tn2LyP/snSo6nAC1EiAAAECBAgQIECAAAECBAgQIECAAAECBAgQIECAAAECBAgQIECAwBJIh6qsdKWqDlX1TaBqMXkgQIAAAQIECBAgQIAAAQIECBAgQIAAAQIECBAgQIAAAQIECBAgQKCDQHWoGmPMTlWpOc9zFGAHADUSIECAAAECBAgQIECAAAECBAgQIECAAAECBAgQIECAAAECBAgQIECgBGrcXzpUJUSV9zxn7J8OVaVkJ0CAAAECBAgQIECAAAECBAgQIECAAAECBAgQIECAAAECBAgQIECglUA6VWXkX106VLX6+RVLgAABAgQIECBAgAABAgQIECBAgAABAgQIECBAgAABAgQIECBAgEAJVIgqe1aNAdShqoTsBAgQIECAAAECBAgQIECAAAECBAgQIECAAAECBAgQIECAAAECBAi0EEgnqqx93+du5N9kcCNAgAABAgQIECBAgAABAgQIECBAgAABAgQIECBAgAABAgQIECBAoKPAGOOREFW6UtXatu1xHMfj+0v9xU6AAAECBAgQIECAAAECBAgQIECAAAECBAgQIECAAAECBAgQIECAAIFfLJAOVbkqUJWxfwlTZReo+sU/vNIIECBAgAABAgQIECBAgAABAgQIECBAgAABAgQIECBAgAABAgQIEPgpkO5UqyPVH12qBKp+evlCgAABAgQIECBAgAABAgQIECBAgAABAgQIECBAgAABAgQIECBAgMAvFkgnqoSqsu/7PivNe5ZA1WRwI0CAAAECBAgQIECAAAECBAgQIECAAAECBAgQIECAAAECBAgQIECgi0CFp1LvGGOWnY5VCVe937pIqJMAAQIECBAgQIAAAQIECBAgQIAAAQIECBAgQIAAAQIECBAgQIAAgfYC6UyVK+s4jrnXN4GqyeFGgAABAgQIECBAgAABAgQIECBAgAABAgQIECBAgAABAgQIECBAgEAXgfM858i/1Pt8vof8JVCVLlVG/nU5BeokQIAAAQIECBAgQIAAAQIECBAgQIAAAQIECBAgQIAAAQIECBAgQGAKZMxfxv4lTFXhqgSq8ixQ5ZAQIECAAAECBAgQIECAAAECBAgQIECAAAECBAgQIECAAAECBAgQINBKIMGpdKOqcX8pvoJVAlWtjoJiCRAgQIAAAQIECBAgQIAAAQIECBAgQIAAAQIECBAgQIAAAQIECBCo8FQk0qUq4apaAlUlYSdAgAABAgQIECBAgAABAgQIECBAgAABAgQIECBAgAABAgQIECBAoIVAxvvVlXBVOlUlVJVvAlUtjoAiCRAgQIAAAQIECBAgQIAAAQIECBAgQIAAAQIECBAgQIAAAQIECBAogXSl2vd9haqu65qhqnwXqColOwECBAgQIECAAAECBAgQIECAAAECBAgQIECAAAECBAgQIECAAAECLQTSlSrhqXSkyppBqvs9naoEqlocAUUSIECAAAECBAgQIECAAAECBAgQIECAAAECBAgQIECAAAECBAgQIPApkBBVAlQJV6VD1QpXff6TZwIECBAgQIAAAQIECBAgQIAAAQIECBAgQIAAAQIECBAgQIAAAQIECHQQqBDVtm0zTPV6veauQ1WHX1+NBAgQIECAAAECBAgQIECAAAECBAgQIECAAAECBAgQIECAAAECBAgsgepGtT7cDwlWZQlUTQY3AgQIECBAgAABAgQIECBAgAABAgQIECBAgAABAgQIECBAgAABAgQ6CSRUlS5VGfuXlRGAeR+dENRKgAABAgQIECBAgAABAgQIECBAgAABAgQIECBAgAABAgQIECBAgACBCJznOSESpMpawar55kaAAAECBAgQIECAAAECBAgQIECAAAECBAgQIECAAAECBAgQIECAAIEmAhWmSpeqBKrqPc9G/jU5BMokQIAAAQIECBAgQIAAAQIECBAgQIAAAQIECBAgQIAAAQIECBAgQOAtMMb3YL+EqbZtWyP/BKqcEgIECBAgQIAAAQIECBAgQIAAAQIECBAgQIAAAQIECBAgQIAAAQIEWgkkRHVd1+xMlT3j/rJnCVS1OgqKJUCAAAECBAgQIECAAAECBAgQIECAAAECBAgQIECAAAECBAgQIEAg4amM96vOVBn9V98EqpwPAgQIECBAgAABAgQIECBAgAABAgQIECBAgAABAgQIECBAgAABAgRaCSRAVSGqKjzhqnSuEqgqETsBAgQIECBAgAABAgQIECBAgAABAgQIECBAgAABAgQIECBAgAABAi0EEqbKmL8a/Zf3Gaa6u1YJVLU4AookQIAAAQIECBAgQIAAAQIECBAgQIAAAQIECBAgQIAAAQIECBAgQKAEVnjqDlAlTJWVgNUc+1f/ZCdAgAABAgQIECBAgAABAgQIECBAgAABAgQIECBAgAABAgQIECBAgEAHgecdpEp46nPsX0b+ZelQ1eEEqJEAAQIECBAgQIAAAQIECBAgQIAAAQIECBAgQIAAAQIECBAgQIAAgSWQDlVZ6UpVHarqm0DVYvJAgAABAgQIECBAgAABAgQIECBAgAABAgQIECBAgAABAgQIECBAgEAHgepQNcaYnapSc57nKMAOAGokQIAAAQIECBAgQIAAAQIECBAgQIAAAQIECBAgQIAAAQIECBAgQIBACdS4v3SoSogq73nO2D8dqkrJToAAAQIECBAgQIAAAQIECBAgQIAAAQIECBAgQIAAAQIECBAgQIBAK4F0qsrIv7p0qGr18yuWAAECBAgQIECAAAECBAgQIECAAAECBAgQIECAAAECBAgQIECAAIESqBBV9qwaA6hDVQnZCRAgQIAAAQIECBAgQIAAAQIECBAgQIAAAQIECBAgQIAAAQIECBBoIZBOVFn7vs/dyL/J4EaAAAECBAgQIECAAAECBAgQIECAAAECBAgQIECAAAECBAgQIECAQEeBMcYjIap0paq1bdvjOI7H95f6i50AAQIECBAgQIAAAQIECBAgQIAAAQIECBAgQIAAAQIECBAgQIAAAQK/WCAdqnJVoCpj/xKmyi5Q9Yt/eKURIECAAAECBAgQIECAAAECBAgQIECAAAECBAgQIECAAAECBAgQIPBTIN2pVkeqP7pUCVT99PKFAAECBAgQIECAAAECBAgQIECAAAECBAgQIECAAAECBAgQIECAAIFfLJBOVAlVZd/3fVaa9yyBqsngRoAAAQIECBAgQIAAAQIECBAgQIAAAQIECBAgQIAAAQIECBAgQIBAF4EKT6XeMcYsOx2rEq56v3WRUCcBAgQIECBAgAABAgQIECBAgAABAgQIECBAgAABAgQIECBAgAABAu0F0pkqV9ZxHHOvbwJVk8ONAAECBAgQIECAAAECBAgQIECAAAECBAgQIECAAAECBAgQIECAAIEuAud5zpF/qff5fA/5S6AqXaqM/OtyCtRJgAABAgQIECBAgAABAgQIECBAgAABAgQIECBAgAABAgQIECBAgMAUyJi/jP1LmKrCVQlU5VmgyiEhQIAAAQIECBAgQIAAAQIECBAgQIAAAQIECBAgQIAAAQIECBAgQKCVQIJT6UZV4/5SfAWrBKpaHQXFEiBAgAABAgQIECBAgAABAgQIECBAgAABAgQIECBAgAABAgQIECBQ4alIpEtVwlW1BKpKwk6AAAECBAgQIECAAAECBAgQIECAAAECBAgQIECAAAECBAgQIECAQAuBjPerK+GqdKpKqCrfBKpaHAFFEiBAgAABAgQIECBAgAABAgQIECBAgAABAgQIECBAgAABAgQIECBQAulKte/7ClVd1zVDVfkuUFVKdgIECBAgQIAAAQIECBAgQIAAAQIECBAgQIAAAQIECBAgQIAAAQIEWgikK1XCU+lIlTWDVPd7OlUJVLU4AookQIAAAQIECBAgQIAAAQIECBAgQIAAAQIECBAgQIAAAQIECBAgQOBTICGqBKgSrkqHqhWu+vwnzwQIECBAgAABAgQIECBAgAABAgQIECBAgAABAgQIECBAgAABAgQIEOggUCGqbdtmmOr1es1dh6oOv74aCRAgQIAAAQIECBAgQIAAAQIECBAgQIAAAQIECBAgQIAAAQIECBBYAtWNan24HxKsyhKomgxuBAgQIECAAAECBAgQIECAAAECBAgQIECAAAECBAgQIECAAAECBAh0EkioKl2qMvYvKyMA8z46IaiVAAECBAgQIECAAAECBAgQIECAAAECBAgQIECAAAECBAgQIECAAAECETjPc0IkSJW1glXzzY0AAQIECBAgQIAAAQIECBAgQIAAAQIECBAgQIAAAQIECBAgQIAAAQJNBCpMlS5VCVTVe56N/GtyCJRJgAABAgQIECBAgAABAgQIECBAgAABAgQIECBAgAABAgQIECBAgMBbYIzvwX4JU23btkb+CVQ5JQQIECBAgAABAgQIECBAgAABAgQIECBAgAABAgQIECBAgAABAgQItBJIiOq6rtmZKnvG/WXPEqhqdRQUS4AAAQIECBAgQIAAAQIECBAgQIAAAQIECBAgQIAAAQIECBAgQIBAwlMZ71edqTL6r74JVDkfBAgQIECAAAECBAgQIECAAAECBAgQIECAAAECBAgQIECAAAECBAi0EkiAqkJUVXjCVelcJVBVInYCBAgQIECAAAECBAgQIECAAAECBAgQIECAAAECBAgQIECAAAECBFoIJEyVMX81+i/vM0x1d60SqGpxBBRJgAABAgQIECBAgAABAgQIECBAgAABAgQIECBAgAABAgQIECBAgEAJrPDUHaBKmCorAas59q/+yU6AAAECBAgQIECAAAECBAgQIECAAAECBAgQIECAAAECBAgQIECAAIEOAs87SJXw1OfYv4z8y9KhqsMJUCMBAgQIECBAgAABAgQIECBAgAABAgQIECBAgAABAgQIECBAgAABAksgHaqy0pWqOlTVN4GqxeSBAAECBAgQIECAAAECBAgQIECAAAECBAgQIECAAAECBAgQIECAAIEOAtWhaowxO1Wl5jzPUYAdANRIgAABAgQIECBAgAABAgQIECBAgAABAgQIECBAgAABAgQIECBAgACBEqhxf+lQlRBV3vOcsX86VJWSnQABAgQIECBAgAABAgQIECBAgAABAgQIECBAgAABAgQIECBAgACBVgLpVJWRf3XpUNXq51csAQIECBAgQIAAAQIECBAgQIAAAQIECBAgQIAAAQIECBAgQIAAAQIlUCGq7Fk1BlCHqhKyEyBAgAABAgQIECBAgAABAgQIECBAgAABAgQIECBAgAABAgQIECDQQiCdqLL2fZ+7kX+TwY0AAQIECBAgQIAAAQIECBAgQIAAAQIECBAgQIAAAQIECBAgQIAAgY4CY4xHQlTpSlVr27bHcRyP7y/1FzsBAgQIECBAgAABAgQIECBAgAABAgQIECBAgAABAgQIECBAgAABAgR+sUA6VOWqQFXG/iVMlV2g6hf/8EojQIAAAQIECBAgQIAAAQIECBAgQIAAAQIECBAgQIAAAQIECBAgQOCnQLpTrY5Uf3SpEqj66eULAQIECBAgQIAAAQIECBAgQIAAAQIECBAgQIAAAQIECBAgQIAAAQK/WCCdqBKqyr7v+6w071kCVZPBjQABAgQIECBAgAABAgQIECBAgAABAgQIECBAgAABAgQIECBAgACBLgIVnkq9Y4xZdjpWJVz1fusioU4CBAgQIECAAAECBAgQIECAAAECBAgQIECAAAECBAgQIECAAAECBNoLpDNVrqzjOOZe3wSqJocbAQIECBAgQIAAAQIECBAgQIAAAQIECBAgQIAAAQIECBAgQIAAAQJdBM7znCP/Uu/z+R7yl0BVulQZ+dflFKiTAAECBAgQIECAAAECBAgQIECAAAECBAgQIECAAAECBAgQIECAAIEpkDF/GfuXMFWFqxKoyrNAlUNCgAABAgQIECBAgAABAgQIECBAgAABAgQIECBAgAABAgQIECBAgEArgQSn0o2qxv2l+ApWCVS1OgqKJUCAAAECBAgQIECAAAECBAgQIECAAAECBAgQIECAAAECBAgQIECgwlORSJeqhKtqCVSVhJ0AAQIECBAgQIAAAQIECBAgQIAAAQIECBAgQIAAAQIECBAgQIAAgRYCGe9XV8JV6VSVUFW+CVS1OAKKJECAAAECBAgQIECAAAECBAgQIECAAAECBAgQIECAAAECBAgQIECgBNKVat/3Faq6rmuGqvJdoKqU7AQIECBAgAABAgQIECBAgAABAgQIECBAgAABAgQIECBAgAABAgQItBBIV6qEp9KRKmsGqe73dKoSqGpxBBRJgAABAgQIECBAgAABAgQIECBAgAABAgQIECBAgAABAgQIECBAgMCnQEJUCVAlXJUOVStc9flPngkQIECAAAECBAgQIECAAAECBAgQIECAAAECBAgQIECAAAECBAgQINBBoEJU27bNMNXr9Zq7DlUdfn01EiBAgAABAgQIECBAgAABAgQIECBAgAABAgQIECBAgAABAgQIECCwBKob1fpwPyRYlSVQNRncCBAgQIAAAQIECBAgQIAAAQIECBAgQIAAAQIECBAgQIAAAQIECBDoJJBQVbpUZexfVkYA5n10QlArAQIECBAgQIAAAQIECBAgQIAAAQIECBAgQIAAAQIECBAgQIAAAQIEInCe54RIkCprBavmmxsBAgQIECBAgAABAgQIECBAgAABAgQIECBAgAABAgQIECBAgAABAgSaCFSYKl2qEqiq9zwb+dfkECiTAAECBAgQIECAAAECBAgQIECAAAECBAgQIECAAAECBAgQIECAAIG3wBjfg/0Sptq2bY38E6hySggQIECAAAECBAgQIECAAAECBAgQIECAAAECBAgQIECAAAECBAgQaCWQENV1XbMzVfaM+8ueJVDV6igolgABAgQIECBAgAABAgQIECBAgAABAgQIECBAgAABAgQIECBAgACBhKcy3q86U2X0X30TqHI+CBAgQIAAAQIECBAgQIAAAQIECBAgQIAAAQIECBAgQIAAAQIECBBoJZAAVYWoqvCEq9K5SqCqROwECBAgQIAAAQIECBAgQIAAAQIECBAgQIAAAQIECBAgQIAAAQIECLQQSJgqY/5q9F/eZ5jq7lolUNXiCCiSAAECBAgQIECAAAECBAgQIECAAAECBAgQIECAAAECBAgQIECAAIESWOGpO0CVMFVWAlZz7F/9k50AAQIECBAgQIAAAQIECBAgQIAAAQIECBAgQIAAAQIECBAgQIAAAQIdBJ53kCrhqc+xfxn5l6VDVYcToEYCBAgQIECAAAECBAgQIECAAAECBAgQIECAAAECBAgQIECAAAECBJZAOlRlpStVdaiqbwJVi8kDAQIECBAgQIAAAQIECBAgQIAAAQIECBAgQIAAAQIECBAgQIAAAQIdBKpD1RhjdqpKzXmeowA7AKiRAAECBAgQIECAAAECBAgQIECAAAECBAgQIECAAAECBAgQIECAAAECJVDj/tKhKiGqvOc5Y/90qColOwECBAgQIECAAAECBAgQIECAAAECBAgQIECAAAECBAgQIECAAAECrQTSqSoj/+rSoarVz69YAgQIECBAgAABAgQIECBAgAABAgQIECBAgAABAgQIECBAgAABAgRKoEJU2bNqDKAOVSVkJ0CAAAECBAgQIECAAAECBAgQIECAAAECBAgQIECAAAECBAgQIECghUA6UWXt+z53I/8mgxsBAgQIECBAgAABAgQIECBAgAABAgQIECBAgAABAgQIECBAgAABAh0FxhiPhKjSlarWtm2P4zge31/qL3YCBAgQIECAAAECBAgQIECAAAECBAgQIECAAAECBAgQIECAAAECBAj8YoF0qMpVgaqM/UuYKrtA1S/+4ZVGgAABAgQIECBAgAABAgQIECBAgAABAgQIECBAgAABAgQIECBAgMBPgXSnWh2p/uhSJVD108sXAgQIECBAgAABAgQIECBAgAABAgQIECBAgAABAgQIECBAgAABAgR+sUA6USVUlX3f91lp3rMEqiaDGwECBAgQIECAAAECBAgQIECAAAECBAgQIECAAAECBAgQIECAAAECXQQqPJV6xxiz7HSsSrjq/dZFQp0ECBAgQIAAAQIECBAgQIAAAQIECBAgQIAAAQIECBAgQIAAAQIECLQXSGeqXFnHccy9vglUTQ43AgQIECBAgAABAgQIECBAgAABAgQIECBAgAABAgQIECBAgAABAgS6CJznOUf+pd7n8z3kL4GqdKky8q/LKVAnAQIECBAgQIAAAQIECBAgQIAAAQIECBAgQIAAAQIECBAgQIAAAQJTIGP+MvYvYaoKVyVQlWeBKoeEAAECBAgQIECAAAECBAgQIECAAAECBAgQIECAAAECBAgQIECAAIFWAglOpRtVjftL8RWsEqhqdRQUS4AAAQIECBAgQIAAAQIECBAgQIAAAQIECBAgQIAAAQIECBAgQIBAhacikS5VCVfVEqgqCTsBAgQIECBAgAABAgQIECBAgAABAgQIECBAgAABAgQIECBAgAABAi0EMt6vroSr0qkqoap8E6hqcQQUSYAAAQIECBAgQIAAAQIECBAgQIAAAQIECBAgQIAAAQIECBAgQIBACaQr1b7vK1R1XdcMVeW7QFUp2QkQIECAAAECBAgQIECAAAECBAgQIECAAAECBAgQIECAAAECBAgQaCGQrlQJT6UjVdYMUt3v6VQlUNXiCCiSAAECBAgQIECAAAECBAgQIECAAAECBAgQIECAAAECBAgQIECAAIFPgYSoEqBKuCodqla46vOfPBMgQIAAAQIECBAgQIAAAQIECBAgQIAAAQIECBAgQIAAAQIECBAgQKCDQIWotm2bYarX6zV3Hao6/PpqJECAAAECBAgQIECAAAECBAgQIECAAAECBAgQIECAAAECBAgQIEBgCVQ3qvXhfkiwKkugajK4ESBAgAABAgQIECBAgAABAgQIECBAgAABAgQIECBAgAABAgQIECDQSSChqnSpyti/rIwAzPvohKBWAgQIECBAgAABAgQIECBAgAABAgQIECBAgAABAgQIECBAgAABAgQIROA8zwmRIFXWClbNNzcCBAgQIECAAAECBAgQIECAAAECBAgQIECAAAECBAgQIECAAAECBAg0EagwVbpUJVBV73k28q/JIVAmAQIECBAgQIAAAQIECBAgQIAAAQIECBAgQIAAAQIECBAgQIAAAQJvgTG+B/slTLVt2xr5J1DllBAgQIAAAQIECBAgQIAAAQIECBAgQIAAAQIECBAgQIAAAQIECBAg0EogIarrumZnquwZ95c9S6Cq1VFQLAECBAgQIECAAAECBAgQIECAAAECBAgQIECAAAECBAgQIECAAAECCU9lvF91psrov/omUOV8ECBAgAABAgQIECBAgAABAgQIECBAgAABAgQIECBAgAABAgQIECDQSiABqgpRVeEJV6VzlUBVidgJECBAgAABAgQIECBAgAABAgQIECBAgAABAgQIECBAgAABAgQIEGghkDBVxvzV6L+8zzDV3bVKoKrFEVAkAQIECBAgQIAAAQIECBAgQIAAAQIECBAgQIAAAQIECBAgQIAAAQIlsMJTd4AqYaqsBKzm2L/6JzsBAgQIECBAgAABAgQIECBAgAABAgQIECBAgAABAgQIECBAgAABAgQ6CDzvIFXCU59j/zLyL0uHqg4nQI0ECBAgQIAAAQIECBAgQIAAAQIECBAgQIAAAQIECBAgQIAAAQIECCyBdKjKSleq6lBV3wSqFpMHAgQIECBAgAABAgQIECBAgAABAgQIECBAgAABAgQIECBAgAABAgQ6CFSHqjHG7FSVmvM8RwF2AFAjAQIECBAgQIAAAQIECBAgQIAAAQIECBAgQIAAAQIECBAgQIAAAQIESqDG/aVDVUJUec9zxv7pUFVKdgIECBAgQIAAAQIECBAgQIAAAQIECBAgQIAAAQIECBAgQIAAAQIEWgmkU1VG/tWlQ1Wrn1+xBAgQIECAAAECBAgQIECAAAECBAgQIECAAAECBAgQIECAAAECBAiUQIWosmfVGEAdqkrIToAAAQIECBAgQIAAAQIECBAgQIAAAQIECBAgQIAAAQIECBAgQIBAC4F0osra933uRv5NBjcCBAgQIECAAAECBAgQIECAAAECBAgQIECAAAECBAgQIECAAAECBDoKjDEeCVGlK1Wtbdsex3E8vr/UX+wECBAgQIAAAQIECBAgQIAAAQIECBAgQIAAAQIECBAgQIAAAQIECBD4xQLpUJWrAlUZ+5cwVXaBql/8wyuNAAECBAgQIECAAAECBAgQIECAAAECBAgQIECAAAECBAgQIECAAIGfAulOtTpS/dGlSqDqp5cvBAgQIECAAAECBAgQIECAAAECBAgQIECAAAECBAgQIECAAAECBAj8YoF0okqoKvu+77PSvGcJVE0GNwIECBAgQIAAAQIECBAgQIAAAQIECBAgQIAAAQIECBAgQIAAAQIEughUeCr1jjFm2elYlXDV+62LhDoJECBAgAABAgQIECBAgAABAgQIECBAgAABAgQIECBAgAABAgQIEGgvkM5UubKO45h7fROomhxuBAgQIECAAAECBAgQIECAAAECBAgQIECAAAECBAgQIECAAAECBAh0ETjPc478S73P53vIXwJV6VJl5F+XU6BOAgQIECBAgAABAgQIECBAgAABAgQIECBAgAABAgQIECBAgAABAgSmQMb8ZexfwlQVrkqgKs8CVQ4JAQIECBAgQIAAAQIECBAgQIAAAQIECBAgQIAAAQIECBAgQIAAAQKtBBKcSjeqGveX4itYJVDV6igolgABAgQIECBAgAABAgQIECBAgAABAgQIECBAgAABAgQIECBAgACBCk9FIl2qEq6qJVBVEnYCBAgQIECAAAECBAgQIECAAAECBAgQIECAAAECBAgQIECAAAECBFoIZLxfXQlXpVNVQlX5JlDV4ggokgABAgQIECBAgAABAgQIECBAgAABAgQIECBAgAABAgQIECBAgACBEkhXqn3fV6jquq4Zqsp3gapSshMgQIAAAQIECBAgQIAAAQIECBAgQIAAAQIECBAgQIAAAQIECBAg0EIgXakSnkpHqqwZpLrf06lKoKrFEVAkAQIECBAgQIAAAQIECBAgQIAAAQIECBAgQIAAAQIECBAgQIAAAQKfAglRJUCVcFU6VK1w1ec/eSZAgAABAgQIECBAgAABAgQIECBAgAABAgQIECBAgAABAgQIECBAgEAHgQpRbds2w1Sv12vuOlR1+PXVSIAAAQIECBAgQIAAAQIECBAgQIAAAQIECBAgQIAAAQIECBAgQIDAEqhuVOvD/ZBgVZZA1WRwI0CAAAECBAgQIECAAAECBAgQIECAAAECBAgQIECAAAECBAgQIECgk0BCVelSlbF/WRkBmPfRCUGtBAgQIECAAAECBAgQIECAAAECBAgQIECAAAECBAgQIECAAAECBAgQiMB5nhMiQaqsFayab24ECBAgQIAAAQIECBAgQIAAAQIECBAgQIAAAQIECBAgQIAAAQIECBBoIlBhqnSpSqCq3vNs5F+TQ6BMAgQIECBAgAABAgQIECBAgAABAgQIECBAgAABAgQIECBAgAABAgTeAmN8D/ZLmGrbtjXyT6DKKSFAgAABAgQIECBAgAABAgQIECBAgAABAgQIECBAgAABAgQIECBAoJVAQlTXdc3OVNkz7i971vj3v//dCkOxBAgQIECAAAECBAgQIECAAAECBAgQIECAAAECBAgQIECAAAECBAj0Fkh4KuP9PjtT5Vvex99//91bR/UECBAgQIAAAQIECBAgQIAAAQIECBAgQIAAAQIECBAgQIAAAQIECLQS+Pr6euSqrlQpPmGqdK76DyG140Pzi0fbAAAAAElFTkSuQmCC;" vertex="1" parent="1">
          <mxGeometry x="171.0033333333335" y="2120.333333333334" width="2388" height="558" as="geometry" />
        </mxCell>
        <mxCell id="of-63e9qQosdxJ9gNel2-2" value="" style="rounded=1;whiteSpace=wrap;html=1;fillColor=none;strokeWidth=10;strokeColor=#EA6B66;" vertex="1" parent="1">
          <mxGeometry x="174" y="2208" width="126" height="43" as="geometry" />
        </mxCell>
        <mxCell id="of-63e9qQosdxJ9gNel2-3" value="" style="rounded=0;whiteSpace=wrap;html=1;strokeColor=none;fillColor=#ddffc1;" vertex="1" parent="1">
          <mxGeometry x="1438" y="2290" width="375" height="36" as="geometry" />
        </mxCell>
        <mxCell id="of-63e9qQosdxJ9gNel2-4" value="&lt;font style=&quot;font-size: 30px;&quot;&gt;bbb.com&lt;/font&gt;" style="text;html=1;strokeColor=none;fillColor=none;align=center;verticalAlign=middle;whiteSpace=wrap;rounded=0;" vertex="1" parent="1">
          <mxGeometry x="1470" y="2293" width="60" height="30" as="geometry" />
        </mxCell>
        <mxCell id="of-63e9qQosdxJ9gNel2-5" value="" style="rounded=0;whiteSpace=wrap;html=1;strokeColor=none;fillColor=#ddffc1;" vertex="1" parent="1">
          <mxGeometry x="1436" y="2326" width="375" height="36" as="geometry" />
        </mxCell>
        <mxCell id="of-63e9qQosdxJ9gNel2-6" value="&lt;font style=&quot;font-size: 30px;&quot;&gt;bbb.com&lt;/font&gt;" style="text;html=1;strokeColor=none;fillColor=none;align=center;verticalAlign=middle;whiteSpace=wrap;rounded=0;" vertex="1" parent="1">
          <mxGeometry x="1470" y="2329" width="60" height="30" as="geometry" />
        </mxCell>
      </root>
    </mxGraphModel>
  </diagram>
</mxfile>
